{"glyphs":{"0":{"ha":779,"x_min":43,"x_max":736,"o":"m 389 -14 q 201 36 278 -14 q 83 172 124 86 q 43 368 43 258 q 83 564 43 478 q 201 700 124 650 q 389 750 278 750 q 578 700 500 750 q 696 564 656 650 q 736 368 736 478 q 696 172 736 258 q 578 36 656 86 q 389 -14 500 -14 m 389 106 q 592 177 515 106 q 668 368 668 249 q 592 559 668 488 q 389 631 515 631 q 188 559 264 631 q 111 368 111 488 q 188 177 111 249 q 389 106 264 106 z "},"1":{"ha":779,"x_min":122,"x_max":658,"o":"m 122 0 l 122 22 l 289 78 l 289 658 l 122 714 l 122 736 l 658 736 l 658 714 l 492 658 l 492 78 l 658 22 l 658 0 l 122 0 z "},"2":{"ha":779,"x_min":64,"x_max":699,"o":"m 78 0 l 78 50 q 250 208 181 144 q 362 316 319 271 q 423 402 404 361 q 442 493 442 443 q 406 591 442 547 q 296 635 371 635 q 186 599 229 635 q 115 501 143 563 l 64 522 q 200 692 113 635 q 388 750 288 750 q 590 685 521 750 q 660 522 660 619 q 631 414 660 461 q 551 325 603 367 q 426 240 499 283 q 268 143 354 197 l 606 143 l 675 278 l 699 278 l 683 0 l 78 0 z "},"3":{"ha":779,"x_min":50,"x_max":719,"o":"m 353 -193 q 61 -81 144 -193 q 50 -53 50 -62 q 75 -15 50 -33 l 147 39 l 167 39 l 181 7 q 251 -94 213 -60 q 356 -129 289 -129 q 474 -78 433 -129 q 515 47 515 -26 q 439 211 515 154 q 221 268 363 268 l 201 328 l 204 328 q 330 349 274 328 q 419 408 386 369 q 451 496 451 446 q 415 597 451 560 q 308 635 379 635 q 199 599 242 635 q 128 501 157 563 l 78 522 q 214 692 125 635 q 404 750 303 750 q 597 696 526 750 q 668 557 668 642 q 611 430 668 482 q 461 357 554 378 q 659 259 599 329 q 719 93 719 189 q 670 -56 719 8 q 538 -157 621 -121 q 353 -193 456 -193 z "},"4":{"ha":779,"x_min":11,"x_max":761,"o":"m 393 -181 l 393 72 l 11 72 l 11 115 l 503 736 l 596 736 l 596 183 l 761 183 l 761 72 l 596 72 l 596 -181 l 393 -181 m 147 183 l 393 183 l 393 496 l 147 183 z "},"5":{"ha":779,"x_min":81,"x_max":693,"o":"m 318 -194 q 180 -174 238 -194 q 92 -114 122 -154 q 81 -86 81 -99 q 106 -49 81 -67 l 178 7 l 197 7 l 213 -25 q 268 -103 236 -75 q 356 -131 300 -131 q 465 -79 422 -131 q 508 58 508 -28 q 449 201 508 150 q 256 253 389 253 q 191 250 221 253 q 124 240 161 247 l 124 736 l 618 736 l 618 596 l 197 596 l 197 418 q 246 421 219 419 q 306 422 272 422 q 524 385 438 422 q 651 283 610 347 q 693 140 693 219 q 644 -31 693 44 q 511 -151 596 -107 q 318 -194 426 -194 z "},"6":{"ha":779,"x_min":49,"x_max":735,"o":"m 393 -14 q 212 30 289 -14 q 92 153 135 74 q 49 339 49 232 q 121 611 49 492 q 326 813 193 731 q 643 931 458 894 l 643 882 q 388 719 481 832 q 272 450 296 607 q 363 522 308 497 q 488 547 418 547 q 621 513 565 547 q 706 418 676 478 q 735 285 735 358 q 697 138 735 206 q 582 28 658 69 q 393 -14 506 -14 m 264 338 q 299 128 264 203 q 399 53 333 53 q 472 83 444 53 q 511 159 499 114 q 524 247 524 204 q 492 389 524 333 q 392 444 460 444 q 319 425 351 444 q 265 372 288 406 q 264 338 264 356 z "},"7":{"ha":779,"x_min":79,"x_max":699,"o":"m 151 -181 q 253 36 196 -74 q 386 273 311 146 q 560 560 461 400 l 79 560 l 79 736 l 699 736 l 699 683 q 562 408 632 554 q 434 113 492 263 q 347 -181 376 -37 l 151 -181 z "},"8":{"ha":779,"x_min":56,"x_max":722,"o":"m 383 -14 q 217 13 292 -14 q 99 90 143 40 q 56 206 56 139 q 71 283 56 244 q 125 361 86 322 q 238 436 164 400 q 119 547 151 490 q 86 679 86 603 q 130 805 86 747 q 245 897 174 863 q 401 931 317 931 q 545 902 481 931 q 649 823 610 874 q 688 708 688 772 q 639 604 688 651 q 514 518 590 557 q 674 397 625 457 q 722 256 722 336 q 677 117 722 178 q 556 21 632 56 q 383 -14 479 -14 m 272 747 q 284 684 272 714 q 334 623 296 654 q 450 551 372 592 q 508 617 486 578 q 531 708 531 657 q 492 828 531 789 q 396 867 454 867 q 307 835 342 867 q 272 747 272 803 m 221 226 q 266 97 221 144 q 381 49 311 49 q 491 85 453 49 q 529 182 529 122 q 509 259 529 228 q 439 322 489 290 q 300 400 389 354 l 297 401 q 237 328 253 371 q 221 226 221 286 z "},"9":{"ha":779,"x_min":44,"x_max":732,"o":"m 136 -194 l 136 -146 q 391 17 299 -96 q 507 286 483 129 q 416 214 471 239 q 292 189 361 189 q 158 224 214 189 q 74 318 103 258 q 44 451 44 378 q 83 599 44 531 q 197 708 121 667 q 386 750 272 750 q 567 706 489 750 q 689 583 646 663 q 732 397 732 504 q 660 125 732 244 q 453 -76 588 6 q 136 -194 319 -158 m 257 489 q 288 347 257 403 q 388 292 319 292 q 460 311 428 292 q 514 364 492 331 q 515 399 515 381 q 480 608 515 533 q 381 683 444 683 q 308 653 336 683 q 269 577 281 622 q 257 489 257 532 z "},"\u0000":{"ha":0,"x_min":0,"x_max":0,"o":""}," ":{"ha":347,"x_min":0,"x_max":0,"o":""}," ":{"ha":694,"x_min":0,"x_max":0,"o":""}," ":{"ha":347,"x_min":0,"x_max":0,"o":""}," ":{"ha":174,"x_min":0,"x_max":0,"o":""}," ":{"ha":35,"x_min":0,"x_max":0,"o":""},"​":{"ha":0,"x_min":0,"x_max":0,"o":""},"A":{"ha":1075,"x_min":26,"x_max":1049,"o":"m 26 0 l 26 22 l 111 69 l 474 924 l 596 924 l 954 72 l 1049 22 l 1049 0 l 610 0 l 610 22 l 731 72 l 636 303 l 307 303 l 213 72 l 328 22 l 328 0 l 26 0 m 339 379 l 604 379 l 472 703 l 339 379 z "},"B":{"ha":981,"x_min":61,"x_max":935,"o":"m 61 0 l 61 22 l 179 79 l 179 838 l 61 894 l 61 917 l 506 917 q 684 894 606 917 q 808 826 763 871 q 853 711 853 781 q 799 581 853 640 q 646 497 746 521 q 858 419 781 479 q 935 267 935 358 q 883 130 935 190 q 742 35 832 69 q 539 0 653 0 l 61 0 m 436 840 l 389 840 l 389 507 l 444 507 q 588 551 536 507 q 639 669 639 594 q 436 840 639 840 m 485 439 l 389 439 l 389 76 l 494 76 q 655 128 597 76 q 713 260 713 179 q 653 395 713 351 q 485 439 594 439 z "},"C":{"ha":988,"x_min":68,"x_max":890,"o":"m 554 -14 q 299 46 408 -14 q 128 208 189 106 q 68 439 68 310 q 110 632 68 543 q 223 788 151 721 q 385 893 294 856 q 576 931 476 931 q 699 922 650 931 q 786 899 747 914 q 864 864 825 883 l 879 604 l 854 604 l 722 819 q 657 851 688 842 q 583 861 626 861 q 431 810 499 861 q 325 667 364 760 q 286 453 286 575 q 324 244 286 332 q 426 108 361 156 q 571 60 490 60 q 663 73 622 60 q 742 107 704 86 l 867 293 l 890 293 l 871 58 q 734 6 814 25 q 554 -14 654 -14 z "},"D":{"ha":1114,"x_min":61,"x_max":1051,"o":"m 61 0 l 61 22 l 179 79 l 179 838 l 61 894 l 61 917 l 535 917 q 815 863 700 917 q 991 714 931 808 q 1051 500 1051 619 q 1012 300 1051 392 q 901 142 972 208 q 735 38 831 75 q 525 0 639 0 l 61 0 m 478 840 l 389 840 l 389 76 l 497 76 q 746 180 658 76 q 833 457 833 283 q 744 736 833 632 q 478 840 654 840 z "},"E":{"ha":946,"x_min":61,"x_max":857,"o":"m 61 0 l 61 22 l 179 79 l 179 838 l 61 894 l 61 917 l 818 917 l 818 676 l 796 676 l 693 840 l 389 840 l 389 511 l 603 511 l 681 631 l 703 631 l 703 318 l 681 318 l 603 435 l 389 435 l 389 76 l 726 76 l 835 283 l 857 283 l 857 0 l 61 0 z "},"F":{"ha":876,"x_min":61,"x_max":804,"o":"m 61 0 l 61 22 l 179 79 l 179 838 l 61 894 l 61 917 l 804 917 l 804 676 l 782 676 l 688 840 l 389 840 l 389 507 l 589 507 l 667 626 l 689 626 l 689 322 l 667 322 l 589 439 l 389 439 l 389 79 l 531 22 l 531 0 l 61 0 z "},"G":{"ha":1050,"x_min":69,"x_max":1008,"o":"m 549 -14 q 362 20 449 -14 q 209 115 275 54 q 106 259 143 176 q 69 439 69 342 q 111 635 69 546 q 226 792 153 725 q 394 894 300 858 q 593 931 489 931 q 719 922 667 931 q 812 899 771 914 q 893 864 853 883 l 908 619 l 883 619 l 750 821 q 678 853 713 844 q 599 863 643 863 q 440 813 511 863 q 328 673 369 763 q 286 464 286 583 q 326 249 286 339 q 435 111 367 160 q 589 63 504 63 q 640 65 613 63 q 696 72 668 67 l 696 329 l 572 394 l 572 417 l 1008 417 l 1008 394 l 904 328 l 904 103 q 801 41 861 67 q 674 1 740 15 q 549 -14 608 -14 z "},"H":{"ha":1161,"x_min":61,"x_max":1100,"o":"m 61 0 l 61 22 l 179 79 l 179 838 l 61 894 l 61 917 l 497 917 l 497 894 l 389 838 l 389 510 l 774 510 l 774 838 l 663 894 l 663 917 l 1100 917 l 1100 894 l 983 838 l 983 79 l 1100 22 l 1100 0 l 663 0 l 663 22 l 774 79 l 774 433 l 389 433 l 389 79 l 497 22 l 497 0 l 61 0 z "},"I":{"ha":574,"x_min":64,"x_max":510,"o":"m 64 0 l 64 22 l 182 79 l 182 838 l 64 894 l 64 917 l 510 917 l 510 894 l 392 838 l 392 79 l 510 22 l 510 0 l 64 0 z "},"J":{"ha":600,"x_min":36,"x_max":536,"o":"m 81 -240 q 49 -231 61 -240 q 36 -200 36 -222 q 41 -163 36 -187 q 54 -97 46 -139 l 67 -97 q 99 -106 86 -103 q 126 -108 111 -108 q 170 -97 151 -108 q 199 -47 189 -85 q 208 69 208 -8 l 208 838 l 90 894 l 90 917 l 536 917 l 536 894 l 418 838 l 418 340 q 392 143 418 233 q 329 -15 367 53 q 256 -124 292 -83 q 167 -210 207 -181 q 81 -240 126 -240 z "},"K":{"ha":1075,"x_min":61,"x_max":1064,"o":"m 61 0 l 61 22 l 179 79 l 179 838 l 61 894 l 61 917 l 507 917 l 507 894 l 389 838 l 389 79 l 507 22 l 507 0 l 61 0 m 389 463 l 769 843 l 667 894 l 667 917 l 994 917 l 994 894 l 903 856 l 581 546 l 967 63 l 1064 22 l 1064 0 l 756 0 l 389 463 z "},"L":{"ha":901,"x_min":61,"x_max":829,"o":"m 61 0 l 61 22 l 179 79 l 179 838 l 61 894 l 61 917 l 521 917 l 521 894 l 389 838 l 389 76 l 694 76 l 807 339 l 829 339 l 829 0 l 61 0 z "},"M":{"ha":1382,"x_min":58,"x_max":1325,"o":"m 58 0 l 58 22 l 176 79 l 206 838 l 83 894 l 83 917 l 428 917 l 707 271 l 983 917 l 1317 917 l 1317 894 l 1196 851 l 1219 79 l 1325 22 l 1325 0 l 904 0 l 904 22 l 1015 78 l 1001 738 l 685 -7 l 607 -7 l 288 735 l 269 78 l 390 22 l 390 0 l 58 0 z "},"N":{"ha":1133,"x_min":58,"x_max":1075,"o":"m 58 0 l 58 22 l 176 79 l 176 836 l 58 894 l 58 917 l 322 917 l 861 308 l 861 839 l 703 894 l 703 917 l 1075 917 l 1075 894 l 958 838 l 958 -7 l 872 -7 l 274 663 l 274 79 l 432 22 l 432 0 l 58 0 z "},"O":{"ha":1096,"x_min":68,"x_max":1028,"o":"m 547 -14 q 357 22 444 -14 q 205 120 269 57 q 104 269 140 183 q 68 458 68 356 q 104 647 68 561 q 205 797 140 733 q 357 895 269 860 q 547 931 444 931 q 739 895 651 931 q 891 797 826 860 q 992 647 956 733 q 1028 458 1028 561 q 992 269 1028 356 q 891 120 956 183 q 739 22 826 57 q 547 -14 651 -14 m 569 58 q 692 103 639 58 q 776 228 746 147 q 806 417 806 308 q 769 650 806 550 q 669 805 732 750 q 529 860 607 860 q 406 816 460 860 q 320 692 351 772 q 289 503 289 611 q 326 269 289 369 q 428 114 364 169 q 569 58 492 58 z "},"P":{"ha":950,"x_min":61,"x_max":904,"o":"m 61 0 l 61 22 l 179 79 l 179 838 l 61 894 l 61 917 l 542 917 q 805 858 706 917 q 904 669 904 799 q 852 533 904 592 q 711 441 800 474 q 508 408 622 408 l 389 408 l 389 79 l 531 22 l 531 0 l 61 0 m 389 840 l 389 476 l 456 476 q 629 528 567 476 q 692 657 692 579 q 628 797 692 754 q 447 840 564 840 l 389 840 z "},"Q":{"ha":1096,"x_min":68,"x_max":1128,"o":"m 953 -215 q 818 -198 888 -215 q 665 -136 749 -181 q 475 -10 581 -92 q 265 71 357 7 q 120 235 172 135 q 68 458 68 335 q 104 647 68 561 q 205 797 140 733 q 357 895 269 860 q 547 931 444 931 q 739 895 651 931 q 891 797 826 860 q 992 647 956 733 q 1028 458 1028 561 q 988 260 1028 350 q 875 105 947 169 q 707 10 803 40 q 899 -123 822 -87 q 1036 -158 975 -158 q 1090 -154 1067 -158 q 1128 -146 1113 -150 l 1128 -178 q 1054 -204 1097 -193 q 953 -215 1011 -215 m 569 58 q 692 103 639 58 q 776 228 746 147 q 806 417 806 308 q 769 650 806 550 q 669 805 732 750 q 529 860 607 860 q 406 816 460 860 q 320 692 351 772 q 289 503 289 611 q 326 269 289 369 q 428 114 364 169 q 569 58 492 58 z "},"R":{"ha":1010,"x_min":61,"x_max":1021,"o":"m 61 0 l 61 22 l 179 79 l 179 838 l 61 894 l 61 917 l 536 917 q 766 856 682 917 q 850 690 850 796 q 799 559 850 614 q 664 472 747 504 l 921 78 l 1021 22 l 1021 0 l 719 0 l 463 425 l 389 425 l 389 81 l 493 22 l 493 0 l 61 0 m 444 840 l 389 840 l 389 493 l 453 493 q 589 542 539 493 q 639 668 639 590 q 590 795 639 750 q 444 840 540 840 z "},"S":{"ha":794,"x_min":65,"x_max":728,"o":"m 376 -14 q 215 5 285 -14 q 79 57 144 24 l 65 292 l 90 292 l 189 121 q 270 74 226 90 q 360 57 314 57 q 482 92 435 57 q 529 197 529 128 q 508 275 529 244 q 436 333 486 306 q 299 399 386 360 q 147 501 200 442 q 94 650 94 561 q 123 756 94 706 q 199 847 151 807 q 306 908 247 886 q 428 931 365 931 q 564 914 499 931 q 685 867 629 897 l 699 644 l 675 644 l 578 801 q 508 844 542 829 q 431 858 474 858 q 336 822 374 858 q 299 726 299 786 q 340 633 299 669 q 482 550 381 596 q 668 431 608 492 q 728 269 728 369 q 676 117 728 181 q 544 19 625 53 q 376 -14 464 -14 z "},"T":{"ha":974,"x_min":50,"x_max":924,"o":"m 235 0 l 235 22 l 382 79 l 382 840 l 183 840 l 72 611 l 50 611 l 50 917 l 924 917 l 924 611 l 901 611 l 790 840 l 592 840 l 592 79 l 739 22 l 739 0 l 235 0 z "},"U":{"ha":1164,"x_min":61,"x_max":1103,"o":"m 588 -14 q 375 26 467 -14 q 232 155 283 65 q 181 394 181 244 l 181 838 l 61 894 l 61 917 l 510 917 l 510 894 l 390 838 l 390 393 q 426 212 390 278 q 522 118 461 146 q 656 90 582 90 q 769 115 717 90 q 854 197 822 140 q 886 344 886 253 l 886 840 l 756 894 l 756 917 l 1103 917 l 1103 894 l 983 839 l 983 394 q 933 155 983 244 q 794 26 883 65 q 588 -14 706 -14 z "},"V":{"ha":1061,"x_min":26,"x_max":1033,"o":"m 494 -7 l 125 840 l 26 894 l 26 917 l 460 917 l 460 894 l 346 840 l 593 272 l 604 272 l 849 842 l 736 894 l 736 917 l 1033 917 l 1033 894 l 953 850 l 575 -7 l 494 -7 z "},"W":{"ha":1447,"x_min":17,"x_max":1431,"o":"m 390 -7 l 124 839 l 17 894 l 17 917 l 454 917 l 454 894 l 338 842 l 497 307 l 504 307 l 746 924 l 828 924 l 1068 307 l 1075 307 l 1236 840 l 1117 894 l 1117 917 l 1431 917 l 1431 894 l 1338 844 l 1065 -7 l 985 -7 l 736 610 l 726 610 l 471 -7 l 390 -7 z "},"X":{"ha":1083,"x_min":36,"x_max":1047,"o":"m 36 0 l 36 22 l 146 78 l 435 432 l 144 843 l 53 894 l 53 917 l 511 917 l 511 894 l 401 840 l 401 833 l 590 572 l 799 833 l 799 839 l 690 894 l 690 917 l 1017 917 l 1017 894 l 924 846 l 640 503 l 949 78 l 1047 22 l 1047 0 l 582 0 l 582 22 l 682 75 l 682 81 l 485 361 l 261 82 l 258 76 l 369 22 l 369 0 l 36 0 z "},"Y":{"ha":1047,"x_min":28,"x_max":1021,"o":"m 300 0 l 300 22 l 425 79 l 425 428 l 122 840 l 28 894 l 28 917 l 457 917 l 457 894 l 353 843 l 353 838 l 594 511 l 811 835 l 811 840 l 704 894 l 704 917 l 1021 917 l 1021 894 l 928 849 l 635 429 l 635 79 l 758 22 l 758 0 l 300 0 z "},"Z":{"ha":974,"x_min":117,"x_max":857,"o":"m 117 0 l 117 44 l 590 840 l 258 840 l 156 633 l 133 633 l 133 917 l 842 917 l 842 872 l 365 76 l 725 76 l 835 297 l 857 297 l 857 0 l 117 0 z "},"À":{"ha":1075,"x_min":26,"x_max":1049,"o":"m 26 0 l 26 22 l 111 69 l 474 924 l 596 924 l 954 72 l 1049 22 l 1049 0 l 610 0 l 610 22 l 731 72 l 636 303 l 307 303 l 213 72 l 328 22 l 328 0 l 26 0 m 339 379 l 604 379 l 472 703 l 339 379 m 519 986 l 338 1101 q 292 1147 303 1124 q 282 1197 282 1171 l 435 1197 l 550 986 l 519 986 z "},"Á":{"ha":1075,"x_min":26,"x_max":1049,"o":"m 26 0 l 26 22 l 111 69 l 474 924 l 596 924 l 954 72 l 1049 22 l 1049 0 l 610 0 l 610 22 l 731 72 l 636 303 l 307 303 l 213 72 l 328 22 l 328 0 l 26 0 m 339 379 l 604 379 l 472 703 l 339 379 m 519 986 l 635 1197 l 788 1197 q 776 1147 788 1171 q 732 1101 765 1122 l 550 986 l 519 986 z "},"Â":{"ha":1075,"x_min":26,"x_max":1049,"o":"m 26 0 l 26 22 l 111 69 l 474 924 l 596 924 l 954 72 l 1049 22 l 1049 0 l 610 0 l 610 22 l 731 72 l 636 303 l 307 303 l 213 72 l 328 22 l 328 0 l 26 0 m 339 379 l 604 379 l 472 703 l 339 379 m 314 986 l 503 1197 l 569 1197 l 758 986 l 728 986 l 536 1075 l 344 986 l 314 986 z "},"Ã":{"ha":1075,"x_min":26,"x_max":1049,"o":"m 26 0 l 26 22 l 111 69 l 474 924 l 596 924 l 954 72 l 1049 22 l 1049 0 l 610 0 l 610 22 l 731 72 l 636 303 l 307 303 l 213 72 l 328 22 l 328 0 l 26 0 m 339 379 l 604 379 l 472 703 l 339 379 m 307 1003 q 375 1143 342 1108 q 451 1178 408 1178 q 527 1160 492 1178 q 594 1123 563 1142 q 656 1104 625 1104 q 697 1117 678 1104 q 735 1178 715 1131 l 765 1178 q 698 1038 732 1072 q 621 1003 664 1003 q 545 1021 581 1003 q 478 1058 510 1039 q 417 1076 447 1076 q 376 1063 394 1076 q 338 1003 357 1050 l 307 1003 z "},"Ä":{"ha":1075,"x_min":26,"x_max":1049,"o":"m 26 0 l 26 22 l 111 69 l 474 924 l 596 924 l 954 72 l 1049 22 l 1049 0 l 610 0 l 610 22 l 731 72 l 636 303 l 307 303 l 213 72 l 328 22 l 328 0 l 26 0 m 339 379 l 604 379 l 472 703 l 339 379 m 399 1010 q 341 1033 364 1010 q 318 1090 318 1057 q 341 1149 318 1125 q 399 1172 364 1172 q 456 1149 433 1172 q 479 1090 479 1125 q 456 1033 479 1057 q 399 1010 433 1010 m 674 1010 q 616 1033 639 1010 q 593 1090 593 1057 q 616 1149 593 1125 q 674 1172 639 1172 q 731 1149 708 1172 q 754 1090 754 1125 q 731 1033 754 1057 q 674 1010 708 1010 z "},"Ā":{"ha":1075,"x_min":26,"x_max":1049,"o":"m 26 0 l 26 22 l 111 69 l 474 924 l 596 924 l 954 72 l 1049 22 l 1049 0 l 610 0 l 610 22 l 731 72 l 636 303 l 307 303 l 213 72 l 328 22 l 328 0 l 26 0 m 339 379 l 604 379 l 472 703 l 339 379 m 335 1051 l 335 1133 l 738 1133 l 738 1051 l 335 1051 z "},"Ă":{"ha":1075,"x_min":26,"x_max":1049,"o":"m 26 0 l 26 22 l 111 69 l 474 924 l 596 924 l 954 72 l 1049 22 l 1049 0 l 610 0 l 610 22 l 731 72 l 636 303 l 307 303 l 213 72 l 328 22 l 328 0 l 26 0 m 339 379 l 604 379 l 472 703 l 339 379 m 536 986 q 388 1040 436 986 q 315 1197 339 1094 l 344 1197 q 423 1113 376 1132 q 536 1094 469 1094 q 649 1113 603 1094 q 728 1197 694 1131 l 757 1197 q 680 1040 732 1094 q 536 986 628 986 z "},"Å":{"ha":1075,"x_min":26,"x_max":1049,"o":"m 26 0 l 26 22 l 111 69 l 474 924 l 596 924 l 954 72 l 1049 22 l 1049 0 l 610 0 l 610 22 l 731 72 l 636 303 l 307 303 l 213 72 l 328 22 l 328 0 l 26 0 m 339 379 l 604 379 l 472 703 l 339 379 m 536 986 q 447 1019 482 986 q 413 1104 413 1053 q 447 1188 413 1154 q 536 1222 482 1222 q 626 1188 592 1222 q 660 1104 660 1154 q 626 1019 660 1053 q 536 986 592 986 m 542 1021 q 583 1094 583 1021 q 531 1188 583 1188 q 489 1113 489 1188 q 542 1021 489 1021 z "},"Ǻ":{"ha":1075,"x_min":26,"x_max":1049,"o":"m 26 0 l 26 22 l 111 69 l 474 924 l 596 924 l 954 72 l 1049 22 l 1049 0 l 610 0 l 610 22 l 731 72 l 636 303 l 307 303 l 213 72 l 328 22 l 328 0 l 26 0 m 339 379 l 604 379 l 472 703 l 339 379 m 536 986 q 447 1019 482 986 q 413 1104 413 1053 q 447 1188 413 1154 q 536 1222 482 1222 q 626 1188 592 1222 q 660 1104 660 1154 q 626 1019 660 1053 q 536 986 592 986 m 542 1021 q 583 1094 583 1021 q 531 1188 583 1188 q 489 1113 489 1188 q 542 1021 489 1021 m 519 1257 l 635 1468 l 788 1468 q 776 1417 788 1442 q 732 1372 765 1393 l 550 1257 l 519 1257 z "},"Ạ":{"ha":1075,"x_min":26,"x_max":1049,"o":"m 26 0 l 26 22 l 111 69 l 474 924 l 596 924 l 954 72 l 1049 22 l 1049 0 l 610 0 l 610 22 l 731 72 l 636 303 l 307 303 l 213 72 l 328 22 l 328 0 l 26 0 m 339 379 l 604 379 l 472 703 l 339 379 z "},"Ą":{"ha":1075,"x_min":26,"x_max":1049,"o":"m 833 -176 q 913 -261 833 -261 q 947 -256 929 -261 q 979 -239 964 -250 l 983 -239 l 983 -265 q 860 -333 949 -333 q 758 -299 796 -333 q 719 -208 719 -264 q 752 -109 719 -160 q 840 0 785 -58 l 610 0 l 610 22 l 731 72 l 636 303 l 307 303 l 213 72 l 328 22 l 328 0 l 26 0 l 26 22 l 111 71 l 474 924 l 596 924 l 953 75 l 1049 22 l 1049 0 l 888 0 q 833 -176 833 -94 m 339 379 l 604 379 l 472 703 l 339 379 z "},"Ȁ":{"ha":1075,"x_min":26,"x_max":1049,"o":"m 26 0 l 26 22 l 111 69 l 474 924 l 596 924 l 954 72 l 1049 22 l 1049 0 l 610 0 l 610 22 l 731 72 l 636 303 l 307 303 l 213 72 l 328 22 l 328 0 l 26 0 m 339 379 l 604 379 l 472 703 l 339 379 m 424 986 l 268 1110 q 244 1153 243 1131 q 251 1197 244 1176 l 365 1197 l 454 986 l 424 986 m 614 986 l 481 1110 q 457 1154 457 1132 q 464 1197 457 1176 l 578 1197 l 644 986 l 614 986 z "},"Ȃ":{"ha":1075,"x_min":26,"x_max":1049,"o":"m 26 0 l 26 22 l 111 69 l 474 924 l 596 924 l 954 72 l 1049 22 l 1049 0 l 610 0 l 610 22 l 731 72 l 636 303 l 307 303 l 213 72 l 328 22 l 328 0 l 26 0 m 339 379 l 604 379 l 472 703 l 339 379 m 315 986 q 392 1143 340 1089 q 536 1197 444 1197 q 685 1143 636 1197 q 757 986 733 1089 l 728 986 q 649 1070 696 1051 q 536 1089 603 1089 q 424 1071 469 1089 q 344 986 378 1053 l 315 986 z "},"Ắ":{"ha":1075,"x_min":26,"x_max":1049,"o":"m 26 0 l 26 22 l 111 69 l 474 924 l 596 924 l 954 72 l 1049 22 l 1049 0 l 610 0 l 610 22 l 731 72 l 636 303 l 307 303 l 213 72 l 328 22 l 328 0 l 26 0 m 339 379 l 604 379 l 472 703 l 339 379 z "},"Ặ":{"ha":1075,"x_min":26,"x_max":1049,"o":"m 26 0 l 26 22 l 111 69 l 474 924 l 596 924 l 954 72 l 1049 22 l 1049 0 l 610 0 l 610 22 l 731 72 l 636 303 l 307 303 l 213 72 l 328 22 l 328 0 l 26 0 m 339 379 l 604 379 l 472 703 l 339 379 m 536 986 q 388 1040 436 986 q 315 1197 339 1094 l 344 1197 q 423 1113 376 1132 q 536 1094 469 1094 q 649 1113 603 1094 q 728 1197 694 1131 l 757 1197 q 680 1040 732 1094 q 536 986 628 986 z "},"Ằ":{"ha":1075,"x_min":26,"x_max":1049,"o":"m 26 0 l 26 22 l 111 69 l 474 924 l 596 924 l 954 72 l 1049 22 l 1049 0 l 610 0 l 610 22 l 731 72 l 636 303 l 307 303 l 213 72 l 328 22 l 328 0 l 26 0 m 339 379 l 604 379 l 472 703 l 339 379 z "},"Ẳ":{"ha":1075,"x_min":26,"x_max":1049,"o":"m 26 0 l 26 22 l 111 69 l 474 924 l 596 924 l 954 72 l 1049 22 l 1049 0 l 610 0 l 610 22 l 731 72 l 636 303 l 307 303 l 213 72 l 328 22 l 328 0 l 26 0 m 339 379 l 604 379 l 472 703 l 339 379 z "},"Ẵ":{"ha":1075,"x_min":26,"x_max":1049,"o":"m 26 0 l 26 22 l 111 69 l 474 924 l 596 924 l 954 72 l 1049 22 l 1049 0 l 610 0 l 610 22 l 731 72 l 636 303 l 307 303 l 213 72 l 328 22 l 328 0 l 26 0 m 339 379 l 604 379 l 472 703 l 339 379 z "},"Ấ":{"ha":1075,"x_min":26,"x_max":1049,"o":"m 26 0 l 26 22 l 111 69 l 474 924 l 596 924 l 954 72 l 1049 22 l 1049 0 l 610 0 l 610 22 l 731 72 l 636 303 l 307 303 l 213 72 l 328 22 l 328 0 l 26 0 m 339 379 l 604 379 l 472 703 l 339 379 m 694 1118 l 753 1317 l 893 1317 q 843 1229 893 1274 l 724 1118 l 694 1118 m 314 986 l 503 1197 l 569 1197 l 758 986 l 728 986 l 536 1075 l 344 986 l 314 986 z "},"Ậ":{"ha":1075,"x_min":26,"x_max":1049,"o":"m 26 0 l 26 22 l 111 69 l 474 924 l 596 924 l 954 72 l 1049 22 l 1049 0 l 610 0 l 610 22 l 731 72 l 636 303 l 307 303 l 213 72 l 328 22 l 328 0 l 26 0 m 339 379 l 604 379 l 472 703 l 339 379 m 314 986 l 503 1197 l 569 1197 l 758 986 l 728 986 l 536 1075 l 344 986 l 314 986 z "},"Ầ":{"ha":1075,"x_min":26,"x_max":1049,"o":"m 26 0 l 26 22 l 111 69 l 474 924 l 596 924 l 954 72 l 1049 22 l 1049 0 l 610 0 l 610 22 l 731 72 l 636 303 l 307 303 l 213 72 l 328 22 l 328 0 l 26 0 m 339 379 l 604 379 l 472 703 l 339 379 m 349 1118 l 229 1229 q 179 1317 179 1274 l 319 1317 l 378 1118 l 349 1118 m 314 986 l 503 1197 l 569 1197 l 758 986 l 728 986 l 536 1075 l 344 986 l 314 986 z "},"Ẩ":{"ha":1075,"x_min":26,"x_max":1049,"o":"m 26 0 l 26 22 l 111 69 l 474 924 l 596 924 l 954 72 l 1049 22 l 1049 0 l 610 0 l 610 22 l 731 72 l 636 303 l 307 303 l 213 72 l 328 22 l 328 0 l 26 0 m 339 379 l 604 379 l 472 703 l 339 379 z "},"Ẫ":{"ha":1075,"x_min":26,"x_max":1049,"o":"m 26 0 l 26 22 l 111 69 l 474 924 l 596 924 l 954 72 l 1049 22 l 1049 0 l 610 0 l 610 22 l 731 72 l 636 303 l 307 303 l 213 72 l 328 22 l 328 0 l 26 0 m 339 379 l 604 379 l 472 703 l 339 379 z "},"Ả":{"ha":1075,"x_min":26,"x_max":1049,"o":"m 26 0 l 26 22 l 111 69 l 474 924 l 596 924 l 954 72 l 1049 22 l 1049 0 l 610 0 l 610 22 l 731 72 l 636 303 l 307 303 l 213 72 l 328 22 l 328 0 l 26 0 m 339 379 l 604 379 l 472 703 l 339 379 m 467 988 l 467 989 q 533 1018 511 1004 q 554 1058 554 1032 q 532 1094 554 1081 q 454 1119 510 1108 l 474 1215 q 606 1173 568 1207 q 643 1103 643 1139 q 602 1017 643 1047 q 481 975 561 986 l 467 988 z "},"Æ":{"ha":1429,"x_min":24,"x_max":1340,"o":"m 644 917 l 1301 917 l 1301 676 l 1279 676 l 1176 840 l 872 840 l 872 511 l 1086 511 l 1164 631 l 1186 631 l 1186 318 l 1164 318 l 1086 435 l 872 435 l 872 76 l 1208 76 l 1318 283 l 1340 283 l 1340 0 l 543 0 l 543 22 l 663 79 l 663 319 l 369 319 l 214 71 l 324 22 l 324 0 l 24 0 l 24 22 l 114 71 l 644 917 m 417 396 l 663 396 l 663 792 l 417 396 z "},"Ǽ":{"ha":1429,"x_min":24,"x_max":1340,"o":"m 644 917 l 1301 917 l 1301 676 l 1279 676 l 1176 840 l 872 840 l 872 511 l 1086 511 l 1164 631 l 1186 631 l 1186 318 l 1164 318 l 1086 435 l 872 435 l 872 76 l 1208 76 l 1318 283 l 1340 283 l 1340 0 l 543 0 l 543 22 l 663 79 l 663 319 l 369 319 l 214 71 l 324 22 l 324 0 l 24 0 l 24 22 l 114 71 l 644 917 m 417 396 l 663 396 l 663 792 l 417 396 m 765 986 l 881 1197 l 1033 1197 q 1022 1147 1033 1171 q 978 1101 1011 1122 l 796 986 l 765 986 z "},"Ć":{"ha":988,"x_min":68,"x_max":890,"o":"m 554 -14 q 299 46 408 -14 q 128 208 189 106 q 68 439 68 310 q 110 632 68 543 q 223 788 151 721 q 385 893 294 856 q 576 931 476 931 q 699 922 650 931 q 786 899 747 914 q 864 864 825 883 l 879 604 l 854 604 l 722 819 q 657 851 688 842 q 583 861 626 861 q 431 810 499 861 q 325 667 364 760 q 286 453 286 575 q 324 244 286 332 q 426 108 361 156 q 571 60 490 60 q 663 73 622 60 q 742 107 704 86 l 867 293 l 890 293 l 871 58 q 734 6 814 25 q 554 -14 654 -14 m 528 986 l 643 1197 l 796 1197 q 785 1147 796 1171 q 740 1101 774 1122 l 558 986 l 528 986 z "},"Ĉ":{"ha":988,"x_min":68,"x_max":890,"o":"m 554 -14 q 299 46 408 -14 q 128 208 189 106 q 68 439 68 310 q 110 632 68 543 q 223 788 151 721 q 385 893 294 856 q 576 931 476 931 q 699 922 650 931 q 786 899 747 914 q 864 864 825 883 l 879 604 l 854 604 l 722 819 q 657 851 688 842 q 583 861 626 861 q 431 810 499 861 q 325 667 364 760 q 286 453 286 575 q 324 244 286 332 q 426 108 361 156 q 571 60 490 60 q 663 73 622 60 q 742 107 704 86 l 867 293 l 890 293 l 871 58 q 734 6 814 25 q 554 -14 654 -14 m 321 986 l 510 1197 l 576 1197 l 765 986 l 735 986 l 543 1075 l 351 986 l 321 986 z "},"Č":{"ha":988,"x_min":68,"x_max":890,"o":"m 554 -14 q 299 46 408 -14 q 128 208 189 106 q 68 439 68 310 q 110 632 68 543 q 223 788 151 721 q 385 893 294 856 q 576 931 476 931 q 699 922 650 931 q 786 899 747 914 q 864 864 825 883 l 879 604 l 854 604 l 722 819 q 657 851 688 842 q 583 861 626 861 q 431 810 499 861 q 325 667 364 760 q 286 453 286 575 q 324 244 286 332 q 426 108 361 156 q 571 60 490 60 q 663 73 622 60 q 742 107 704 86 l 867 293 l 890 293 l 871 58 q 734 6 814 25 q 554 -14 654 -14 m 510 986 l 321 1197 l 351 1197 l 543 1108 l 735 1197 l 765 1197 l 576 986 l 510 986 z "},"Ċ":{"ha":988,"x_min":68,"x_max":890,"o":"m 554 -14 q 299 46 408 -14 q 128 208 189 106 q 68 439 68 310 q 110 632 68 543 q 223 788 151 721 q 385 893 294 856 q 576 931 476 931 q 699 922 650 931 q 786 899 747 914 q 864 864 825 883 l 879 604 l 854 604 l 722 819 q 657 851 688 842 q 583 861 626 861 q 431 810 499 861 q 325 667 364 760 q 286 453 286 575 q 324 244 286 332 q 426 108 361 156 q 571 60 490 60 q 663 73 622 60 q 742 107 704 86 l 867 293 l 890 293 l 871 58 q 734 6 814 25 q 554 -14 654 -14 m 543 1001 q 470 1030 499 1001 q 442 1103 442 1058 q 470 1175 442 1146 q 543 1204 499 1204 q 616 1175 588 1204 q 644 1103 644 1146 q 616 1030 644 1058 q 543 1001 588 1001 z "},"Ç":{"ha":988,"x_min":68,"x_max":890,"o":"m 521 -290 q 597 -236 597 -290 q 570 -186 597 -207 q 461 -143 543 -165 l 521 -12 q 283 55 385 -6 q 124 215 181 115 q 68 439 68 315 q 110 632 68 543 q 223 788 151 721 q 385 893 294 856 q 576 931 476 931 q 699 922 650 931 q 786 899 747 914 q 864 864 825 883 l 879 604 l 854 604 l 722 819 q 657 851 688 842 q 583 861 626 861 q 431 810 499 861 q 325 667 364 760 q 286 453 286 575 q 324 244 286 332 q 426 108 361 156 q 571 60 490 60 q 663 73 622 60 q 742 107 704 86 l 867 293 l 890 293 l 871 58 q 742 7 817 26 q 574 -14 667 -12 l 553 -60 q 664 -117 632 -83 q 696 -206 696 -151 q 656 -297 696 -261 q 550 -333 617 -333 q 438 -300 478 -333 l 438 -274 l 442 -274 q 521 -290 475 -290 z "},"Ḉ":{"ha":988,"x_min":68,"x_max":890,"o":"m 528 986 l 643 1197 l 796 1197 q 785 1147 796 1171 q 740 1101 774 1122 l 558 986 l 528 986 m 550 -333 q 438 -300 478 -333 l 438 -274 l 442 -274 q 521 -290 475 -290 q 597 -236 597 -290 q 570 -186 597 -207 q 461 -143 543 -165 l 521 -12 q 283 55 385 -6 q 124 215 181 115 q 68 439 68 315 q 110 632 68 543 q 223 788 151 721 q 385 893 294 856 q 576 931 476 931 q 699 922 650 931 q 786 899 747 914 q 864 864 825 883 l 879 604 l 854 604 l 722 819 q 657 851 688 842 q 583 861 626 861 q 431 810 499 861 q 325 667 364 760 q 286 453 286 575 q 324 244 286 332 q 426 108 361 156 q 571 60 490 60 q 663 73 622 60 q 742 107 704 86 l 867 293 l 890 293 l 871 58 q 742 7 817 26 q 574 -14 667 -12 l 553 -60 q 664 -117 632 -83 q 696 -206 696 -151 q 656 -297 696 -261 q 550 -333 617 -333 z "},"Ď":{"ha":1114,"x_min":61,"x_max":1051,"o":"m 61 0 l 61 22 l 179 79 l 179 838 l 61 894 l 61 917 l 535 917 q 815 863 700 917 q 991 714 931 808 q 1051 500 1051 619 q 1012 300 1051 392 q 901 142 972 208 q 735 38 831 75 q 525 0 639 0 l 61 0 m 478 840 l 389 840 l 389 76 l 497 76 q 746 180 658 76 q 833 457 833 283 q 744 736 833 632 q 478 840 654 840 m 510 986 l 321 1197 l 351 1197 l 543 1108 l 735 1197 l 765 1197 l 576 986 l 510 986 z "},"Đ":{"ha":1114,"x_min":61,"x_max":1051,"o":"m 61 0 l 61 22 l 179 79 l 179 439 l 61 439 l 61 513 l 179 513 l 179 838 l 61 894 l 61 917 l 535 917 q 815 863 700 917 q 991 714 931 808 q 1051 500 1051 619 q 1012 300 1051 392 q 901 142 972 208 q 735 38 831 75 q 525 0 639 0 l 61 0 m 599 439 l 389 439 l 389 76 l 497 76 q 746 180 658 76 q 833 457 833 283 q 744 736 833 632 q 478 840 654 840 l 389 840 l 389 513 l 599 513 l 599 439 z "},"Ḍ":{"ha":1114,"x_min":61,"x_max":1051,"o":"m 61 0 l 61 22 l 179 79 l 179 838 l 61 894 l 61 917 l 535 917 q 815 863 700 917 q 991 714 931 808 q 1051 500 1051 619 q 1012 300 1051 392 q 901 142 972 208 q 735 38 831 75 q 525 0 639 0 l 61 0 m 478 840 l 389 840 l 389 76 l 497 76 q 746 180 658 76 q 833 457 833 283 q 744 736 833 632 q 478 840 654 840 z "},"Ḏ":{"ha":1114,"x_min":61,"x_max":1051,"o":"m 61 0 l 61 22 l 179 79 l 179 838 l 61 894 l 61 917 l 535 917 q 815 863 700 917 q 991 714 931 808 q 1051 500 1051 619 q 1012 300 1051 392 q 901 142 972 208 q 735 38 831 75 q 525 0 639 0 l 61 0 m 478 840 l 389 840 l 389 76 l 497 76 q 746 180 658 76 q 833 457 833 283 q 744 736 833 632 q 478 840 654 840 z "},"È":{"ha":946,"x_min":61,"x_max":857,"o":"m 61 0 l 61 22 l 179 79 l 179 838 l 61 894 l 61 917 l 818 917 l 818 676 l 796 676 l 693 840 l 389 840 l 389 511 l 603 511 l 681 631 l 703 631 l 703 318 l 681 318 l 603 435 l 389 435 l 389 76 l 726 76 l 835 283 l 857 283 l 857 0 l 61 0 m 475 986 l 293 1101 q 248 1147 258 1124 q 238 1197 238 1171 l 390 1197 l 506 986 l 475 986 z "},"É":{"ha":946,"x_min":61,"x_max":857,"o":"m 61 0 l 61 22 l 179 79 l 179 838 l 61 894 l 61 917 l 818 917 l 818 676 l 796 676 l 693 840 l 389 840 l 389 511 l 603 511 l 681 631 l 703 631 l 703 318 l 681 318 l 603 435 l 389 435 l 389 76 l 726 76 l 835 283 l 857 283 l 857 0 l 61 0 m 475 986 l 590 1197 l 743 1197 q 732 1147 743 1171 q 688 1101 721 1122 l 506 986 l 475 986 z "},"Ê":{"ha":946,"x_min":61,"x_max":857,"o":"m 61 0 l 61 22 l 179 79 l 179 838 l 61 894 l 61 917 l 818 917 l 818 676 l 796 676 l 693 840 l 389 840 l 389 511 l 603 511 l 681 631 l 703 631 l 703 318 l 681 318 l 603 435 l 389 435 l 389 76 l 726 76 l 835 283 l 857 283 l 857 0 l 61 0 m 269 986 l 458 1197 l 525 1197 l 714 986 l 683 986 l 492 1075 l 300 986 l 269 986 z "},"Ě":{"ha":946,"x_min":61,"x_max":857,"o":"m 61 0 l 61 22 l 179 79 l 179 838 l 61 894 l 61 917 l 818 917 l 818 676 l 796 676 l 693 840 l 389 840 l 389 511 l 603 511 l 681 631 l 703 631 l 703 318 l 681 318 l 603 435 l 389 435 l 389 76 l 726 76 l 835 283 l 857 283 l 857 0 l 61 0 m 458 986 l 269 1197 l 300 1197 l 492 1108 l 683 1197 l 714 1197 l 525 986 l 458 986 z "},"Ẽ":{"ha":946,"x_min":61,"x_max":857,"o":"m 61 0 l 61 22 l 179 79 l 179 838 l 61 894 l 61 917 l 818 917 l 818 676 l 796 676 l 693 840 l 389 840 l 389 511 l 603 511 l 681 631 l 703 631 l 703 318 l 681 318 l 603 435 l 389 435 l 389 76 l 726 76 l 835 283 l 857 283 l 857 0 l 61 0 m 263 1003 q 331 1143 297 1108 q 407 1178 364 1178 q 483 1160 447 1178 q 549 1123 518 1142 q 611 1104 581 1104 q 652 1117 633 1104 q 690 1178 671 1131 l 721 1178 q 653 1038 688 1072 q 576 1003 619 1003 q 501 1021 536 1003 q 434 1058 465 1039 q 372 1076 403 1076 q 331 1063 350 1076 q 293 1003 313 1050 l 263 1003 z "},"Ë":{"ha":946,"x_min":61,"x_max":857,"o":"m 61 0 l 61 22 l 179 79 l 179 838 l 61 894 l 61 917 l 818 917 l 818 676 l 796 676 l 693 840 l 389 840 l 389 511 l 603 511 l 681 631 l 703 631 l 703 318 l 681 318 l 603 435 l 389 435 l 389 76 l 726 76 l 835 283 l 857 283 l 857 0 l 61 0 m 354 1010 q 297 1033 319 1010 q 274 1090 274 1057 q 297 1149 274 1125 q 354 1172 319 1172 q 412 1149 389 1172 q 435 1090 435 1125 q 412 1033 435 1057 q 354 1010 389 1010 m 629 1010 q 572 1033 594 1010 q 549 1090 549 1057 q 572 1149 549 1125 q 629 1172 594 1172 q 687 1149 664 1172 q 710 1090 710 1125 q 687 1033 710 1057 q 629 1010 664 1010 z "},"Ē":{"ha":946,"x_min":61,"x_max":857,"o":"m 61 0 l 61 22 l 179 79 l 179 838 l 61 894 l 61 917 l 818 917 l 818 676 l 796 676 l 693 840 l 389 840 l 389 511 l 603 511 l 681 631 l 703 631 l 703 318 l 681 318 l 603 435 l 389 435 l 389 76 l 726 76 l 835 283 l 857 283 l 857 0 l 61 0 m 290 1051 l 290 1133 l 693 1133 l 693 1051 l 290 1051 z "},"Ĕ":{"ha":946,"x_min":61,"x_max":857,"o":"m 61 0 l 61 22 l 179 79 l 179 838 l 61 894 l 61 917 l 818 917 l 818 676 l 796 676 l 693 840 l 389 840 l 389 511 l 603 511 l 681 631 l 703 631 l 703 318 l 681 318 l 603 435 l 389 435 l 389 76 l 726 76 l 835 283 l 857 283 l 857 0 l 61 0 m 492 986 q 343 1040 392 986 q 271 1197 294 1094 l 300 1197 q 378 1113 332 1132 q 492 1094 425 1094 q 604 1113 558 1094 q 683 1197 650 1131 l 713 1197 q 635 1040 688 1094 q 492 986 583 986 z "},"Ė":{"ha":946,"x_min":61,"x_max":857,"o":"m 61 0 l 61 22 l 179 79 l 179 838 l 61 894 l 61 917 l 818 917 l 818 676 l 796 676 l 693 840 l 389 840 l 389 511 l 603 511 l 681 631 l 703 631 l 703 318 l 681 318 l 603 435 l 389 435 l 389 76 l 726 76 l 835 283 l 857 283 l 857 0 l 61 0 m 492 1001 q 419 1030 447 1001 q 390 1103 390 1058 q 419 1175 390 1146 q 492 1204 447 1204 q 565 1175 536 1204 q 593 1103 593 1146 q 565 1030 593 1058 q 492 1001 536 1001 z "},"Ę":{"ha":946,"x_min":61,"x_max":857,"o":"m 61 0 l 61 22 l 179 79 l 179 838 l 61 894 l 61 917 l 818 917 l 818 676 l 796 676 l 693 840 l 389 840 l 389 511 l 603 511 l 681 631 l 703 631 l 703 318 l 681 318 l 603 435 l 389 435 l 389 76 l 726 76 l 835 283 l 857 283 l 857 0 l 760 0 q 706 -176 706 -94 q 785 -261 706 -261 q 819 -256 801 -261 q 851 -239 836 -250 l 856 -239 l 856 -265 q 732 -333 821 -333 q 630 -299 668 -333 q 592 -208 592 -264 q 624 -109 592 -160 q 713 0 657 -58 l 61 0 z "},"Ẹ":{"ha":946,"x_min":61,"x_max":857,"o":"m 61 0 l 61 22 l 179 79 l 179 838 l 61 894 l 61 917 l 818 917 l 818 676 l 796 676 l 693 840 l 389 840 l 389 511 l 603 511 l 681 631 l 703 631 l 703 318 l 681 318 l 603 435 l 389 435 l 389 76 l 726 76 l 835 283 l 857 283 l 857 0 l 61 0 z "},"Ȅ":{"ha":946,"x_min":61,"x_max":857,"o":"m 61 0 l 61 22 l 179 79 l 179 838 l 61 894 l 61 917 l 818 917 l 818 676 l 796 676 l 693 840 l 389 840 l 389 511 l 603 511 l 681 631 l 703 631 l 703 318 l 681 318 l 603 435 l 389 435 l 389 76 l 726 76 l 835 283 l 857 283 l 857 0 l 61 0 m 381 986 l 225 1110 q 201 1153 200 1131 q 208 1197 201 1176 l 322 1197 l 411 986 l 381 986 m 571 986 l 438 1110 q 414 1154 414 1132 q 421 1197 414 1176 l 535 1197 l 601 986 l 571 986 z "},"Ȇ":{"ha":946,"x_min":61,"x_max":857,"o":"m 61 0 l 61 22 l 179 79 l 179 838 l 61 894 l 61 917 l 818 917 l 818 676 l 796 676 l 693 840 l 389 840 l 389 511 l 603 511 l 681 631 l 703 631 l 703 318 l 681 318 l 603 435 l 389 435 l 389 76 l 726 76 l 835 283 l 857 283 l 857 0 l 61 0 m 271 986 q 348 1143 296 1089 q 492 1197 400 1197 q 640 1143 592 1197 q 713 986 689 1089 l 683 986 q 605 1070 651 1051 q 492 1089 558 1089 q 379 1071 425 1089 q 300 986 333 1053 l 271 986 z "},"Ế":{"ha":946,"x_min":61,"x_max":857,"o":"m 61 0 l 61 22 l 179 79 l 179 838 l 61 894 l 61 917 l 818 917 l 818 676 l 796 676 l 693 840 l 389 840 l 389 511 l 603 511 l 681 631 l 703 631 l 703 318 l 681 318 l 603 435 l 389 435 l 389 76 l 726 76 l 835 283 l 857 283 l 857 0 l 61 0 m 650 1118 l 708 1317 l 849 1317 q 799 1229 849 1274 l 679 1118 l 650 1118 m 269 986 l 458 1197 l 525 1197 l 714 986 l 683 986 l 492 1075 l 300 986 l 269 986 z "},"Ệ":{"ha":946,"x_min":61,"x_max":857,"o":"m 61 0 l 61 22 l 179 79 l 179 838 l 61 894 l 61 917 l 818 917 l 818 676 l 796 676 l 693 840 l 389 840 l 389 511 l 603 511 l 681 631 l 703 631 l 703 318 l 681 318 l 603 435 l 389 435 l 389 76 l 726 76 l 835 283 l 857 283 l 857 0 l 61 0 m 269 986 l 458 1197 l 525 1197 l 714 986 l 683 986 l 492 1075 l 300 986 l 269 986 z "},"Ề":{"ha":946,"x_min":61,"x_max":857,"o":"m 61 0 l 61 22 l 179 79 l 179 838 l 61 894 l 61 917 l 818 917 l 818 676 l 796 676 l 693 840 l 389 840 l 389 511 l 603 511 l 681 631 l 703 631 l 703 318 l 681 318 l 603 435 l 389 435 l 389 76 l 726 76 l 835 283 l 857 283 l 857 0 l 61 0 m 304 1118 l 185 1229 q 135 1317 135 1274 l 275 1317 l 333 1118 l 304 1118 m 269 986 l 458 1197 l 525 1197 l 714 986 l 683 986 l 492 1075 l 300 986 l 269 986 z "},"Ể":{"ha":946,"x_min":61,"x_max":857,"o":"m 61 0 l 61 22 l 179 79 l 179 838 l 61 894 l 61 917 l 818 917 l 818 676 l 796 676 l 693 840 l 389 840 l 389 511 l 603 511 l 681 631 l 703 631 l 703 318 l 681 318 l 603 435 l 389 435 l 389 76 l 726 76 l 835 283 l 857 283 l 857 0 l 61 0 z "},"Ễ":{"ha":946,"x_min":61,"x_max":857,"o":"m 61 0 l 61 22 l 179 79 l 179 838 l 61 894 l 61 917 l 818 917 l 818 676 l 796 676 l 693 840 l 389 840 l 389 511 l 603 511 l 681 631 l 703 631 l 703 318 l 681 318 l 603 435 l 389 435 l 389 76 l 726 76 l 835 283 l 857 283 l 857 0 l 61 0 z "},"Ẻ":{"ha":946,"x_min":61,"x_max":857,"o":"m 61 0 l 61 22 l 179 79 l 179 838 l 61 894 l 61 917 l 818 917 l 818 676 l 796 676 l 693 840 l 389 840 l 389 511 l 603 511 l 681 631 l 703 631 l 703 318 l 681 318 l 603 435 l 389 435 l 389 76 l 726 76 l 835 283 l 857 283 l 857 0 l 61 0 m 422 988 l 422 989 q 488 1018 467 1004 q 510 1058 510 1032 q 488 1094 510 1081 q 410 1119 465 1108 l 429 1215 q 561 1173 524 1207 q 599 1103 599 1139 q 558 1017 599 1047 q 436 975 517 986 l 422 988 z "},"Ḕ":{"ha":946,"x_min":61,"x_max":857,"o":"m 61 0 l 61 22 l 179 79 l 179 838 l 61 894 l 61 917 l 818 917 l 818 676 l 796 676 l 693 840 l 389 840 l 389 511 l 603 511 l 681 631 l 703 631 l 703 318 l 681 318 l 603 435 l 389 435 l 389 76 l 726 76 l 835 283 l 857 283 l 857 0 l 61 0 z "},"Ḗ":{"ha":946,"x_min":61,"x_max":857,"o":"m 61 0 l 61 22 l 179 79 l 179 838 l 61 894 l 61 917 l 818 917 l 818 676 l 796 676 l 693 840 l 389 840 l 389 511 l 603 511 l 681 631 l 703 631 l 703 318 l 681 318 l 603 435 l 389 435 l 389 76 l 726 76 l 835 283 l 857 283 l 857 0 l 61 0 z "},"Ḝ":{"ha":946,"x_min":61,"x_max":857,"o":"m 492 986 q 342 1040 392 986 q 269 1197 293 1094 l 300 1197 q 378 1113 332 1132 q 492 1094 425 1094 q 604 1113 558 1094 q 683 1197 650 1131 l 713 1197 q 635 1040 688 1094 q 492 986 583 986 m 61 0 l 61 22 l 179 79 l 179 838 l 61 894 l 61 917 l 818 917 l 818 676 l 796 676 l 693 840 l 389 840 l 389 511 l 603 511 l 681 631 l 703 631 l 703 318 l 681 318 l 603 435 l 389 435 l 389 76 l 726 76 l 835 283 l 857 283 l 857 0 l 526 0 l 500 -60 q 611 -117 579 -83 q 643 -206 643 -151 q 603 -297 643 -261 q 497 -333 564 -333 q 385 -300 426 -333 l 385 -274 l 389 -274 q 468 -290 422 -290 q 544 -236 544 -290 q 517 -186 544 -207 q 408 -143 490 -165 l 474 0 l 61 0 z "},"Ĝ":{"ha":1050,"x_min":69,"x_max":1008,"o":"m 549 -14 q 362 20 449 -14 q 209 115 275 54 q 106 259 143 176 q 69 439 69 342 q 111 635 69 546 q 226 792 153 725 q 394 894 300 858 q 593 931 489 931 q 719 922 667 931 q 812 899 771 914 q 893 864 853 883 l 908 619 l 883 619 l 750 821 q 678 853 713 844 q 599 863 643 863 q 440 813 511 863 q 328 673 369 763 q 286 464 286 583 q 326 249 286 339 q 435 111 367 160 q 589 63 504 63 q 640 65 613 63 q 696 72 668 67 l 696 329 l 572 394 l 572 417 l 1008 417 l 1008 394 l 904 328 l 904 103 q 801 41 861 67 q 674 1 740 15 q 549 -14 608 -14 m 339 986 l 528 1197 l 594 1197 l 783 986 l 753 986 l 561 1075 l 369 986 l 339 986 z "},"Ğ":{"ha":1050,"x_min":69,"x_max":1008,"o":"m 549 -14 q 362 20 449 -14 q 209 115 275 54 q 106 259 143 176 q 69 439 69 342 q 111 635 69 546 q 226 792 153 725 q 394 894 300 858 q 593 931 489 931 q 719 922 667 931 q 812 899 771 914 q 893 864 853 883 l 908 619 l 883 619 l 750 821 q 678 853 713 844 q 599 863 643 863 q 440 813 511 863 q 328 673 369 763 q 286 464 286 583 q 326 249 286 339 q 435 111 367 160 q 589 63 504 63 q 640 65 613 63 q 696 72 668 67 l 696 329 l 572 394 l 572 417 l 1008 417 l 1008 394 l 904 328 l 904 103 q 801 41 861 67 q 674 1 740 15 q 549 -14 608 -14 m 561 986 q 413 1040 461 986 q 340 1197 364 1094 l 369 1197 q 448 1113 401 1132 q 561 1094 494 1094 q 674 1113 628 1094 q 753 1197 719 1131 l 782 1197 q 705 1040 757 1094 q 561 986 653 986 z "},"Ġ":{"ha":1050,"x_min":69,"x_max":1008,"o":"m 549 -14 q 362 20 449 -14 q 209 115 275 54 q 106 259 143 176 q 69 439 69 342 q 111 635 69 546 q 226 792 153 725 q 394 894 300 858 q 593 931 489 931 q 719 922 667 931 q 812 899 771 914 q 893 864 853 883 l 908 619 l 883 619 l 750 821 q 678 853 713 844 q 599 863 643 863 q 440 813 511 863 q 328 673 369 763 q 286 464 286 583 q 326 249 286 339 q 435 111 367 160 q 589 63 504 63 q 640 65 613 63 q 696 72 668 67 l 696 329 l 572 394 l 572 417 l 1008 417 l 1008 394 l 904 328 l 904 103 q 801 41 861 67 q 674 1 740 15 q 549 -14 608 -14 m 561 1001 q 488 1030 517 1001 q 460 1103 460 1058 q 488 1175 460 1146 q 561 1204 517 1204 q 634 1175 606 1204 q 663 1103 663 1146 q 634 1030 663 1058 q 561 1001 606 1001 z "},"Ģ":{"ha":1050,"x_min":69,"x_max":1008,"o":"m 549 -14 q 362 20 449 -14 q 209 115 275 54 q 106 259 143 176 q 69 439 69 342 q 111 635 69 546 q 226 792 153 725 q 394 894 300 858 q 593 931 489 931 q 719 922 667 931 q 812 899 771 914 q 893 864 853 883 l 908 619 l 883 619 l 750 821 q 678 853 713 844 q 599 863 643 863 q 440 813 511 863 q 328 673 369 763 q 286 464 286 583 q 326 249 286 339 q 435 111 367 160 q 589 63 504 63 q 640 65 613 63 q 696 72 668 67 l 696 329 l 572 394 l 572 417 l 1008 417 l 1008 394 l 904 328 l 904 103 q 801 41 861 67 q 674 1 740 15 q 549 -14 608 -14 m 599 986 q 485 1015 524 986 q 447 1097 447 1044 q 491 1183 447 1153 q 603 1213 535 1213 q 628 1212 614 1213 q 653 1208 643 1211 l 653 1182 q 632 1185 643 1183 q 614 1186 621 1186 q 544 1140 544 1186 q 572 1099 544 1110 q 654 1089 599 1089 l 654 1015 q 642 994 654 1003 q 599 986 631 986 z "},"Ǧ":{"ha":1050,"x_min":69,"x_max":1008,"o":"m 549 -14 q 362 20 449 -14 q 209 115 275 54 q 106 259 143 176 q 69 439 69 342 q 111 635 69 546 q 226 792 153 725 q 394 894 300 858 q 593 931 489 931 q 719 922 667 931 q 812 899 771 914 q 893 864 853 883 l 908 619 l 883 619 l 750 821 q 678 853 713 844 q 599 863 643 863 q 440 813 511 863 q 328 673 369 763 q 286 464 286 583 q 326 249 286 339 q 435 111 367 160 q 589 63 504 63 q 640 65 613 63 q 696 72 668 67 l 696 329 l 572 394 l 572 417 l 1008 417 l 1008 394 l 904 328 l 904 103 q 801 41 861 67 q 674 1 740 15 q 549 -14 608 -14 m 528 986 l 339 1197 l 369 1197 l 561 1108 l 753 1197 l 783 1197 l 594 986 l 528 986 z "},"Ḡ":{"ha":1050,"x_min":69,"x_max":1008,"o":"m 549 -14 q 362 20 449 -14 q 209 115 275 54 q 106 259 143 176 q 69 439 69 342 q 111 635 69 546 q 226 792 153 725 q 394 894 300 858 q 593 931 489 931 q 719 922 667 931 q 812 899 771 914 q 893 864 853 883 l 908 619 l 883 619 l 750 821 q 678 853 713 844 q 599 863 643 863 q 440 813 511 863 q 328 673 369 763 q 286 464 286 583 q 326 249 286 339 q 435 111 367 160 q 589 63 504 63 q 640 65 613 63 q 696 72 668 67 l 696 329 l 572 394 l 572 417 l 1008 417 l 1008 394 l 904 328 l 904 103 q 801 41 861 67 q 674 1 740 15 q 549 -14 608 -14 m 360 1051 l 360 1133 l 763 1133 l 763 1051 l 360 1051 z "},"Ĥ":{"ha":1161,"x_min":61,"x_max":1100,"o":"m 61 0 l 61 22 l 179 79 l 179 838 l 61 894 l 61 917 l 497 917 l 497 894 l 389 838 l 389 510 l 774 510 l 774 838 l 663 894 l 663 917 l 1100 917 l 1100 894 l 983 838 l 983 79 l 1100 22 l 1100 0 l 663 0 l 663 22 l 774 79 l 774 433 l 389 433 l 389 79 l 497 22 l 497 0 l 61 0 m 358 986 l 547 1197 l 614 1197 l 803 986 l 772 986 l 581 1075 l 389 986 l 358 986 z "},"Ħ":{"ha":1161,"x_min":61,"x_max":1100,"o":"m 61 0 l 61 22 l 179 79 l 179 651 l 61 651 l 61 725 l 179 725 l 179 838 l 61 894 l 61 917 l 497 917 l 497 894 l 389 838 l 389 725 l 774 725 l 774 838 l 663 894 l 663 917 l 1100 917 l 1100 894 l 983 838 l 983 725 l 1100 725 l 1100 651 l 983 651 l 983 79 l 1100 22 l 1100 0 l 663 0 l 663 22 l 774 79 l 774 433 l 389 433 l 389 79 l 497 22 l 497 0 l 61 0 m 389 510 l 774 510 l 774 651 l 389 651 l 389 510 z "},"Ḥ":{"ha":1161,"x_min":61,"x_max":1100,"o":"m 61 0 l 61 22 l 179 79 l 179 838 l 61 894 l 61 917 l 497 917 l 497 894 l 389 838 l 389 510 l 774 510 l 774 838 l 663 894 l 663 917 l 1100 917 l 1100 894 l 983 838 l 983 79 l 1100 22 l 1100 0 l 663 0 l 663 22 l 774 79 l 774 433 l 389 433 l 389 79 l 497 22 l 497 0 l 61 0 z "},"Ḫ":{"ha":1161,"x_min":61,"x_max":1100,"o":"m 61 0 l 61 22 l 179 79 l 179 838 l 61 894 l 61 917 l 497 917 l 497 894 l 389 838 l 389 510 l 774 510 l 774 838 l 663 894 l 663 917 l 1100 917 l 1100 894 l 983 838 l 983 79 l 1100 22 l 1100 0 l 663 0 l 663 22 l 774 79 l 774 433 l 389 433 l 389 79 l 497 22 l 497 0 l 61 0 z "},"Ì":{"ha":574,"x_min":33,"x_max":510,"o":"m 64 0 l 64 22 l 182 79 l 182 838 l 64 894 l 64 917 l 510 917 l 510 894 l 392 838 l 392 79 l 510 22 l 510 0 l 64 0 m 271 986 l 89 1101 q 44 1147 54 1124 q 33 1197 33 1171 l 186 1197 l 301 986 l 271 986 z "},"Í":{"ha":574,"x_min":64,"x_max":539,"o":"m 64 0 l 64 22 l 182 79 l 182 838 l 64 894 l 64 917 l 510 917 l 510 894 l 392 838 l 392 79 l 510 22 l 510 0 l 64 0 m 271 986 l 386 1197 l 539 1197 q 528 1147 539 1171 q 483 1101 517 1122 l 301 986 l 271 986 z "},"Î":{"ha":574,"x_min":64,"x_max":510,"o":"m 64 0 l 64 22 l 182 79 l 182 838 l 64 894 l 64 917 l 510 917 l 510 894 l 392 838 l 392 79 l 510 22 l 510 0 l 64 0 m 65 986 l 254 1197 l 321 1197 l 510 986 l 479 986 l 288 1075 l 96 986 l 65 986 z "},"Ĩ":{"ha":574,"x_min":58,"x_max":517,"o":"m 64 0 l 64 22 l 182 79 l 182 838 l 64 894 l 64 917 l 510 917 l 510 894 l 392 838 l 392 79 l 510 22 l 510 0 l 64 0 m 58 1003 q 126 1143 93 1108 q 203 1178 160 1178 q 278 1160 243 1178 q 345 1123 314 1142 q 407 1104 376 1104 q 448 1117 429 1104 q 486 1178 467 1131 l 517 1178 q 449 1038 483 1072 q 372 1003 415 1003 q 297 1021 332 1003 q 230 1058 261 1039 q 168 1076 199 1076 q 127 1063 146 1076 q 89 1003 108 1050 l 58 1003 z "},"Ï":{"ha":574,"x_min":64,"x_max":510,"o":"m 64 0 l 64 22 l 182 79 l 182 838 l 64 894 l 64 917 l 510 917 l 510 894 l 392 838 l 392 79 l 510 22 l 510 0 l 64 0 m 150 1010 q 92 1033 115 1010 q 69 1090 69 1057 q 92 1149 69 1125 q 150 1172 115 1172 q 208 1149 185 1172 q 231 1090 231 1125 q 208 1033 231 1057 q 150 1010 185 1010 m 425 1010 q 367 1033 390 1010 q 344 1090 344 1057 q 367 1149 344 1125 q 425 1172 390 1172 q 483 1149 460 1172 q 506 1090 506 1125 q 483 1033 506 1057 q 425 1010 460 1010 z "},"Ī":{"ha":574,"x_min":64,"x_max":510,"o":"m 64 0 l 64 22 l 182 79 l 182 838 l 64 894 l 64 917 l 510 917 l 510 894 l 392 838 l 392 79 l 510 22 l 510 0 l 64 0 m 86 1051 l 86 1133 l 489 1133 l 489 1051 l 86 1051 z "},"Ĭ":{"ha":574,"x_min":64,"x_max":510,"o":"m 64 0 l 64 22 l 182 79 l 182 838 l 64 894 l 64 917 l 510 917 l 510 894 l 392 838 l 392 79 l 510 22 l 510 0 l 64 0 m 288 986 q 139 1040 188 986 q 67 1197 90 1094 l 96 1197 q 174 1113 128 1132 q 288 1094 221 1094 q 400 1113 354 1094 q 479 1197 446 1131 l 508 1197 q 431 1040 483 1094 q 288 986 379 986 z "},"İ":{"ha":574,"x_min":64,"x_max":510,"o":"m 64 0 l 64 22 l 182 79 l 182 838 l 64 894 l 64 917 l 510 917 l 510 894 l 392 838 l 392 79 l 510 22 l 510 0 l 64 0 m 288 1001 q 215 1030 243 1001 q 186 1103 186 1058 q 215 1175 186 1146 q 288 1204 243 1204 q 360 1175 332 1204 q 389 1103 389 1146 q 360 1030 389 1058 q 288 1001 332 1001 z "},"Į":{"ha":574,"x_min":64,"x_max":510,"o":"m 64 0 l 64 22 l 182 79 l 182 838 l 64 894 l 64 917 l 510 917 l 510 894 l 392 838 l 392 79 l 510 22 l 510 0 l 324 0 q 268 -176 268 -96 q 349 -261 268 -261 q 383 -256 365 -261 q 415 -239 400 -250 l 419 -239 l 419 -265 q 294 -333 382 -333 q 194 -299 232 -333 q 156 -208 156 -264 q 188 -109 156 -160 q 276 0 221 -58 l 64 0 z "},"Ị":{"ha":574,"x_min":64,"x_max":510,"o":"m 64 0 l 64 22 l 182 79 l 182 838 l 64 894 l 64 917 l 510 917 l 510 894 l 392 838 l 392 79 l 510 22 l 510 0 l 64 0 z "},"Ȉ":{"ha":574,"x_min":-6,"x_max":510,"o":"m 64 0 l 64 22 l 182 79 l 182 838 l 64 894 l 64 917 l 510 917 l 510 894 l 392 838 l 392 79 l 510 22 l 510 0 l 64 0 m 175 986 l 19 1110 q -5 1153 -6 1131 q 3 1197 -4 1176 l 117 1197 l 206 986 l 175 986 m 365 986 l 232 1110 q 208 1154 208 1132 q 215 1197 208 1176 l 329 1197 l 396 986 l 365 986 z "},"Ȋ":{"ha":574,"x_min":64,"x_max":510,"o":"m 64 0 l 64 22 l 182 79 l 182 838 l 64 894 l 64 917 l 510 917 l 510 894 l 392 838 l 392 79 l 510 22 l 510 0 l 64 0 m 67 986 q 144 1143 92 1089 q 288 1197 196 1197 q 436 1143 388 1197 q 508 986 485 1089 l 479 986 q 401 1070 447 1051 q 288 1089 354 1089 q 175 1071 221 1089 q 96 986 129 1053 l 67 986 z "},"Ỉ":{"ha":574,"x_min":64,"x_max":510,"o":"m 64 0 l 64 22 l 182 79 l 182 838 l 64 894 l 64 917 l 510 917 l 510 894 l 392 838 l 392 79 l 510 22 l 510 0 l 64 0 m 218 988 l 218 989 q 284 1018 263 1004 q 306 1058 306 1032 q 283 1094 306 1081 q 206 1119 261 1108 l 225 1215 q 357 1173 319 1207 q 394 1103 394 1139 q 353 1017 394 1047 q 232 975 313 986 l 218 988 z "},"Ḯ":{"ha":574,"x_min":64,"x_max":539,"o":"m 64 0 l 64 22 l 182 79 l 182 838 l 64 894 l 64 917 l 510 917 l 510 894 l 392 838 l 392 79 l 510 22 l 510 0 l 64 0 z "},"Ĳ":{"ha":1174,"x_min":64,"x_max":1110,"o":"m 64 0 l 64 22 l 182 79 l 182 838 l 64 894 l 64 917 l 510 917 l 510 894 l 392 838 l 392 79 l 510 22 l 510 0 l 64 0 m 654 -240 q 622 -231 635 -240 q 610 -200 610 -222 q 615 -163 610 -187 q 628 -97 619 -139 l 640 -97 q 672 -106 660 -103 q 700 -108 685 -108 q 744 -97 725 -108 q 772 -47 763 -85 q 782 69 782 -8 l 782 838 l 664 894 l 664 917 l 1110 917 l 1110 894 l 992 838 l 992 340 q 966 143 992 233 q 903 -15 940 53 q 829 -124 865 -83 q 740 -210 781 -181 q 654 -240 700 -240 z "},"Ĵ":{"ha":600,"x_min":36,"x_max":536,"o":"m 81 -240 q 49 -231 61 -240 q 36 -200 36 -222 q 41 -163 36 -187 q 54 -97 46 -139 l 67 -97 q 99 -106 86 -103 q 126 -108 111 -108 q 170 -97 151 -108 q 199 -47 189 -85 q 208 69 208 -8 l 208 838 l 90 894 l 90 917 l 536 917 l 536 894 l 418 838 l 418 340 q 392 143 418 233 q 329 -15 367 53 q 256 -124 292 -83 q 167 -210 207 -181 q 81 -240 126 -240 m 90 986 l 279 1197 l 346 1197 l 535 986 l 504 986 l 313 1075 l 121 986 l 90 986 z "},"Ķ":{"ha":1075,"x_min":61,"x_max":1064,"o":"m 61 0 l 61 22 l 179 79 l 179 838 l 61 894 l 61 917 l 507 917 l 507 894 l 389 838 l 389 79 l 507 22 l 507 0 l 61 0 m 389 463 l 769 843 l 667 894 l 667 917 l 994 917 l 994 894 l 903 856 l 581 546 l 967 63 l 1064 22 l 1064 0 l 756 0 l 389 463 m 540 -332 q 515 -331 529 -332 q 489 -326 500 -329 l 489 -301 q 511 -304 500 -303 q 529 -306 522 -306 q 599 -258 599 -306 q 572 -218 599 -229 q 488 -207 544 -207 l 488 -135 q 500 -114 488 -122 q 544 -106 513 -106 q 658 -135 619 -106 q 696 -217 696 -164 q 652 -302 696 -272 q 540 -332 608 -332 z "},"Ĺ":{"ha":901,"x_min":61,"x_max":829,"o":"m 61 0 l 61 22 l 179 79 l 179 838 l 61 894 l 61 917 l 521 917 l 521 894 l 389 838 l 389 76 l 694 76 l 807 339 l 829 339 l 829 0 l 61 0 m 268 986 l 383 1197 l 536 1197 q 525 1147 536 1171 q 481 1101 514 1122 l 299 986 l 268 986 z "},"Ľ":{"ha":901,"x_min":61,"x_max":829,"o":"m 61 0 l 61 22 l 179 79 l 179 838 l 61 894 l 61 917 l 521 917 l 521 894 l 389 838 l 389 76 l 694 76 l 807 339 l 829 339 l 829 0 l 61 0 m 607 657 l 629 917 l 767 917 q 770 876 771 897 q 751 826 769 854 l 638 657 l 607 657 z "},"Ļ":{"ha":901,"x_min":61,"x_max":829,"o":"m 61 0 l 61 22 l 179 79 l 179 838 l 61 894 l 61 917 l 521 917 l 521 894 l 389 838 l 389 76 l 694 76 l 807 339 l 829 339 l 829 0 l 61 0 m 447 -332 q 422 -331 436 -332 q 396 -326 407 -329 l 396 -301 q 418 -304 407 -303 q 436 -306 429 -306 q 506 -258 506 -306 q 478 -218 506 -229 q 394 -207 451 -207 l 394 -135 q 407 -114 394 -122 q 451 -106 419 -106 q 565 -135 526 -106 q 603 -217 603 -164 q 559 -302 603 -272 q 447 -332 515 -332 z "},"Ł":{"ha":901,"x_min":61,"x_max":829,"o":"m 61 0 l 61 22 l 179 79 l 179 303 l 61 219 l 61 310 l 179 394 l 179 838 l 61 894 l 61 917 l 521 917 l 521 894 l 389 838 l 389 513 l 586 647 l 586 557 l 389 421 l 389 76 l 694 76 l 807 339 l 829 339 l 829 0 l 61 0 z "},"Ŀ":{"ha":901,"x_min":61,"x_max":829,"o":"m 61 0 l 61 22 l 179 79 l 179 838 l 61 894 l 61 917 l 521 917 l 521 894 l 389 838 l 389 76 l 694 76 l 807 339 l 829 339 l 829 0 l 61 0 m 722 388 q 649 416 678 388 q 621 489 621 444 q 649 561 621 532 q 722 590 678 590 q 795 561 767 590 q 824 489 824 532 q 795 416 824 444 q 722 388 767 388 z "},"Ḷ":{"ha":901,"x_min":61,"x_max":829,"o":"m 61 0 l 61 22 l 179 79 l 179 838 l 61 894 l 61 917 l 521 917 l 521 894 l 389 838 l 389 76 l 694 76 l 807 339 l 829 339 l 829 0 l 61 0 z "},"Ḻ":{"ha":901,"x_min":61,"x_max":829,"o":"m 61 0 l 61 22 l 179 79 l 179 838 l 61 894 l 61 917 l 521 917 l 521 894 l 389 838 l 389 76 l 694 76 l 807 339 l 829 339 l 829 0 l 61 0 z "},"Ṃ":{"ha":1382,"x_min":58,"x_max":1325,"o":"m 58 0 l 58 22 l 176 79 l 206 838 l 83 894 l 83 917 l 428 917 l 707 271 l 983 917 l 1317 917 l 1317 894 l 1196 851 l 1219 79 l 1325 22 l 1325 0 l 904 0 l 904 22 l 1015 78 l 1001 738 l 685 -7 l 607 -7 l 288 735 l 269 78 l 390 22 l 390 0 l 58 0 z "},"Ń":{"ha":1133,"x_min":58,"x_max":1075,"o":"m 58 0 l 58 22 l 176 79 l 176 836 l 58 894 l 58 917 l 322 917 l 861 308 l 861 839 l 703 894 l 703 917 l 1075 917 l 1075 894 l 958 838 l 958 -7 l 872 -7 l 274 663 l 274 79 l 432 22 l 432 0 l 58 0 m 557 986 l 672 1197 l 825 1197 q 814 1147 825 1171 q 769 1101 803 1122 l 588 986 l 557 986 z "},"Ň":{"ha":1133,"x_min":58,"x_max":1075,"o":"m 58 0 l 58 22 l 176 79 l 176 836 l 58 894 l 58 917 l 322 917 l 861 308 l 861 839 l 703 894 l 703 917 l 1075 917 l 1075 894 l 958 838 l 958 -7 l 872 -7 l 274 663 l 274 79 l 432 22 l 432 0 l 58 0 m 540 986 l 351 1197 l 382 1197 l 574 1108 l 765 1197 l 796 1197 l 607 986 l 540 986 z "},"Ñ":{"ha":1133,"x_min":58,"x_max":1075,"o":"m 58 0 l 58 22 l 176 79 l 176 836 l 58 894 l 58 917 l 322 917 l 861 308 l 861 839 l 703 894 l 703 917 l 1075 917 l 1075 894 l 958 838 l 958 -7 l 872 -7 l 274 663 l 274 79 l 432 22 l 432 0 l 58 0 m 344 1003 q 413 1143 379 1108 q 489 1178 446 1178 q 565 1160 529 1178 q 631 1123 600 1142 q 693 1104 663 1104 q 734 1117 715 1104 q 772 1178 753 1131 l 803 1178 q 735 1038 769 1072 q 658 1003 701 1003 q 583 1021 618 1003 q 516 1058 547 1039 q 454 1076 485 1076 q 413 1063 432 1076 q 375 1003 394 1050 l 344 1003 z "},"Ņ":{"ha":1133,"x_min":58,"x_max":1075,"o":"m 58 0 l 58 22 l 176 79 l 176 836 l 58 894 l 58 917 l 322 917 l 861 308 l 861 839 l 703 894 l 703 917 l 1075 917 l 1075 894 l 958 838 l 958 -7 l 872 -7 l 274 663 l 274 79 l 432 22 l 432 0 l 58 0 m 528 -332 q 502 -331 517 -332 q 476 -326 488 -329 l 476 -301 q 499 -304 488 -303 q 517 -306 510 -306 q 586 -258 586 -306 q 559 -218 586 -229 q 475 -207 532 -207 l 475 -135 q 488 -114 475 -122 q 532 -106 500 -106 q 645 -135 607 -106 q 683 -217 683 -164 q 640 -302 683 -272 q 528 -332 596 -332 z "},"Ṅ":{"ha":1133,"x_min":58,"x_max":1075,"o":"m 58 0 l 58 22 l 176 79 l 176 836 l 58 894 l 58 917 l 322 917 l 861 308 l 861 839 l 703 894 l 703 917 l 1075 917 l 1075 894 l 958 838 l 958 -7 l 872 -7 l 274 663 l 274 79 l 432 22 l 432 0 l 58 0 m 574 1001 q 501 1030 529 1001 q 472 1103 472 1058 q 501 1175 472 1146 q 574 1204 529 1204 q 647 1175 618 1204 q 675 1103 675 1146 q 647 1030 675 1058 q 574 1001 618 1001 z "},"Ṇ":{"ha":1133,"x_min":58,"x_max":1075,"o":"m 58 0 l 58 22 l 176 79 l 176 836 l 58 894 l 58 917 l 322 917 l 861 308 l 861 839 l 703 894 l 703 917 l 1075 917 l 1075 894 l 958 838 l 958 -7 l 872 -7 l 274 663 l 274 79 l 432 22 l 432 0 l 58 0 z "},"Ṉ":{"ha":1133,"x_min":58,"x_max":1075,"o":"m 58 0 l 58 22 l 176 79 l 176 836 l 58 894 l 58 917 l 322 917 l 861 308 l 861 839 l 703 894 l 703 917 l 1075 917 l 1075 894 l 958 838 l 958 -7 l 872 -7 l 274 663 l 274 79 l 432 22 l 432 0 l 58 0 z "},"Ò":{"ha":1096,"x_min":68,"x_max":1028,"o":"m 547 -14 q 357 22 444 -14 q 205 120 269 57 q 104 269 140 183 q 68 458 68 356 q 104 647 68 561 q 205 797 140 733 q 357 895 269 860 q 547 931 444 931 q 739 895 651 931 q 891 797 826 860 q 992 647 956 733 q 1028 458 1028 561 q 992 269 1028 356 q 891 120 956 183 q 739 22 826 57 q 547 -14 651 -14 m 569 58 q 692 103 639 58 q 776 228 746 147 q 806 417 806 308 q 769 650 806 550 q 669 805 732 750 q 529 860 607 860 q 406 816 460 860 q 320 692 351 772 q 289 503 289 611 q 326 269 289 369 q 428 114 364 169 q 569 58 492 58 m 525 986 l 343 1101 q 298 1147 308 1124 q 288 1197 288 1171 l 440 1197 l 556 986 l 525 986 z "},"Ó":{"ha":1096,"x_min":68,"x_max":1028,"o":"m 547 -14 q 357 22 444 -14 q 205 120 269 57 q 104 269 140 183 q 68 458 68 356 q 104 647 68 561 q 205 797 140 733 q 357 895 269 860 q 547 931 444 931 q 739 895 651 931 q 891 797 826 860 q 992 647 956 733 q 1028 458 1028 561 q 992 269 1028 356 q 891 120 956 183 q 739 22 826 57 q 547 -14 651 -14 m 569 58 q 692 103 639 58 q 776 228 746 147 q 806 417 806 308 q 769 650 806 550 q 669 805 732 750 q 529 860 607 860 q 406 816 460 860 q 320 692 351 772 q 289 503 289 611 q 326 269 289 369 q 428 114 364 169 q 569 58 492 58 m 525 986 l 640 1197 l 793 1197 q 782 1147 793 1171 q 738 1101 771 1122 l 556 986 l 525 986 z "},"Ô":{"ha":1096,"x_min":68,"x_max":1028,"o":"m 547 -14 q 357 22 444 -14 q 205 120 269 57 q 104 269 140 183 q 68 458 68 356 q 104 647 68 561 q 205 797 140 733 q 357 895 269 860 q 547 931 444 931 q 739 895 651 931 q 891 797 826 860 q 992 647 956 733 q 1028 458 1028 561 q 992 269 1028 356 q 891 120 956 183 q 739 22 826 57 q 547 -14 651 -14 m 569 58 q 692 103 639 58 q 776 228 746 147 q 806 417 806 308 q 769 650 806 550 q 669 805 732 750 q 529 860 607 860 q 406 816 460 860 q 320 692 351 772 q 289 503 289 611 q 326 269 289 369 q 428 114 364 169 q 569 58 492 58 m 319 986 l 508 1197 l 575 1197 l 764 986 l 733 986 l 542 1075 l 350 986 l 319 986 z "},"Õ":{"ha":1096,"x_min":68,"x_max":1028,"o":"m 547 -14 q 357 22 444 -14 q 205 120 269 57 q 104 269 140 183 q 68 458 68 356 q 104 647 68 561 q 205 797 140 733 q 357 895 269 860 q 547 931 444 931 q 739 895 651 931 q 891 797 826 860 q 992 647 956 733 q 1028 458 1028 561 q 992 269 1028 356 q 891 120 956 183 q 739 22 826 57 q 547 -14 651 -14 m 569 58 q 692 103 639 58 q 776 228 746 147 q 806 417 806 308 q 769 650 806 550 q 669 805 732 750 q 529 860 607 860 q 406 816 460 860 q 320 692 351 772 q 289 503 289 611 q 326 269 289 369 q 428 114 364 169 q 569 58 492 58 m 313 1003 q 381 1143 347 1108 q 457 1178 414 1178 q 533 1160 497 1178 q 599 1123 568 1142 q 661 1104 631 1104 q 702 1117 683 1104 q 740 1178 721 1131 l 771 1178 q 703 1038 738 1072 q 626 1003 669 1003 q 551 1021 586 1003 q 484 1058 515 1039 q 422 1076 453 1076 q 381 1063 400 1076 q 343 1003 363 1050 l 313 1003 z "},"Ö":{"ha":1096,"x_min":68,"x_max":1028,"o":"m 547 -14 q 357 22 444 -14 q 205 120 269 57 q 104 269 140 183 q 68 458 68 356 q 104 647 68 561 q 205 797 140 733 q 357 895 269 860 q 547 931 444 931 q 739 895 651 931 q 891 797 826 860 q 992 647 956 733 q 1028 458 1028 561 q 992 269 1028 356 q 891 120 956 183 q 739 22 826 57 q 547 -14 651 -14 m 569 58 q 692 103 639 58 q 776 228 746 147 q 806 417 806 308 q 769 650 806 550 q 669 805 732 750 q 529 860 607 860 q 406 816 460 860 q 320 692 351 772 q 289 503 289 611 q 326 269 289 369 q 428 114 364 169 q 569 58 492 58 m 404 1010 q 347 1033 369 1010 q 324 1090 324 1057 q 347 1149 324 1125 q 404 1172 369 1172 q 462 1149 439 1172 q 485 1090 485 1125 q 462 1033 485 1057 q 404 1010 439 1010 m 679 1010 q 622 1033 644 1010 q 599 1090 599 1057 q 622 1149 599 1125 q 679 1172 644 1172 q 737 1149 714 1172 q 760 1090 760 1125 q 737 1033 760 1057 q 679 1010 714 1010 z "},"Ō":{"ha":1096,"x_min":68,"x_max":1028,"o":"m 547 -14 q 357 22 444 -14 q 205 120 269 57 q 104 269 140 183 q 68 458 68 356 q 104 647 68 561 q 205 797 140 733 q 357 895 269 860 q 547 931 444 931 q 739 895 651 931 q 891 797 826 860 q 992 647 956 733 q 1028 458 1028 561 q 992 269 1028 356 q 891 120 956 183 q 739 22 826 57 q 547 -14 651 -14 m 569 58 q 692 103 639 58 q 776 228 746 147 q 806 417 806 308 q 769 650 806 550 q 669 805 732 750 q 529 860 607 860 q 406 816 460 860 q 320 692 351 772 q 289 503 289 611 q 326 269 289 369 q 428 114 364 169 q 569 58 492 58 m 340 1051 l 340 1133 l 743 1133 l 743 1051 l 340 1051 z "},"Ŏ":{"ha":1096,"x_min":68,"x_max":1028,"o":"m 547 -14 q 357 22 444 -14 q 205 120 269 57 q 104 269 140 183 q 68 458 68 356 q 104 647 68 561 q 205 797 140 733 q 357 895 269 860 q 547 931 444 931 q 739 895 651 931 q 891 797 826 860 q 992 647 956 733 q 1028 458 1028 561 q 992 269 1028 356 q 891 120 956 183 q 739 22 826 57 q 547 -14 651 -14 m 569 58 q 692 103 639 58 q 776 228 746 147 q 806 417 806 308 q 769 650 806 550 q 669 805 732 750 q 529 860 607 860 q 406 816 460 860 q 320 692 351 772 q 289 503 289 611 q 326 269 289 369 q 428 114 364 169 q 569 58 492 58 m 542 986 q 393 1040 442 986 q 321 1197 344 1094 l 350 1197 q 428 1113 382 1132 q 542 1094 475 1094 q 654 1113 608 1094 q 733 1197 700 1131 l 763 1197 q 685 1040 738 1094 q 542 986 633 986 z "},"Ő":{"ha":1096,"x_min":68,"x_max":1028,"o":"m 547 -14 q 357 22 444 -14 q 205 120 269 57 q 104 269 140 183 q 68 458 68 356 q 104 647 68 561 q 205 797 140 733 q 357 895 269 860 q 547 931 444 931 q 739 895 651 931 q 891 797 826 860 q 992 647 956 733 q 1028 458 1028 561 q 992 269 1028 356 q 891 120 956 183 q 739 22 826 57 q 547 -14 651 -14 m 569 58 q 692 103 639 58 q 776 228 746 147 q 806 417 806 308 q 769 650 806 550 q 669 805 732 750 q 529 860 607 860 q 406 816 460 860 q 320 692 351 772 q 289 503 289 611 q 326 269 289 369 q 428 114 364 169 q 569 58 492 58 m 431 986 l 490 1197 l 604 1197 q 611 1154 611 1176 q 588 1110 611 1132 l 460 986 l 431 986 m 621 986 l 703 1197 l 817 1197 q 825 1153 824 1176 q 800 1110 826 1131 l 651 986 l 621 986 z "},"Ọ":{"ha":1096,"x_min":68,"x_max":1028,"o":"m 547 -14 q 357 22 444 -14 q 205 120 269 57 q 104 269 140 183 q 68 458 68 356 q 104 647 68 561 q 205 797 140 733 q 357 895 269 860 q 547 931 444 931 q 739 895 651 931 q 891 797 826 860 q 992 647 956 733 q 1028 458 1028 561 q 992 269 1028 356 q 891 120 956 183 q 739 22 826 57 q 547 -14 651 -14 m 569 58 q 692 103 639 58 q 776 228 746 147 q 806 417 806 308 q 769 650 806 550 q 669 805 732 750 q 529 860 607 860 q 406 816 460 860 q 320 692 351 772 q 289 503 289 611 q 326 269 289 369 q 428 114 364 169 q 569 58 492 58 z "},"Ǫ":{"ha":1096,"x_min":68,"x_max":1028,"o":"m 568 -333 q 467 -299 504 -333 q 429 -208 429 -264 q 458 -115 429 -162 q 535 -14 486 -67 q 295 51 401 -11 q 128 218 189 113 q 68 458 68 324 q 104 647 68 561 q 205 797 140 733 q 357 895 269 860 q 547 931 444 931 q 739 895 651 931 q 891 797 826 860 q 992 647 956 733 q 1028 458 1028 561 q 972 226 1028 329 q 816 60 915 124 q 590 -12 717 -3 q 542 -176 542 -101 q 622 -261 542 -261 q 655 -256 638 -261 q 688 -239 672 -250 l 693 -239 l 693 -265 q 568 -333 656 -333 m 569 58 q 692 103 639 58 q 776 228 746 147 q 806 417 806 308 q 769 650 806 550 q 669 805 732 750 q 529 860 607 860 q 406 816 460 860 q 320 692 351 772 q 289 503 289 611 q 326 269 289 369 q 428 114 364 169 q 569 58 492 58 z "},"Ȍ":{"ha":1096,"x_min":68,"x_max":1028,"o":"m 547 -14 q 357 22 444 -14 q 205 120 269 57 q 104 269 140 183 q 68 458 68 356 q 104 647 68 561 q 205 797 140 733 q 357 895 269 860 q 547 931 444 931 q 739 895 651 931 q 891 797 826 860 q 992 647 956 733 q 1028 458 1028 561 q 992 269 1028 356 q 891 120 956 183 q 739 22 826 57 q 547 -14 651 -14 m 569 58 q 692 103 639 58 q 776 228 746 147 q 806 417 806 308 q 769 650 806 550 q 669 805 732 750 q 529 860 607 860 q 406 816 460 860 q 320 692 351 772 q 289 503 289 611 q 326 269 289 369 q 428 114 364 169 q 569 58 492 58 m 431 986 l 275 1110 q 251 1153 250 1131 q 258 1197 251 1176 l 372 1197 l 461 986 l 431 986 m 621 986 l 488 1110 q 464 1154 464 1132 q 471 1197 464 1176 l 585 1197 l 651 986 l 621 986 z "},"Ȏ":{"ha":1096,"x_min":68,"x_max":1028,"o":"m 547 -14 q 357 22 444 -14 q 205 120 269 57 q 104 269 140 183 q 68 458 68 356 q 104 647 68 561 q 205 797 140 733 q 357 895 269 860 q 547 931 444 931 q 739 895 651 931 q 891 797 826 860 q 992 647 956 733 q 1028 458 1028 561 q 992 269 1028 356 q 891 120 956 183 q 739 22 826 57 q 547 -14 651 -14 m 569 58 q 692 103 639 58 q 776 228 746 147 q 806 417 806 308 q 769 650 806 550 q 669 805 732 750 q 529 860 607 860 q 406 816 460 860 q 320 692 351 772 q 289 503 289 611 q 326 269 289 369 q 428 114 364 169 q 569 58 492 58 m 321 986 q 398 1143 346 1089 q 542 1197 450 1197 q 690 1143 642 1197 q 763 986 739 1089 l 733 986 q 655 1070 701 1051 q 542 1089 608 1089 q 429 1071 475 1089 q 350 986 383 1053 l 321 986 z "},"Ȫ":{"ha":1096,"x_min":68,"x_max":1028,"o":"m 547 -14 q 357 22 444 -14 q 205 120 269 57 q 104 269 140 183 q 68 458 68 356 q 104 647 68 561 q 205 797 140 733 q 357 895 269 860 q 547 931 444 931 q 739 895 651 931 q 891 797 826 860 q 992 647 956 733 q 1028 458 1028 561 q 992 269 1028 356 q 891 120 956 183 q 739 22 826 57 q 547 -14 651 -14 m 569 58 q 692 103 639 58 q 776 228 746 147 q 806 417 806 308 q 769 650 806 550 q 669 805 732 750 q 529 860 607 860 q 406 816 460 860 q 320 692 351 772 q 289 503 289 611 q 326 269 289 369 q 428 114 364 169 q 569 58 492 58 z "},"Ȭ":{"ha":1096,"x_min":68,"x_max":1028,"o":"m 547 -14 q 357 22 444 -14 q 205 120 269 57 q 104 269 140 183 q 68 458 68 356 q 104 647 68 561 q 205 797 140 733 q 357 895 269 860 q 547 931 444 931 q 739 895 651 931 q 891 797 826 860 q 992 647 956 733 q 1028 458 1028 561 q 992 269 1028 356 q 891 120 956 183 q 739 22 826 57 q 547 -14 651 -14 m 569 58 q 692 103 639 58 q 776 228 746 147 q 806 417 806 308 q 769 650 806 550 q 669 805 732 750 q 529 860 607 860 q 406 816 460 860 q 320 692 351 772 q 289 503 289 611 q 326 269 289 369 q 428 114 364 169 q 569 58 492 58 z "},"Ȱ":{"ha":1096,"x_min":68,"x_max":1028,"o":"m 547 -14 q 357 22 444 -14 q 205 120 269 57 q 104 269 140 183 q 68 458 68 356 q 104 647 68 561 q 205 797 140 733 q 357 895 269 860 q 547 931 444 931 q 739 895 651 931 q 891 797 826 860 q 992 647 956 733 q 1028 458 1028 561 q 992 269 1028 356 q 891 120 956 183 q 739 22 826 57 q 547 -14 651 -14 m 569 58 q 692 103 639 58 q 776 228 746 147 q 806 417 806 308 q 769 650 806 550 q 669 805 732 750 q 529 860 607 860 q 406 816 460 860 q 320 692 351 772 q 289 503 289 611 q 326 269 289 369 q 428 114 364 169 q 569 58 492 58 z "},"Ố":{"ha":1096,"x_min":68,"x_max":1028,"o":"m 547 -14 q 357 22 444 -14 q 205 120 269 57 q 104 269 140 183 q 68 458 68 356 q 104 647 68 561 q 205 797 140 733 q 357 895 269 860 q 547 931 444 931 q 739 895 651 931 q 891 797 826 860 q 992 647 956 733 q 1028 458 1028 561 q 992 269 1028 356 q 891 120 956 183 q 739 22 826 57 q 547 -14 651 -14 m 569 58 q 692 103 639 58 q 776 228 746 147 q 806 417 806 308 q 769 650 806 550 q 669 805 732 750 q 529 860 607 860 q 406 816 460 860 q 320 692 351 772 q 289 503 289 611 q 326 269 289 369 q 428 114 364 169 q 569 58 492 58 m 700 1118 l 758 1317 l 899 1317 q 849 1229 899 1274 l 729 1118 l 700 1118 m 319 986 l 508 1197 l 575 1197 l 764 986 l 733 986 l 542 1075 l 350 986 l 319 986 z "},"Ộ":{"ha":1096,"x_min":68,"x_max":1028,"o":"m 547 -14 q 357 22 444 -14 q 205 120 269 57 q 104 269 140 183 q 68 458 68 356 q 104 647 68 561 q 205 797 140 733 q 357 895 269 860 q 547 931 444 931 q 739 895 651 931 q 891 797 826 860 q 992 647 956 733 q 1028 458 1028 561 q 992 269 1028 356 q 891 120 956 183 q 739 22 826 57 q 547 -14 651 -14 m 569 58 q 692 103 639 58 q 776 228 746 147 q 806 417 806 308 q 769 650 806 550 q 669 805 732 750 q 529 860 607 860 q 406 816 460 860 q 320 692 351 772 q 289 503 289 611 q 326 269 289 369 q 428 114 364 169 q 569 58 492 58 m 319 986 l 508 1197 l 575 1197 l 764 986 l 733 986 l 542 1075 l 350 986 l 319 986 z "},"Ồ":{"ha":1096,"x_min":68,"x_max":1028,"o":"m 547 -14 q 357 22 444 -14 q 205 120 269 57 q 104 269 140 183 q 68 458 68 356 q 104 647 68 561 q 205 797 140 733 q 357 895 269 860 q 547 931 444 931 q 739 895 651 931 q 891 797 826 860 q 992 647 956 733 q 1028 458 1028 561 q 992 269 1028 356 q 891 120 956 183 q 739 22 826 57 q 547 -14 651 -14 m 569 58 q 692 103 639 58 q 776 228 746 147 q 806 417 806 308 q 769 650 806 550 q 669 805 732 750 q 529 860 607 860 q 406 816 460 860 q 320 692 351 772 q 289 503 289 611 q 326 269 289 369 q 428 114 364 169 q 569 58 492 58 m 354 1118 l 235 1229 q 185 1317 185 1274 l 325 1317 l 383 1118 l 354 1118 m 319 986 l 508 1197 l 575 1197 l 764 986 l 733 986 l 542 1075 l 350 986 l 319 986 z "},"Ổ":{"ha":1096,"x_min":68,"x_max":1028,"o":"m 547 -14 q 357 22 444 -14 q 205 120 269 57 q 104 269 140 183 q 68 458 68 356 q 104 647 68 561 q 205 797 140 733 q 357 895 269 860 q 547 931 444 931 q 739 895 651 931 q 891 797 826 860 q 992 647 956 733 q 1028 458 1028 561 q 992 269 1028 356 q 891 120 956 183 q 739 22 826 57 q 547 -14 651 -14 m 569 58 q 692 103 639 58 q 776 228 746 147 q 806 417 806 308 q 769 650 806 550 q 669 805 732 750 q 529 860 607 860 q 406 816 460 860 q 320 692 351 772 q 289 503 289 611 q 326 269 289 369 q 428 114 364 169 q 569 58 492 58 z "},"Ỗ":{"ha":1096,"x_min":68,"x_max":1028,"o":"m 547 -14 q 357 22 444 -14 q 205 120 269 57 q 104 269 140 183 q 68 458 68 356 q 104 647 68 561 q 205 797 140 733 q 357 895 269 860 q 547 931 444 931 q 739 895 651 931 q 891 797 826 860 q 992 647 956 733 q 1028 458 1028 561 q 992 269 1028 356 q 891 120 956 183 q 739 22 826 57 q 547 -14 651 -14 m 569 58 q 692 103 639 58 q 776 228 746 147 q 806 417 806 308 q 769 650 806 550 q 669 805 732 750 q 529 860 607 860 q 406 816 460 860 q 320 692 351 772 q 289 503 289 611 q 326 269 289 369 q 428 114 364 169 q 569 58 492 58 z "},"Ỏ":{"ha":1096,"x_min":68,"x_max":1028,"o":"m 547 -14 q 357 22 444 -14 q 205 120 269 57 q 104 269 140 183 q 68 458 68 356 q 104 647 68 561 q 205 797 140 733 q 357 895 269 860 q 547 931 444 931 q 739 895 651 931 q 891 797 826 860 q 992 647 956 733 q 1028 458 1028 561 q 992 269 1028 356 q 891 120 956 183 q 739 22 826 57 q 547 -14 651 -14 m 569 58 q 692 103 639 58 q 776 228 746 147 q 806 417 806 308 q 769 650 806 550 q 669 805 732 750 q 529 860 607 860 q 406 816 460 860 q 320 692 351 772 q 289 503 289 611 q 326 269 289 369 q 428 114 364 169 q 569 58 492 58 m 472 988 l 472 989 q 538 1018 517 1004 q 560 1058 560 1032 q 538 1094 560 1081 q 460 1119 515 1108 l 479 1215 q 611 1173 574 1207 q 649 1103 649 1139 q 608 1017 649 1047 q 486 975 567 986 l 472 988 z "},"Ṍ":{"ha":1096,"x_min":68,"x_max":1028,"o":"m 547 -14 q 357 22 444 -14 q 205 120 269 57 q 104 269 140 183 q 68 458 68 356 q 104 647 68 561 q 205 797 140 733 q 357 895 269 860 q 547 931 444 931 q 739 895 651 931 q 891 797 826 860 q 992 647 956 733 q 1028 458 1028 561 q 992 269 1028 356 q 891 120 956 183 q 739 22 826 57 q 547 -14 651 -14 m 569 58 q 692 103 639 58 q 776 228 746 147 q 806 417 806 308 q 769 650 806 550 q 669 805 732 750 q 529 860 607 860 q 406 816 460 860 q 320 692 351 772 q 289 503 289 611 q 326 269 289 369 q 428 114 364 169 q 569 58 492 58 z "},"Ṏ":{"ha":1096,"x_min":68,"x_max":1028,"o":"m 547 -14 q 357 22 444 -14 q 205 120 269 57 q 104 269 140 183 q 68 458 68 356 q 104 647 68 561 q 205 797 140 733 q 357 895 269 860 q 547 931 444 931 q 739 895 651 931 q 891 797 826 860 q 992 647 956 733 q 1028 458 1028 561 q 992 269 1028 356 q 891 120 956 183 q 739 22 826 57 q 547 -14 651 -14 m 569 58 q 692 103 639 58 q 776 228 746 147 q 806 417 806 308 q 769 650 806 550 q 669 805 732 750 q 529 860 607 860 q 406 816 460 860 q 320 692 351 772 q 289 503 289 611 q 326 269 289 369 q 428 114 364 169 q 569 58 492 58 z "},"Ṑ":{"ha":1096,"x_min":68,"x_max":1028,"o":"m 547 -14 q 357 22 444 -14 q 205 120 269 57 q 104 269 140 183 q 68 458 68 356 q 104 647 68 561 q 205 797 140 733 q 357 895 269 860 q 547 931 444 931 q 739 895 651 931 q 891 797 826 860 q 992 647 956 733 q 1028 458 1028 561 q 992 269 1028 356 q 891 120 956 183 q 739 22 826 57 q 547 -14 651 -14 m 569 58 q 692 103 639 58 q 776 228 746 147 q 806 417 806 308 q 769 650 806 550 q 669 805 732 750 q 529 860 607 860 q 406 816 460 860 q 320 692 351 772 q 289 503 289 611 q 326 269 289 369 q 428 114 364 169 q 569 58 492 58 z "},"Ṓ":{"ha":1096,"x_min":68,"x_max":1028,"o":"m 547 -14 q 357 22 444 -14 q 205 120 269 57 q 104 269 140 183 q 68 458 68 356 q 104 647 68 561 q 205 797 140 733 q 357 895 269 860 q 547 931 444 931 q 739 895 651 931 q 891 797 826 860 q 992 647 956 733 q 1028 458 1028 561 q 992 269 1028 356 q 891 120 956 183 q 739 22 826 57 q 547 -14 651 -14 m 569 58 q 692 103 639 58 q 776 228 746 147 q 806 417 806 308 q 769 650 806 550 q 669 805 732 750 q 529 860 607 860 q 406 816 460 860 q 320 692 351 772 q 289 503 289 611 q 326 269 289 369 q 428 114 364 169 q 569 58 492 58 z "},"Ø":{"ha":1096,"x_min":68,"x_max":1028,"o":"m 68 -14 l 197 128 q 102 275 136 190 q 68 458 68 360 q 104 647 68 561 q 205 797 140 733 q 357 895 269 860 q 547 931 444 931 q 706 907 632 931 q 840 840 781 883 l 922 931 l 1028 931 l 899 789 q 994 642 960 726 q 1028 458 1028 557 q 992 269 1028 356 q 891 120 956 183 q 739 22 826 57 q 547 -14 651 -14 q 389 10 463 -14 q 256 78 315 33 l 172 -14 l 68 -14 m 289 503 q 299 378 289 436 q 326 271 308 321 l 735 724 q 644 824 697 789 q 529 860 592 860 q 406 816 460 860 q 320 692 351 772 q 289 503 289 611 m 569 58 q 692 103 639 58 q 776 228 746 147 q 806 417 806 308 q 797 540 806 482 q 769 646 788 597 l 361 194 q 453 94 400 131 q 569 58 507 58 z "},"Ǿ":{"ha":1096,"x_min":68,"x_max":1028,"o":"m 68 -14 l 197 128 q 102 275 136 190 q 68 458 68 360 q 104 647 68 561 q 205 797 140 733 q 357 895 269 860 q 547 931 444 931 q 706 907 632 931 q 840 840 781 883 l 922 931 l 1028 931 l 899 789 q 994 642 960 726 q 1028 458 1028 557 q 992 269 1028 356 q 891 120 956 183 q 739 22 826 57 q 547 -14 651 -14 q 389 10 463 -14 q 256 78 315 33 l 172 -14 l 68 -14 m 289 503 q 299 378 289 436 q 326 271 308 321 l 735 724 q 644 824 697 789 q 529 860 592 860 q 406 816 460 860 q 320 692 351 772 q 289 503 289 611 m 569 58 q 692 103 639 58 q 776 228 746 147 q 806 417 806 308 q 797 540 806 482 q 769 646 788 597 l 361 194 q 453 94 400 131 q 569 58 507 58 m 525 986 l 640 1197 l 793 1197 q 782 1147 793 1171 q 738 1101 771 1122 l 556 986 l 525 986 z "},"Ơ":{"ha":1096,"x_min":68,"x_max":1028,"o":"m 547 -14 q 357 22 444 -14 q 205 120 269 57 q 104 269 140 183 q 68 458 68 356 q 104 647 68 561 q 205 797 140 733 q 357 895 269 860 q 547 931 444 931 q 671 917 611 931 l 671 917 l 672 917 q 738 896 706 908 q 761 892 750 893 q 782 892 772 892 q 855 913 833 892 q 876 971 876 935 l 876 1038 l 885 1046 l 967 1046 q 997 1038 989 1046 q 1004 1003 1004 1031 q 956 892 1004 931 q 825 854 907 854 q 818 854 821 854 q 972 690 915 793 q 1028 458 1028 586 q 992 269 1028 356 q 891 120 956 183 q 739 22 826 57 q 547 -14 651 -14 m 569 58 q 692 103 639 58 q 776 228 746 147 q 806 417 806 308 q 769 650 806 550 q 669 805 732 750 q 529 860 607 860 q 406 816 460 860 q 320 692 351 772 q 289 503 289 611 q 326 269 289 369 q 428 114 364 169 q 569 58 492 58 z "},"Ớ":{"ha":1096,"x_min":68,"x_max":1028,"o":"m 547 -14 q 357 22 444 -14 q 205 120 269 57 q 104 269 140 183 q 68 458 68 356 q 104 647 68 561 q 205 797 140 733 q 357 895 269 860 q 547 931 444 931 q 671 917 611 931 l 671 917 l 672 917 q 738 896 706 908 q 761 892 750 893 q 782 892 772 892 q 855 913 833 892 q 876 971 876 935 l 876 1038 l 885 1046 l 967 1046 q 997 1038 989 1046 q 1004 1003 1004 1031 q 956 892 1004 931 q 825 854 907 854 q 818 854 821 854 q 972 690 915 793 q 1028 458 1028 586 q 992 269 1028 356 q 891 120 956 183 q 739 22 826 57 q 547 -14 651 -14 m 569 58 q 692 103 639 58 q 776 228 746 147 q 806 417 806 308 q 769 650 806 550 q 669 805 732 750 q 529 860 607 860 q 406 816 460 860 q 320 692 351 772 q 289 503 289 611 q 326 269 289 369 q 428 114 364 169 q 569 58 492 58 m 525 986 l 640 1197 l 793 1197 q 782 1147 793 1171 q 738 1101 771 1122 l 556 986 l 525 986 z "},"Ợ":{"ha":1096,"x_min":68,"x_max":1028,"o":"m 547 -14 q 357 22 444 -14 q 205 120 269 57 q 104 269 140 183 q 68 458 68 356 q 104 647 68 561 q 205 797 140 733 q 357 895 269 860 q 547 931 444 931 q 671 917 611 931 l 671 917 l 672 917 q 738 896 706 908 q 761 892 750 893 q 782 892 772 892 q 855 913 833 892 q 876 971 876 935 l 876 1038 l 885 1046 l 967 1046 q 997 1038 989 1046 q 1004 1003 1004 1031 q 956 892 1004 931 q 825 854 907 854 q 818 854 821 854 q 972 690 915 793 q 1028 458 1028 586 q 992 269 1028 356 q 891 120 956 183 q 739 22 826 57 q 547 -14 651 -14 m 569 58 q 692 103 639 58 q 776 228 746 147 q 806 417 806 308 q 769 650 806 550 q 669 805 732 750 q 529 860 607 860 q 406 816 460 860 q 320 692 351 772 q 289 503 289 611 q 326 269 289 369 q 428 114 364 169 q 569 58 492 58 z "},"Ờ":{"ha":1096,"x_min":68,"x_max":1028,"o":"m 547 -14 q 357 22 444 -14 q 205 120 269 57 q 104 269 140 183 q 68 458 68 356 q 104 647 68 561 q 205 797 140 733 q 357 895 269 860 q 547 931 444 931 q 671 917 611 931 l 671 917 l 672 917 q 738 896 706 908 q 761 892 750 893 q 782 892 772 892 q 855 913 833 892 q 876 971 876 935 l 876 1038 l 885 1046 l 967 1046 q 997 1038 989 1046 q 1004 1003 1004 1031 q 956 892 1004 931 q 825 854 907 854 q 818 854 821 854 q 972 690 915 793 q 1028 458 1028 586 q 992 269 1028 356 q 891 120 956 183 q 739 22 826 57 q 547 -14 651 -14 m 569 58 q 692 103 639 58 q 776 228 746 147 q 806 417 806 308 q 769 650 806 550 q 669 805 732 750 q 529 860 607 860 q 406 816 460 860 q 320 692 351 772 q 289 503 289 611 q 326 269 289 369 q 428 114 364 169 q 569 58 492 58 m 525 986 l 343 1101 q 298 1147 308 1124 q 288 1197 288 1171 l 440 1197 l 556 986 l 525 986 z "},"Ở":{"ha":1096,"x_min":68,"x_max":1028,"o":"m 547 -14 q 357 22 444 -14 q 205 120 269 57 q 104 269 140 183 q 68 458 68 356 q 104 647 68 561 q 205 797 140 733 q 357 895 269 860 q 547 931 444 931 q 671 917 611 931 l 671 917 l 672 917 q 738 896 706 908 q 761 892 750 893 q 782 892 772 892 q 855 913 833 892 q 876 971 876 935 l 876 1038 l 885 1046 l 967 1046 q 997 1038 989 1046 q 1004 1003 1004 1031 q 956 892 1004 931 q 825 854 907 854 q 818 854 821 854 q 972 690 915 793 q 1028 458 1028 586 q 992 269 1028 356 q 891 120 956 183 q 739 22 826 57 q 547 -14 651 -14 m 569 58 q 692 103 639 58 q 776 228 746 147 q 806 417 806 308 q 769 650 806 550 q 669 805 732 750 q 529 860 607 860 q 406 816 460 860 q 320 692 351 772 q 289 503 289 611 q 326 269 289 369 q 428 114 364 169 q 569 58 492 58 m 472 988 l 472 989 q 538 1018 517 1004 q 560 1058 560 1032 q 538 1094 560 1081 q 460 1119 515 1108 l 479 1215 q 611 1173 574 1207 q 649 1103 649 1139 q 608 1017 649 1047 q 486 975 567 986 l 472 988 z "},"Ỡ":{"ha":1096,"x_min":68,"x_max":1028,"o":"m 547 -14 q 357 22 444 -14 q 205 120 269 57 q 104 269 140 183 q 68 458 68 356 q 104 647 68 561 q 205 797 140 733 q 357 895 269 860 q 547 931 444 931 q 671 917 611 931 l 671 917 l 672 917 q 738 896 706 908 q 761 892 750 893 q 782 892 772 892 q 855 913 833 892 q 876 971 876 935 l 876 1038 l 885 1046 l 967 1046 q 997 1038 989 1046 q 1004 1003 1004 1031 q 956 892 1004 931 q 825 854 907 854 q 818 854 821 854 q 972 690 915 793 q 1028 458 1028 586 q 992 269 1028 356 q 891 120 956 183 q 739 22 826 57 q 547 -14 651 -14 m 569 58 q 692 103 639 58 q 776 228 746 147 q 806 417 806 308 q 769 650 806 550 q 669 805 732 750 q 529 860 607 860 q 406 816 460 860 q 320 692 351 772 q 289 503 289 611 q 326 269 289 369 q 428 114 364 169 q 569 58 492 58 m 313 1003 q 381 1143 347 1108 q 457 1178 414 1178 q 533 1160 497 1178 q 599 1123 568 1142 q 661 1104 631 1104 q 702 1117 683 1104 q 740 1178 721 1131 l 771 1178 q 703 1038 738 1072 q 626 1003 669 1003 q 551 1021 586 1003 q 484 1058 515 1039 q 422 1076 453 1076 q 381 1063 400 1076 q 343 1003 363 1050 l 313 1003 z "},"Œ":{"ha":1446,"x_min":68,"x_max":1374,"o":"m 585 0 q 306 54 421 0 q 129 208 190 108 q 68 443 68 307 q 136 693 68 586 q 323 858 204 800 q 594 917 442 917 l 1335 917 l 1335 676 l 1313 676 l 1210 840 l 906 840 l 906 511 l 1119 511 l 1197 631 l 1219 631 l 1219 318 l 1197 318 l 1119 435 l 906 435 l 906 76 l 1243 76 l 1351 283 l 1374 283 l 1374 0 l 585 0 m 631 76 l 696 76 l 696 840 l 615 840 q 371 740 457 840 q 285 468 285 639 q 372 183 285 289 q 631 76 460 76 z "},"Ŕ":{"ha":1010,"x_min":61,"x_max":1021,"o":"m 61 0 l 61 22 l 179 79 l 179 838 l 61 894 l 61 917 l 536 917 q 766 856 682 917 q 850 690 850 796 q 799 559 850 614 q 664 472 747 504 l 921 78 l 1021 22 l 1021 0 l 719 0 l 463 425 l 389 425 l 389 81 l 493 22 l 493 0 l 61 0 m 444 840 l 389 840 l 389 493 l 453 493 q 589 542 539 493 q 639 668 639 590 q 590 795 639 750 q 444 840 540 840 m 458 986 l 574 1197 l 726 1197 q 715 1147 726 1171 q 671 1101 704 1122 l 489 986 l 458 986 z "},"Ř":{"ha":1010,"x_min":61,"x_max":1021,"o":"m 61 0 l 61 22 l 179 79 l 179 838 l 61 894 l 61 917 l 536 917 q 766 856 682 917 q 850 690 850 796 q 799 559 850 614 q 664 472 747 504 l 921 78 l 1021 22 l 1021 0 l 719 0 l 463 425 l 389 425 l 389 81 l 493 22 l 493 0 l 61 0 m 444 840 l 389 840 l 389 493 l 453 493 q 589 542 539 493 q 639 668 639 590 q 590 795 639 750 q 444 840 540 840 m 440 986 l 251 1197 l 282 1197 l 474 1108 l 665 1197 l 696 1197 l 507 986 l 440 986 z "},"Ŗ":{"ha":1010,"x_min":61,"x_max":1021,"o":"m 61 0 l 61 22 l 179 79 l 179 838 l 61 894 l 61 917 l 536 917 q 766 856 682 917 q 850 690 850 796 q 799 559 850 614 q 664 472 747 504 l 921 78 l 1021 22 l 1021 0 l 719 0 l 463 425 l 389 425 l 389 81 l 493 22 l 493 0 l 61 0 m 444 840 l 389 840 l 389 493 l 453 493 q 589 542 539 493 q 639 668 639 590 q 590 795 639 750 q 444 840 540 840 m 510 -332 q 484 -331 499 -332 q 458 -326 469 -329 l 458 -301 q 481 -304 469 -303 q 499 -306 492 -306 q 568 -258 568 -306 q 541 -218 568 -229 q 457 -207 514 -207 l 457 -135 q 469 -114 457 -122 q 514 -106 482 -106 q 627 -135 589 -106 q 665 -217 665 -164 q 622 -302 665 -272 q 510 -332 578 -332 z "},"Ȑ":{"ha":1010,"x_min":61,"x_max":1021,"o":"m 61 0 l 61 22 l 179 79 l 179 838 l 61 894 l 61 917 l 536 917 q 766 856 682 917 q 850 690 850 796 q 799 559 850 614 q 664 472 747 504 l 921 78 l 1021 22 l 1021 0 l 719 0 l 463 425 l 389 425 l 389 81 l 493 22 l 493 0 l 61 0 m 444 840 l 389 840 l 389 493 l 453 493 q 589 542 539 493 q 639 668 639 590 q 590 795 639 750 q 444 840 540 840 m 363 986 l 207 1110 q 183 1153 182 1131 q 190 1197 183 1176 l 304 1197 l 393 986 l 363 986 m 553 986 l 419 1110 q 396 1154 396 1132 q 403 1197 396 1176 l 517 1197 l 583 986 l 553 986 z "},"Ȓ":{"ha":1010,"x_min":61,"x_max":1021,"o":"m 61 0 l 61 22 l 179 79 l 179 838 l 61 894 l 61 917 l 536 917 q 766 856 682 917 q 850 690 850 796 q 799 559 850 614 q 664 472 747 504 l 921 78 l 1021 22 l 1021 0 l 719 0 l 463 425 l 389 425 l 389 81 l 493 22 l 493 0 l 61 0 m 444 840 l 389 840 l 389 493 l 453 493 q 589 542 539 493 q 639 668 639 590 q 590 795 639 750 q 444 840 540 840 m 253 986 q 330 1143 278 1089 q 474 1197 382 1197 q 622 1143 574 1197 q 694 986 671 1089 l 665 986 q 587 1070 633 1051 q 474 1089 540 1089 q 361 1071 407 1089 q 282 986 315 1053 l 253 986 z "},"Ṛ":{"ha":1010,"x_min":61,"x_max":1021,"o":"m 61 0 l 61 22 l 179 79 l 179 838 l 61 894 l 61 917 l 536 917 q 766 856 682 917 q 850 690 850 796 q 799 559 850 614 q 664 472 747 504 l 921 78 l 1021 22 l 1021 0 l 719 0 l 463 425 l 389 425 l 389 81 l 493 22 l 493 0 l 61 0 m 444 840 l 389 840 l 389 493 l 453 493 q 589 542 539 493 q 639 668 639 590 q 590 795 639 750 q 444 840 540 840 z "},"Ṟ":{"ha":1010,"x_min":61,"x_max":1021,"o":"m 61 0 l 61 22 l 179 79 l 179 838 l 61 894 l 61 917 l 536 917 q 766 856 682 917 q 850 690 850 796 q 799 559 850 614 q 664 472 747 504 l 921 78 l 1021 22 l 1021 0 l 719 0 l 463 425 l 389 425 l 389 81 l 493 22 l 493 0 l 61 0 m 444 840 l 389 840 l 389 493 l 453 493 q 589 542 539 493 q 639 668 639 590 q 590 795 639 750 q 444 840 540 840 z "},"ẞ":{"ha":1590,"x_min":65,"x_max":1522,"o":"m 376 -14 q 215 5 285 -14 q 79 57 144 24 l 65 292 l 90 292 l 189 121 q 270 74 226 90 q 360 57 314 57 q 482 92 435 57 q 529 197 529 128 q 508 275 529 244 q 436 333 486 306 q 299 399 386 360 q 147 501 200 442 q 94 650 94 561 q 123 756 94 706 q 199 847 151 807 q 306 908 247 886 q 428 931 365 931 q 564 914 499 931 q 685 867 629 897 l 699 644 l 675 644 l 578 801 q 508 844 542 829 q 431 858 474 858 q 336 822 374 858 q 299 726 299 786 q 340 633 299 669 q 482 550 381 596 q 668 431 608 492 q 728 269 728 369 q 676 117 728 181 q 544 19 625 53 q 376 -14 464 -14 m 1171 -14 q 1009 5 1079 -14 q 874 57 939 24 l 860 292 l 885 292 l 983 121 q 1065 74 1021 90 q 1154 57 1108 57 q 1276 92 1229 57 q 1324 197 1324 128 q 1302 275 1324 244 q 1231 333 1281 306 q 1093 399 1181 360 q 942 501 994 442 q 889 650 889 561 q 917 756 889 706 q 994 847 946 807 q 1101 908 1042 886 q 1222 931 1160 931 q 1358 914 1293 931 q 1479 867 1424 897 l 1493 644 l 1469 644 l 1372 801 q 1302 844 1336 829 q 1225 858 1268 858 q 1131 822 1168 858 q 1093 726 1093 786 q 1134 633 1093 669 q 1276 550 1175 596 q 1463 431 1403 492 q 1522 269 1522 369 q 1471 117 1522 181 q 1339 19 1419 53 q 1171 -14 1258 -14 z "},"Ś":{"ha":794,"x_min":65,"x_max":728,"o":"m 376 -14 q 215 5 285 -14 q 79 57 144 24 l 65 292 l 90 292 l 189 121 q 270 74 226 90 q 360 57 314 57 q 482 92 435 57 q 529 197 529 128 q 508 275 529 244 q 436 333 486 306 q 299 399 386 360 q 147 501 200 442 q 94 650 94 561 q 123 756 94 706 q 199 847 151 807 q 306 908 247 886 q 428 931 365 931 q 564 914 499 931 q 685 867 629 897 l 699 644 l 675 644 l 578 801 q 508 844 542 829 q 431 858 474 858 q 336 822 374 858 q 299 726 299 786 q 340 633 299 669 q 482 550 381 596 q 668 431 608 492 q 728 269 728 369 q 676 117 728 181 q 544 19 625 53 q 376 -14 464 -14 m 400 986 l 515 1197 l 668 1197 q 657 1147 668 1171 q 613 1101 646 1122 l 431 986 l 400 986 z "},"Ŝ":{"ha":794,"x_min":65,"x_max":728,"o":"m 376 -14 q 215 5 285 -14 q 79 57 144 24 l 65 292 l 90 292 l 189 121 q 270 74 226 90 q 360 57 314 57 q 482 92 435 57 q 529 197 529 128 q 508 275 529 244 q 436 333 486 306 q 299 399 386 360 q 147 501 200 442 q 94 650 94 561 q 123 756 94 706 q 199 847 151 807 q 306 908 247 886 q 428 931 365 931 q 564 914 499 931 q 685 867 629 897 l 699 644 l 675 644 l 578 801 q 508 844 542 829 q 431 858 474 858 q 336 822 374 858 q 299 726 299 786 q 340 633 299 669 q 482 550 381 596 q 668 431 608 492 q 728 269 728 369 q 676 117 728 181 q 544 19 625 53 q 376 -14 464 -14 m 194 986 l 383 1197 l 450 1197 l 639 986 l 608 986 l 417 1075 l 225 986 l 194 986 z "},"Š":{"ha":794,"x_min":65,"x_max":728,"o":"m 376 -14 q 215 5 285 -14 q 79 57 144 24 l 65 292 l 90 292 l 189 121 q 270 74 226 90 q 360 57 314 57 q 482 92 435 57 q 529 197 529 128 q 508 275 529 244 q 436 333 486 306 q 299 399 386 360 q 147 501 200 442 q 94 650 94 561 q 123 756 94 706 q 199 847 151 807 q 306 908 247 886 q 428 931 365 931 q 564 914 499 931 q 685 867 629 897 l 699 644 l 675 644 l 578 801 q 508 844 542 829 q 431 858 474 858 q 336 822 374 858 q 299 726 299 786 q 340 633 299 669 q 482 550 381 596 q 668 431 608 492 q 728 269 728 369 q 676 117 728 181 q 544 19 625 53 q 376 -14 464 -14 m 383 986 l 194 1197 l 225 1197 l 417 1108 l 608 1197 l 639 1197 l 450 986 l 383 986 z "},"Ş":{"ha":794,"x_min":65,"x_max":728,"o":"m 396 -333 q 283 -300 325 -333 l 283 -274 l 289 -274 q 368 -290 322 -290 q 444 -236 444 -290 q 417 -186 444 -207 q 307 -143 389 -165 l 367 -14 q 211 6 279 -12 q 79 57 143 25 l 65 292 l 90 292 l 189 121 q 270 74 226 90 q 360 57 314 57 q 482 92 435 57 q 529 197 529 128 q 508 275 529 244 q 436 333 486 306 q 299 399 386 360 q 147 501 200 442 q 94 650 94 561 q 123 756 94 706 q 199 847 151 807 q 306 908 247 886 q 428 931 365 931 q 564 914 499 931 q 685 867 629 897 l 699 644 l 675 644 l 581 800 q 508 844 543 829 q 431 858 474 858 q 336 822 374 858 q 299 726 299 786 q 340 633 299 669 q 482 550 381 596 q 668 431 608 492 q 728 269 728 369 q 685 127 728 188 q 572 31 642 67 q 421 -11 501 -4 l 399 -60 q 510 -117 478 -83 q 542 -206 542 -150 q 503 -297 542 -261 q 396 -333 464 -333 z "},"Ș":{"ha":794,"x_min":65,"x_max":728,"o":"m 376 -14 q 215 5 285 -14 q 79 57 144 24 l 65 292 l 90 292 l 189 121 q 270 74 226 90 q 360 57 314 57 q 482 92 435 57 q 529 197 529 128 q 508 275 529 244 q 436 333 486 306 q 299 399 386 360 q 147 501 200 442 q 94 650 94 561 q 123 756 94 706 q 199 847 151 807 q 306 908 247 886 q 428 931 365 931 q 564 914 499 931 q 685 867 629 897 l 699 644 l 675 644 l 578 801 q 508 844 542 829 q 431 858 474 858 q 336 822 374 858 q 299 726 299 786 q 340 633 299 669 q 482 550 381 596 q 668 431 608 492 q 728 269 728 369 q 676 117 728 181 q 544 19 625 53 q 376 -14 464 -14 z "},"Ṡ":{"ha":794,"x_min":65,"x_max":728,"o":"m 376 -14 q 215 5 285 -14 q 79 57 144 24 l 65 292 l 90 292 l 189 121 q 270 74 226 90 q 360 57 314 57 q 482 92 435 57 q 529 197 529 128 q 508 275 529 244 q 436 333 486 306 q 299 399 386 360 q 147 501 200 442 q 94 650 94 561 q 123 756 94 706 q 199 847 151 807 q 306 908 247 886 q 428 931 365 931 q 564 914 499 931 q 685 867 629 897 l 699 644 l 675 644 l 578 801 q 508 844 542 829 q 431 858 474 858 q 336 822 374 858 q 299 726 299 786 q 340 633 299 669 q 482 550 381 596 q 668 431 608 492 q 728 269 728 369 q 676 117 728 181 q 544 19 625 53 q 376 -14 464 -14 m 417 1001 q 344 1030 372 1001 q 315 1103 315 1058 q 344 1175 315 1146 q 417 1204 372 1204 q 490 1175 461 1204 q 518 1103 518 1146 q 490 1030 518 1058 q 417 1001 461 1001 z "},"Ṣ":{"ha":794,"x_min":65,"x_max":728,"o":"m 376 -14 q 215 5 285 -14 q 79 57 144 24 l 65 292 l 90 292 l 189 121 q 270 74 226 90 q 360 57 314 57 q 482 92 435 57 q 529 197 529 128 q 508 275 529 244 q 436 333 486 306 q 299 399 386 360 q 147 501 200 442 q 94 650 94 561 q 123 756 94 706 q 199 847 151 807 q 306 908 247 886 q 428 931 365 931 q 564 914 499 931 q 685 867 629 897 l 699 644 l 675 644 l 578 801 q 508 844 542 829 q 431 858 474 858 q 336 822 374 858 q 299 726 299 786 q 340 633 299 669 q 482 550 381 596 q 668 431 608 492 q 728 269 728 369 q 676 117 728 181 q 544 19 625 53 q 376 -14 464 -14 z "},"Ṥ":{"ha":794,"x_min":65,"x_max":728,"o":"m 376 -14 q 215 5 285 -14 q 79 57 144 24 l 65 292 l 90 292 l 189 121 q 270 74 226 90 q 360 57 314 57 q 482 92 435 57 q 529 197 529 128 q 508 275 529 244 q 436 333 486 306 q 299 399 386 360 q 147 501 200 442 q 94 650 94 561 q 123 756 94 706 q 199 847 151 807 q 306 908 247 886 q 428 931 365 931 q 564 914 499 931 q 685 867 629 897 l 699 644 l 675 644 l 578 801 q 508 844 542 829 q 431 858 474 858 q 336 822 374 858 q 299 726 299 786 q 340 633 299 669 q 482 550 381 596 q 668 431 608 492 q 728 269 728 369 q 676 117 728 181 q 544 19 625 53 q 376 -14 464 -14 z "},"Ṧ":{"ha":794,"x_min":65,"x_max":728,"o":"m 376 -14 q 215 5 285 -14 q 79 57 144 24 l 65 292 l 90 292 l 189 121 q 270 74 226 90 q 360 57 314 57 q 482 92 435 57 q 529 197 529 128 q 508 275 529 244 q 436 333 486 306 q 299 399 386 360 q 147 501 200 442 q 94 650 94 561 q 123 756 94 706 q 199 847 151 807 q 306 908 247 886 q 428 931 365 931 q 564 914 499 931 q 685 867 629 897 l 699 644 l 675 644 l 578 801 q 508 844 542 829 q 431 858 474 858 q 336 822 374 858 q 299 726 299 786 q 340 633 299 669 q 482 550 381 596 q 668 431 608 492 q 728 269 728 369 q 676 117 728 181 q 544 19 625 53 q 376 -14 464 -14 z "},"Ṩ":{"ha":794,"x_min":65,"x_max":728,"o":"m 376 -14 q 215 5 285 -14 q 79 57 144 24 l 65 292 l 90 292 l 189 121 q 270 74 226 90 q 360 57 314 57 q 482 92 435 57 q 529 197 529 128 q 508 275 529 244 q 436 333 486 306 q 299 399 386 360 q 147 501 200 442 q 94 650 94 561 q 123 756 94 706 q 199 847 151 807 q 306 908 247 886 q 428 931 365 931 q 564 914 499 931 q 685 867 629 897 l 699 644 l 675 644 l 578 801 q 508 844 542 829 q 431 858 474 858 q 336 822 374 858 q 299 726 299 786 q 340 633 299 669 q 482 550 381 596 q 668 431 608 492 q 728 269 728 369 q 676 117 728 181 q 544 19 625 53 q 376 -14 464 -14 m 417 1001 q 344 1030 372 1001 q 315 1103 315 1058 q 344 1175 315 1146 q 417 1204 372 1204 q 490 1175 461 1204 q 518 1103 518 1146 q 490 1030 518 1058 q 417 1001 461 1001 z "},"Ť":{"ha":974,"x_min":50,"x_max":924,"o":"m 235 0 l 235 22 l 382 79 l 382 840 l 183 840 l 72 611 l 50 611 l 50 917 l 924 917 l 924 611 l 901 611 l 790 840 l 592 840 l 592 79 l 739 22 l 739 0 l 235 0 m 453 986 l 264 1197 l 294 1197 l 486 1108 l 678 1197 l 708 1197 l 519 986 l 453 986 z "},"Ț":{"ha":974,"x_min":50,"x_max":924,"o":"m 235 0 l 235 22 l 382 79 l 382 840 l 183 840 l 72 611 l 50 611 l 50 917 l 924 917 l 924 611 l 901 611 l 790 840 l 592 840 l 592 79 l 739 22 l 739 0 l 235 0 z "},"Ŧ":{"ha":974,"x_min":50,"x_max":924,"o":"m 235 0 l 235 22 l 382 79 l 382 439 l 208 439 l 208 513 l 382 513 l 382 840 l 183 840 l 72 611 l 50 611 l 50 917 l 924 917 l 924 611 l 901 611 l 790 840 l 592 840 l 592 513 l 765 513 l 765 439 l 592 439 l 592 79 l 739 22 l 739 0 l 235 0 z "},"Ţ":{"ha":974,"x_min":50,"x_max":924,"o":"m 235 0 l 235 22 l 382 79 l 382 840 l 183 840 l 72 611 l 50 611 l 50 917 l 924 917 l 924 611 l 901 611 l 790 840 l 592 840 l 592 79 l 739 22 l 739 0 l 514 0 l 486 -60 q 597 -117 565 -83 q 629 -206 629 -150 q 590 -297 629 -261 q 485 -333 551 -333 q 371 -300 413 -333 l 371 -274 l 376 -274 q 456 -290 410 -290 q 532 -236 532 -290 q 505 -186 532 -207 q 396 -143 478 -165 l 461 0 l 235 0 z "},"Ṭ":{"ha":974,"x_min":50,"x_max":924,"o":"m 235 0 l 235 22 l 382 79 l 382 840 l 183 840 l 72 611 l 50 611 l 50 917 l 924 917 l 924 611 l 901 611 l 790 840 l 592 840 l 592 79 l 739 22 l 739 0 l 235 0 z "},"Ṯ":{"ha":974,"x_min":50,"x_max":924,"o":"m 235 0 l 235 22 l 382 79 l 382 840 l 183 840 l 72 611 l 50 611 l 50 917 l 924 917 l 924 611 l 901 611 l 790 840 l 592 840 l 592 79 l 739 22 l 739 0 l 235 0 z "},"Ù":{"ha":1164,"x_min":61,"x_max":1103,"o":"m 588 -14 q 375 26 467 -14 q 232 155 283 65 q 181 394 181 244 l 181 838 l 61 894 l 61 917 l 510 917 l 510 894 l 390 838 l 390 393 q 426 212 390 278 q 522 118 461 146 q 656 90 582 90 q 769 115 717 90 q 854 197 822 140 q 886 344 886 253 l 886 840 l 756 894 l 756 917 l 1103 917 l 1103 894 l 983 839 l 983 394 q 933 155 983 244 q 794 26 883 65 q 588 -14 706 -14 m 618 986 l 436 1101 q 391 1147 401 1124 q 381 1197 381 1171 l 533 1197 l 649 986 l 618 986 z "},"Ú":{"ha":1164,"x_min":61,"x_max":1103,"o":"m 588 -14 q 375 26 467 -14 q 232 155 283 65 q 181 394 181 244 l 181 838 l 61 894 l 61 917 l 510 917 l 510 894 l 390 838 l 390 393 q 426 212 390 278 q 522 118 461 146 q 656 90 582 90 q 769 115 717 90 q 854 197 822 140 q 886 344 886 253 l 886 840 l 756 894 l 756 917 l 1103 917 l 1103 894 l 983 839 l 983 394 q 933 155 983 244 q 794 26 883 65 q 588 -14 706 -14 m 618 986 l 733 1197 l 886 1197 q 875 1147 886 1171 q 831 1101 864 1122 l 649 986 l 618 986 z "},"Û":{"ha":1164,"x_min":61,"x_max":1103,"o":"m 588 -14 q 375 26 467 -14 q 232 155 283 65 q 181 394 181 244 l 181 838 l 61 894 l 61 917 l 510 917 l 510 894 l 390 838 l 390 393 q 426 212 390 278 q 522 118 461 146 q 656 90 582 90 q 769 115 717 90 q 854 197 822 140 q 886 344 886 253 l 886 840 l 756 894 l 756 917 l 1103 917 l 1103 894 l 983 839 l 983 394 q 933 155 983 244 q 794 26 883 65 q 588 -14 706 -14 m 411 986 l 600 1197 l 667 1197 l 856 986 l 825 986 l 633 1075 l 442 986 l 411 986 z "},"Ũ":{"ha":1164,"x_min":61,"x_max":1103,"o":"m 588 -14 q 375 26 467 -14 q 232 155 283 65 q 181 394 181 244 l 181 838 l 61 894 l 61 917 l 510 917 l 510 894 l 390 838 l 390 393 q 426 212 390 278 q 522 118 461 146 q 656 90 582 90 q 769 115 717 90 q 854 197 822 140 q 886 344 886 253 l 886 840 l 756 894 l 756 917 l 1103 917 l 1103 894 l 983 839 l 983 394 q 933 155 983 244 q 794 26 883 65 q 588 -14 706 -14 m 404 1003 q 472 1143 439 1108 q 549 1178 506 1178 q 624 1160 589 1178 q 691 1123 660 1142 q 753 1104 722 1104 q 794 1117 775 1104 q 832 1178 813 1131 l 863 1178 q 795 1038 829 1072 q 718 1003 761 1003 q 642 1021 678 1003 q 576 1058 607 1039 q 514 1076 544 1076 q 473 1063 492 1076 q 435 1003 454 1050 l 404 1003 z "},"Ü":{"ha":1164,"x_min":61,"x_max":1103,"o":"m 588 -14 q 375 26 467 -14 q 232 155 283 65 q 181 394 181 244 l 181 838 l 61 894 l 61 917 l 510 917 l 510 894 l 390 838 l 390 393 q 426 212 390 278 q 522 118 461 146 q 656 90 582 90 q 769 115 717 90 q 854 197 822 140 q 886 344 886 253 l 886 840 l 756 894 l 756 917 l 1103 917 l 1103 894 l 983 839 l 983 394 q 933 155 983 244 q 794 26 883 65 q 588 -14 706 -14 m 497 1010 q 440 1033 463 1010 q 417 1090 417 1057 q 440 1149 417 1125 q 497 1172 463 1172 q 555 1149 532 1172 q 578 1090 578 1125 q 555 1033 578 1057 q 497 1010 532 1010 m 772 1010 q 715 1033 738 1010 q 692 1090 692 1057 q 715 1149 692 1125 q 772 1172 738 1172 q 830 1149 807 1172 q 853 1090 853 1125 q 830 1033 853 1057 q 772 1010 807 1010 z "},"Ū":{"ha":1164,"x_min":61,"x_max":1103,"o":"m 588 -14 q 375 26 467 -14 q 232 155 283 65 q 181 394 181 244 l 181 838 l 61 894 l 61 917 l 510 917 l 510 894 l 390 838 l 390 393 q 426 212 390 278 q 522 118 461 146 q 656 90 582 90 q 769 115 717 90 q 854 197 822 140 q 886 344 886 253 l 886 840 l 756 894 l 756 917 l 1103 917 l 1103 894 l 983 839 l 983 394 q 933 155 983 244 q 794 26 883 65 q 588 -14 706 -14 m 432 1051 l 432 1133 l 835 1133 l 835 1051 l 432 1051 z "},"Ŭ":{"ha":1164,"x_min":61,"x_max":1103,"o":"m 588 -14 q 375 26 467 -14 q 232 155 283 65 q 181 394 181 244 l 181 838 l 61 894 l 61 917 l 510 917 l 510 894 l 390 838 l 390 393 q 426 212 390 278 q 522 118 461 146 q 656 90 582 90 q 769 115 717 90 q 854 197 822 140 q 886 344 886 253 l 886 840 l 756 894 l 756 917 l 1103 917 l 1103 894 l 983 839 l 983 394 q 933 155 983 244 q 794 26 883 65 q 588 -14 706 -14 m 633 986 q 485 1040 533 986 q 413 1197 436 1094 l 442 1197 q 520 1113 474 1132 q 633 1094 567 1094 q 746 1113 700 1094 q 825 1197 792 1131 l 854 1197 q 777 1040 829 1094 q 633 986 725 986 z "},"Ů":{"ha":1164,"x_min":61,"x_max":1103,"o":"m 588 -14 q 375 26 467 -14 q 232 155 283 65 q 181 394 181 244 l 181 838 l 61 894 l 61 917 l 510 917 l 510 894 l 390 838 l 390 393 q 426 212 390 278 q 522 118 461 146 q 656 90 582 90 q 769 115 717 90 q 854 197 822 140 q 886 344 886 253 l 886 840 l 756 894 l 756 917 l 1103 917 l 1103 894 l 983 839 l 983 394 q 933 155 983 244 q 794 26 883 65 q 588 -14 706 -14 m 633 986 q 544 1019 579 986 q 510 1104 510 1053 q 544 1188 510 1154 q 633 1222 579 1222 q 723 1188 689 1222 q 757 1104 757 1154 q 723 1019 757 1053 q 633 986 689 986 m 639 1021 q 681 1094 681 1021 q 628 1188 681 1188 q 586 1113 586 1188 q 639 1021 586 1021 z "},"Ű":{"ha":1164,"x_min":61,"x_max":1103,"o":"m 588 -14 q 375 26 467 -14 q 232 155 283 65 q 181 394 181 244 l 181 838 l 61 894 l 61 917 l 510 917 l 510 894 l 390 838 l 390 393 q 426 212 390 278 q 522 118 461 146 q 656 90 582 90 q 769 115 717 90 q 854 197 822 140 q 886 344 886 253 l 886 840 l 756 894 l 756 917 l 1103 917 l 1103 894 l 983 839 l 983 394 q 933 155 983 244 q 794 26 883 65 q 588 -14 706 -14 m 524 986 l 583 1197 l 697 1197 q 704 1154 704 1176 q 681 1110 704 1132 l 553 986 l 524 986 m 714 986 l 796 1197 l 910 1197 q 918 1153 917 1176 q 893 1110 919 1131 l 744 986 l 714 986 z "},"Ų":{"ha":1164,"x_min":61,"x_max":1103,"o":"m 615 -333 q 514 -299 551 -333 q 476 -208 476 -264 q 505 -115 476 -162 q 582 -14 533 -67 q 372 27 463 -12 q 231 156 282 67 q 181 394 181 246 l 181 838 l 61 894 l 61 917 l 510 917 l 510 894 l 390 838 l 390 393 q 426 212 390 278 q 522 118 461 146 q 656 90 582 90 q 769 115 717 90 q 854 197 822 140 q 886 344 886 253 l 886 840 l 756 894 l 756 917 l 1103 917 l 1103 894 l 983 839 l 983 394 q 940 169 983 256 q 819 39 897 82 q 638 -12 742 -4 q 589 -176 589 -101 q 669 -261 589 -261 q 702 -256 685 -261 q 735 -239 719 -250 l 740 -239 l 740 -265 q 615 -333 703 -333 z "},"Ụ":{"ha":1164,"x_min":61,"x_max":1103,"o":"m 588 -14 q 375 26 467 -14 q 232 155 283 65 q 181 394 181 244 l 181 838 l 61 894 l 61 917 l 510 917 l 510 894 l 390 838 l 390 393 q 426 212 390 278 q 522 118 461 146 q 656 90 582 90 q 769 115 717 90 q 854 197 822 140 q 886 344 886 253 l 886 840 l 756 894 l 756 917 l 1103 917 l 1103 894 l 983 839 l 983 394 q 933 155 983 244 q 794 26 883 65 q 588 -14 706 -14 z "},"Ȕ":{"ha":1164,"x_min":61,"x_max":1103,"o":"m 588 -14 q 375 26 467 -14 q 232 155 283 65 q 181 394 181 244 l 181 838 l 61 894 l 61 917 l 510 917 l 510 894 l 390 838 l 390 393 q 426 212 390 278 q 522 118 461 146 q 656 90 582 90 q 769 115 717 90 q 854 197 822 140 q 886 344 886 253 l 886 840 l 756 894 l 756 917 l 1103 917 l 1103 894 l 983 839 l 983 394 q 933 155 983 244 q 794 26 883 65 q 588 -14 706 -14 m 522 986 l 367 1110 q 342 1153 342 1131 q 350 1197 343 1176 l 464 1197 l 553 986 l 522 986 m 713 986 l 579 1110 q 556 1154 556 1132 q 563 1197 556 1176 l 676 1197 l 743 986 l 713 986 z "},"Ȗ":{"ha":1164,"x_min":61,"x_max":1103,"o":"m 588 -14 q 375 26 467 -14 q 232 155 283 65 q 181 394 181 244 l 181 838 l 61 894 l 61 917 l 510 917 l 510 894 l 390 838 l 390 393 q 426 212 390 278 q 522 118 461 146 q 656 90 582 90 q 769 115 717 90 q 854 197 822 140 q 886 344 886 253 l 886 840 l 756 894 l 756 917 l 1103 917 l 1103 894 l 983 839 l 983 394 q 933 155 983 244 q 794 26 883 65 q 588 -14 706 -14 m 413 986 q 490 1143 438 1089 q 633 1197 542 1197 q 782 1143 733 1197 q 854 986 831 1089 l 825 986 q 747 1070 793 1051 q 633 1089 700 1089 q 521 1071 567 1089 q 442 986 475 1053 l 413 986 z "},"Ủ":{"ha":1164,"x_min":61,"x_max":1103,"o":"m 588 -14 q 375 26 467 -14 q 232 155 283 65 q 181 394 181 244 l 181 838 l 61 894 l 61 917 l 510 917 l 510 894 l 390 838 l 390 393 q 426 212 390 278 q 522 118 461 146 q 656 90 582 90 q 769 115 717 90 q 854 197 822 140 q 886 344 886 253 l 886 840 l 756 894 l 756 917 l 1103 917 l 1103 894 l 983 839 l 983 394 q 933 155 983 244 q 794 26 883 65 q 588 -14 706 -14 m 564 988 l 564 989 q 630 1018 608 1004 q 651 1058 651 1032 q 629 1094 651 1081 q 551 1119 607 1108 l 571 1215 q 703 1173 665 1207 q 740 1103 740 1139 q 699 1017 740 1047 q 578 975 658 986 l 564 988 z "},"Ṹ":{"ha":1164,"x_min":61,"x_max":1103,"o":"m 588 -14 q 375 26 467 -14 q 232 155 283 65 q 181 394 181 244 l 181 838 l 61 894 l 61 917 l 510 917 l 510 894 l 390 838 l 390 393 q 426 212 390 278 q 522 118 461 146 q 656 90 582 90 q 769 115 717 90 q 854 197 822 140 q 886 344 886 253 l 886 840 l 756 894 l 756 917 l 1103 917 l 1103 894 l 983 839 l 983 394 q 933 155 983 244 q 794 26 883 65 q 588 -14 706 -14 z "},"Ṻ":{"ha":1164,"x_min":61,"x_max":1103,"o":"m 588 -14 q 375 26 467 -14 q 232 155 283 65 q 181 394 181 244 l 181 838 l 61 894 l 61 917 l 510 917 l 510 894 l 390 838 l 390 393 q 426 212 390 278 q 522 118 461 146 q 656 90 582 90 q 769 115 717 90 q 854 197 822 140 q 886 344 886 253 l 886 840 l 756 894 l 756 917 l 1103 917 l 1103 894 l 983 839 l 983 394 q 933 155 983 244 q 794 26 883 65 q 588 -14 706 -14 z "},"Ư":{"ha":1164,"x_min":61,"x_max":1318,"o":"m 588 -14 q 375 26 467 -14 q 232 155 283 65 q 181 394 181 244 l 181 838 l 61 894 l 61 917 l 510 917 l 510 894 l 390 838 l 390 393 q 426 212 390 278 q 522 117 461 146 q 656 90 582 89 q 769 115 717 90 q 854 197 822 140 q 886 344 886 253 l 886 840 l 756 894 l 756 917 l 1096 917 q 1169 931 1149 917 q 1190 981 1190 946 l 1190 1038 l 1199 1046 l 1281 1046 q 1310 1038 1303 1046 q 1318 1003 1318 1031 q 1270 910 1318 939 q 1139 881 1222 881 l 1072 881 l 983 839 l 983 394 q 933 155 983 244 q 794 26 883 65 q 588 -14 706 -14 z "},"Ứ":{"ha":1164,"x_min":61,"x_max":1318,"o":"m 588 -14 q 375 26 467 -14 q 232 155 283 65 q 181 394 181 244 l 181 838 l 61 894 l 61 917 l 510 917 l 510 894 l 390 838 l 390 393 q 426 212 390 278 q 522 117 461 146 q 656 90 582 89 q 769 115 717 90 q 854 197 822 140 q 886 344 886 253 l 886 840 l 756 894 l 756 917 l 1096 917 q 1169 931 1149 917 q 1190 981 1190 946 l 1190 1038 l 1199 1046 l 1281 1046 q 1310 1038 1303 1046 q 1318 1003 1318 1031 q 1270 910 1318 939 q 1139 881 1222 881 l 1072 881 l 983 839 l 983 394 q 933 155 983 244 q 794 26 883 65 q 588 -14 706 -14 m 618 986 l 733 1197 l 886 1197 q 875 1147 886 1171 q 831 1101 864 1122 l 649 986 l 618 986 z "},"Ự":{"ha":1164,"x_min":61,"x_max":1318,"o":"m 588 -14 q 375 26 467 -14 q 232 155 283 65 q 181 394 181 244 l 181 838 l 61 894 l 61 917 l 510 917 l 510 894 l 390 838 l 390 393 q 426 212 390 278 q 522 117 461 146 q 656 90 582 89 q 769 115 717 90 q 854 197 822 140 q 886 344 886 253 l 886 840 l 756 894 l 756 917 l 1096 917 q 1169 931 1149 917 q 1190 981 1190 946 l 1190 1038 l 1199 1046 l 1281 1046 q 1310 1038 1303 1046 q 1318 1003 1318 1031 q 1270 910 1318 939 q 1139 881 1222 881 l 1072 881 l 983 839 l 983 394 q 933 155 983 244 q 794 26 883 65 q 588 -14 706 -14 z "},"Ừ":{"ha":1164,"x_min":61,"x_max":1318,"o":"m 588 -14 q 375 26 467 -14 q 232 155 283 65 q 181 394 181 244 l 181 838 l 61 894 l 61 917 l 510 917 l 510 894 l 390 838 l 390 393 q 426 212 390 278 q 522 117 461 146 q 656 90 582 89 q 769 115 717 90 q 854 197 822 140 q 886 344 886 253 l 886 840 l 756 894 l 756 917 l 1096 917 q 1169 931 1149 917 q 1190 981 1190 946 l 1190 1038 l 1199 1046 l 1281 1046 q 1310 1038 1303 1046 q 1318 1003 1318 1031 q 1270 910 1318 939 q 1139 881 1222 881 l 1072 881 l 983 839 l 983 394 q 933 155 983 244 q 794 26 883 65 q 588 -14 706 -14 m 618 986 l 436 1101 q 391 1147 401 1124 q 381 1197 381 1171 l 533 1197 l 649 986 l 618 986 z "},"Ử":{"ha":1164,"x_min":61,"x_max":1318,"o":"m 588 -14 q 375 26 467 -14 q 232 155 283 65 q 181 394 181 244 l 181 838 l 61 894 l 61 917 l 510 917 l 510 894 l 390 838 l 390 393 q 426 212 390 278 q 522 117 461 146 q 656 90 582 89 q 769 115 717 90 q 854 197 822 140 q 886 344 886 253 l 886 840 l 756 894 l 756 917 l 1096 917 q 1169 931 1149 917 q 1190 981 1190 946 l 1190 1038 l 1199 1046 l 1281 1046 q 1310 1038 1303 1046 q 1318 1003 1318 1031 q 1270 910 1318 939 q 1139 881 1222 881 l 1072 881 l 983 839 l 983 394 q 933 155 983 244 q 794 26 883 65 q 588 -14 706 -14 m 564 988 l 564 989 q 630 1018 608 1004 q 651 1058 651 1032 q 629 1094 651 1081 q 551 1119 607 1108 l 571 1215 q 703 1173 665 1207 q 740 1103 740 1139 q 699 1017 740 1047 q 578 975 658 986 l 564 988 z "},"Ữ":{"ha":1164,"x_min":61,"x_max":1318,"o":"m 588 -14 q 375 26 467 -14 q 232 155 283 65 q 181 394 181 244 l 181 838 l 61 894 l 61 917 l 510 917 l 510 894 l 390 838 l 390 393 q 426 212 390 278 q 522 117 461 146 q 656 90 582 89 q 769 115 717 90 q 854 197 822 140 q 886 344 886 253 l 886 840 l 756 894 l 756 917 l 1096 917 q 1169 931 1149 917 q 1190 981 1190 946 l 1190 1038 l 1199 1046 l 1281 1046 q 1310 1038 1303 1046 q 1318 1003 1318 1031 q 1270 910 1318 939 q 1139 881 1222 881 l 1072 881 l 983 839 l 983 394 q 933 155 983 244 q 794 26 883 65 q 588 -14 706 -14 m 404 1003 q 472 1143 439 1108 q 549 1178 506 1178 q 624 1160 589 1178 q 691 1123 660 1142 q 753 1104 722 1104 q 794 1117 775 1104 q 832 1178 813 1131 l 863 1178 q 795 1038 829 1072 q 718 1003 761 1003 q 642 1021 678 1003 q 576 1058 607 1039 q 514 1076 544 1076 q 473 1063 492 1076 q 435 1003 454 1050 l 404 1003 z "},"Ẁ":{"ha":1447,"x_min":17,"x_max":1431,"o":"m 390 -7 l 124 839 l 17 894 l 17 917 l 454 917 l 454 894 l 338 842 l 497 307 l 504 307 l 746 924 l 828 924 l 1068 307 l 1075 307 l 1236 840 l 1117 894 l 1117 917 l 1431 917 l 1431 894 l 1338 844 l 1065 -7 l 985 -7 l 736 610 l 726 610 l 471 -7 l 390 -7 m 771 986 l 589 1101 q 544 1147 554 1124 q 533 1197 533 1171 l 686 1197 l 801 986 l 771 986 z "},"Ẃ":{"ha":1447,"x_min":17,"x_max":1431,"o":"m 390 -7 l 124 839 l 17 894 l 17 917 l 454 917 l 454 894 l 338 842 l 497 307 l 504 307 l 746 924 l 828 924 l 1068 307 l 1075 307 l 1236 840 l 1117 894 l 1117 917 l 1431 917 l 1431 894 l 1338 844 l 1065 -7 l 985 -7 l 736 610 l 726 610 l 471 -7 l 390 -7 m 771 986 l 886 1197 l 1039 1197 q 1028 1147 1039 1171 q 983 1101 1017 1122 l 801 986 l 771 986 z "},"Ŵ":{"ha":1447,"x_min":17,"x_max":1431,"o":"m 390 -7 l 124 839 l 17 894 l 17 917 l 454 917 l 454 894 l 338 842 l 497 307 l 504 307 l 746 924 l 828 924 l 1068 307 l 1075 307 l 1236 840 l 1117 894 l 1117 917 l 1431 917 l 1431 894 l 1338 844 l 1065 -7 l 985 -7 l 736 610 l 726 610 l 471 -7 l 390 -7 m 565 986 l 754 1197 l 821 1197 l 1010 986 l 979 986 l 788 1075 l 596 986 l 565 986 z "},"Ẅ":{"ha":1447,"x_min":17,"x_max":1431,"o":"m 390 -7 l 124 839 l 17 894 l 17 917 l 454 917 l 454 894 l 338 842 l 497 307 l 504 307 l 746 924 l 828 924 l 1068 307 l 1075 307 l 1236 840 l 1117 894 l 1117 917 l 1431 917 l 1431 894 l 1338 844 l 1065 -7 l 985 -7 l 736 610 l 726 610 l 471 -7 l 390 -7 m 650 1010 q 592 1033 615 1010 q 569 1090 569 1057 q 592 1149 569 1125 q 650 1172 615 1172 q 708 1149 685 1172 q 731 1090 731 1125 q 708 1033 731 1057 q 650 1010 685 1010 m 925 1010 q 867 1033 890 1010 q 844 1090 844 1057 q 867 1149 844 1125 q 925 1172 890 1172 q 983 1149 960 1172 q 1006 1090 1006 1125 q 983 1033 1006 1057 q 925 1010 960 1010 z "},"Ỳ":{"ha":1047,"x_min":28,"x_max":1021,"o":"m 300 0 l 300 22 l 425 79 l 425 428 l 122 840 l 28 894 l 28 917 l 457 917 l 457 894 l 353 843 l 353 838 l 594 511 l 811 835 l 811 840 l 704 894 l 704 917 l 1021 917 l 1021 894 l 928 849 l 635 429 l 635 79 l 758 22 l 758 0 l 300 0 m 561 986 l 379 1101 q 334 1147 344 1124 q 324 1197 324 1171 l 476 1197 l 592 986 l 561 986 z "},"Ý":{"ha":1047,"x_min":28,"x_max":1021,"o":"m 300 0 l 300 22 l 425 79 l 425 428 l 122 840 l 28 894 l 28 917 l 457 917 l 457 894 l 353 843 l 353 838 l 594 511 l 811 835 l 811 840 l 704 894 l 704 917 l 1021 917 l 1021 894 l 928 849 l 635 429 l 635 79 l 758 22 l 758 0 l 300 0 m 561 986 l 676 1197 l 829 1197 q 818 1147 829 1171 q 774 1101 807 1122 l 592 986 l 561 986 z "},"Ŷ":{"ha":1047,"x_min":28,"x_max":1021,"o":"m 300 0 l 300 22 l 425 79 l 425 428 l 122 840 l 28 894 l 28 917 l 457 917 l 457 894 l 353 843 l 353 838 l 594 511 l 811 835 l 811 840 l 704 894 l 704 917 l 1021 917 l 1021 894 l 928 849 l 635 429 l 635 79 l 758 22 l 758 0 l 300 0 m 354 986 l 543 1197 l 610 1197 l 799 986 l 768 986 l 576 1075 l 385 986 l 354 986 z "},"Ÿ":{"ha":1047,"x_min":28,"x_max":1021,"o":"m 300 0 l 300 22 l 425 79 l 425 428 l 122 840 l 28 894 l 28 917 l 457 917 l 457 894 l 353 843 l 353 838 l 594 511 l 811 835 l 811 840 l 704 894 l 704 917 l 1021 917 l 1021 894 l 928 849 l 635 429 l 635 79 l 758 22 l 758 0 l 300 0 m 440 1010 q 383 1033 406 1010 q 360 1090 360 1057 q 383 1149 360 1125 q 440 1172 406 1172 q 498 1149 475 1172 q 521 1090 521 1125 q 498 1033 521 1057 q 440 1010 475 1010 m 715 1010 q 658 1033 681 1010 q 635 1090 635 1057 q 658 1149 635 1125 q 715 1172 681 1172 q 773 1149 750 1172 q 796 1090 796 1125 q 773 1033 796 1057 q 715 1010 750 1010 z "},"Ỹ":{"ha":1047,"x_min":28,"x_max":1021,"o":"m 300 0 l 300 22 l 425 79 l 425 428 l 122 840 l 28 894 l 28 917 l 457 917 l 457 894 l 353 843 l 353 838 l 594 511 l 811 835 l 811 840 l 704 894 l 704 917 l 1021 917 l 1021 894 l 928 849 l 635 429 l 635 79 l 758 22 l 758 0 l 300 0 m 347 1003 q 415 1143 382 1108 q 492 1178 449 1178 q 567 1160 532 1178 q 634 1123 603 1142 q 696 1104 665 1104 q 737 1117 718 1104 q 775 1178 756 1131 l 806 1178 q 738 1038 772 1072 q 661 1003 704 1003 q 585 1021 621 1003 q 519 1058 550 1039 q 457 1076 488 1076 q 416 1063 435 1076 q 378 1003 397 1050 l 347 1003 z "},"Ȳ":{"ha":1047,"x_min":28,"x_max":1021,"o":"m 300 0 l 300 22 l 425 79 l 425 428 l 122 840 l 28 894 l 28 917 l 457 917 l 457 894 l 353 843 l 353 838 l 594 511 l 811 835 l 811 840 l 704 894 l 704 917 l 1021 917 l 1021 894 l 928 849 l 635 429 l 635 79 l 758 22 l 758 0 l 300 0 m 375 1051 l 375 1133 l 778 1133 l 778 1051 l 375 1051 z "},"Ỵ":{"ha":1047,"x_min":28,"x_max":1021,"o":"m 300 0 l 300 22 l 425 79 l 425 428 l 122 840 l 28 894 l 28 917 l 457 917 l 457 894 l 353 843 l 353 838 l 594 511 l 811 835 l 811 840 l 704 894 l 704 917 l 1021 917 l 1021 894 l 928 849 l 635 429 l 635 79 l 758 22 l 758 0 l 300 0 z "},"Ỷ":{"ha":1047,"x_min":28,"x_max":1021,"o":"m 300 0 l 300 22 l 425 79 l 425 428 l 122 840 l 28 894 l 28 917 l 457 917 l 457 894 l 353 843 l 353 838 l 594 511 l 811 835 l 811 840 l 704 894 l 704 917 l 1021 917 l 1021 894 l 928 849 l 635 429 l 635 79 l 758 22 l 758 0 l 300 0 m 507 988 l 507 989 q 573 1018 551 1004 q 594 1058 594 1032 q 572 1094 594 1081 q 494 1119 550 1108 l 514 1215 q 646 1173 608 1207 q 683 1103 683 1139 q 642 1017 683 1047 q 521 975 601 986 l 507 988 z "},"Ẏ":{"ha":1047,"x_min":28,"x_max":1021,"o":"m 300 0 l 300 22 l 425 79 l 425 428 l 122 840 l 28 894 l 28 917 l 457 917 l 457 894 l 353 843 l 353 838 l 594 511 l 811 835 l 811 840 l 704 894 l 704 917 l 1021 917 l 1021 894 l 928 849 l 635 429 l 635 79 l 758 22 l 758 0 l 300 0 m 576 1001 q 503 1030 532 1001 q 475 1103 475 1058 q 503 1175 475 1146 q 576 1204 532 1204 q 649 1175 621 1204 q 678 1103 678 1146 q 649 1030 678 1058 q 576 1001 621 1001 z "},"Ź":{"ha":974,"x_min":117,"x_max":857,"o":"m 117 0 l 117 44 l 590 840 l 258 840 l 156 633 l 133 633 l 133 917 l 842 917 l 842 872 l 365 76 l 725 76 l 835 297 l 857 297 l 857 0 l 117 0 m 476 986 l 592 1197 l 744 1197 q 733 1147 744 1171 q 689 1101 722 1122 l 507 986 l 476 986 z "},"Ž":{"ha":974,"x_min":117,"x_max":857,"o":"m 117 0 l 117 44 l 590 840 l 258 840 l 156 633 l 133 633 l 133 917 l 842 917 l 842 872 l 365 76 l 725 76 l 835 297 l 857 297 l 857 0 l 117 0 m 460 986 l 271 1197 l 301 1197 l 493 1108 l 685 1197 l 715 1197 l 526 986 l 460 986 z "},"Ż":{"ha":974,"x_min":117,"x_max":857,"o":"m 117 0 l 117 44 l 590 840 l 258 840 l 156 633 l 133 633 l 133 917 l 842 917 l 842 872 l 365 76 l 725 76 l 835 297 l 857 297 l 857 0 l 117 0 m 493 1001 q 420 1030 449 1001 q 392 1103 392 1058 q 420 1175 392 1146 q 493 1204 449 1204 q 566 1175 538 1204 q 594 1103 594 1146 q 566 1030 594 1058 q 493 1001 538 1001 z "},"Ẓ":{"ha":974,"x_min":117,"x_max":857,"o":"m 117 0 l 117 44 l 590 840 l 258 840 l 156 633 l 133 633 l 133 917 l 842 917 l 842 872 l 365 76 l 725 76 l 835 297 l 857 297 l 857 0 l 117 0 z "},"Ə":{"ha":951,"x_min":68,"x_max":885,"o":"m 424 -12 q 164 98 258 -12 q 69 406 69 208 l 78 415 l 672 415 q 672 428 672 421 q 601 672 672 583 q 369 761 531 761 q 221 738 297 761 q 74 665 144 714 l 68 665 l 68 717 q 219 869 117 808 q 458 931 322 931 q 686 877 590 931 q 833 727 782 824 q 885 500 885 631 q 850 294 885 388 q 753 131 815 200 q 606 25 690 63 q 424 -12 522 -12 m 463 71 q 606 141 554 71 q 668 343 657 211 l 267 343 q 328 138 278 204 q 463 71 379 71 z "},"Ŋ":{"ha":1133,"x_min":58,"x_max":1075,"o":"m 58 0 l 58 22 l 176 79 l 176 836 l 58 894 l 58 917 l 322 917 l 861 308 l 861 839 l 703 894 l 703 917 l 1075 917 l 1075 894 l 958 838 l 958 -3 q 933 -178 958 -115 q 865 -275 908 -240 q 781 -319 831 -304 q 679 -335 732 -335 q 623 -326 635 -335 q 611 -294 611 -317 l 611 -199 l 618 -192 l 703 -192 q 826 -158 792 -192 q 861 -31 861 -124 l 861 8 l 274 661 l 274 79 l 432 22 l 432 0 l 58 0 z "},"Ð":{"ha":1114,"x_min":61,"x_max":1051,"o":"m 61 0 l 61 22 l 179 79 l 179 439 l 61 439 l 61 513 l 179 513 l 179 838 l 61 894 l 61 917 l 535 917 q 815 863 700 917 q 991 714 931 808 q 1051 500 1051 619 q 1012 300 1051 392 q 901 142 972 208 q 735 38 831 75 q 525 0 639 0 l 61 0 m 599 439 l 389 439 l 389 76 l 497 76 q 746 180 658 76 q 833 457 833 283 q 744 736 833 632 q 478 840 654 840 l 389 840 l 389 513 l 599 513 l 599 439 z "},"Þ":{"ha":950,"x_min":61,"x_max":904,"o":"m 61 0 l 61 22 l 179 79 l 179 838 l 61 894 l 61 917 l 507 917 l 507 894 l 389 838 l 389 739 l 542 739 q 805 680 706 739 q 904 492 904 621 q 852 355 904 414 q 711 263 800 296 q 508 231 622 231 l 389 231 l 389 79 l 507 22 l 507 0 l 61 0 m 447 661 l 389 661 l 389 297 l 456 297 q 629 349 567 297 q 692 478 692 400 q 628 618 692 575 q 447 661 564 661 z "},"Ǆ":{"ha":2076,"x_min":61,"x_max":1960,"o":"m 61 0 l 61 22 l 179 79 l 179 838 l 61 894 l 61 917 l 535 917 q 815 863 700 917 q 991 714 931 808 q 1051 500 1051 619 q 1012 300 1051 392 q 901 142 972 208 q 735 38 831 75 q 525 0 639 0 l 61 0 m 478 840 l 389 840 l 389 76 l 497 76 q 746 180 658 76 q 833 457 833 283 q 744 736 833 632 q 478 840 654 840 m 1219 0 l 1219 44 l 1693 840 l 1361 840 l 1258 633 l 1236 633 l 1236 917 l 1944 917 l 1944 872 l 1468 76 l 1828 76 l 1938 297 l 1960 297 l 1960 0 l 1219 0 m 1563 986 l 1374 1197 l 1404 1197 l 1596 1108 l 1788 1197 l 1818 1197 l 1629 986 l 1563 986 z "},"Ǉ":{"ha":1493,"x_min":61,"x_max":1429,"o":"m 61 0 l 61 22 l 179 79 l 179 838 l 61 894 l 61 917 l 521 917 l 521 894 l 389 838 l 389 76 l 694 76 l 807 339 l 829 339 l 829 0 l 61 0 m 974 -240 q 942 -231 954 -240 q 929 -200 929 -222 q 934 -163 929 -187 q 947 -97 939 -139 l 960 -97 q 992 -106 979 -103 q 1019 -108 1004 -108 q 1063 -97 1044 -108 q 1092 -47 1082 -85 q 1101 69 1101 -8 l 1101 838 l 983 894 l 983 917 l 1429 917 l 1429 894 l 1311 838 l 1311 340 q 1285 143 1311 233 q 1222 -15 1260 53 q 1149 -124 1185 -83 q 1060 -210 1100 -181 q 974 -240 1019 -240 z "},"Ǌ":{"ha":1717,"x_min":58,"x_max":1653,"o":"m 58 0 l 58 22 l 176 79 l 176 836 l 58 894 l 58 917 l 322 917 l 861 308 l 861 839 l 703 894 l 703 917 l 1075 917 l 1075 894 l 958 838 l 958 -7 l 872 -7 l 274 663 l 274 79 l 432 22 l 432 0 l 58 0 m 1197 -240 q 1165 -231 1178 -240 q 1153 -200 1153 -222 q 1158 -163 1153 -187 q 1171 -97 1163 -139 l 1183 -97 q 1215 -106 1203 -103 q 1243 -108 1228 -108 q 1287 -97 1268 -108 q 1315 -47 1306 -85 q 1325 69 1325 -8 l 1325 838 l 1207 894 l 1207 917 l 1653 917 l 1653 894 l 1535 838 l 1535 340 q 1509 143 1535 233 q 1446 -15 1483 53 q 1372 -124 1408 -83 q 1283 -210 1324 -181 q 1197 -240 1243 -240 z "},"Ђ":{"ha":1139,"x_min":42,"x_max":1067,"o":"m 207 0 l 207 22 l 354 79 l 354 840 l 175 840 l 64 638 l 42 638 l 42 917 l 910 917 l 910 660 l 888 660 l 776 840 l 564 840 l 564 463 q 670 530 606 501 q 822 558 735 558 q 1006 489 944 558 q 1067 285 1067 419 q 1042 115 1067 194 q 983 -27 1018 35 q 915 -125 947 -89 q 822 -211 867 -182 q 731 -240 778 -240 q 699 -231 711 -240 q 686 -200 686 -222 q 704 -97 686 -178 l 715 -97 q 748 -106 736 -103 q 775 -108 760 -108 q 819 -97 800 -108 q 848 -47 838 -85 q 858 69 858 -8 l 858 247 q 824 385 858 339 q 701 431 789 431 q 625 419 660 431 q 564 389 590 408 l 564 79 l 692 22 l 692 0 l 207 0 z "},"Є":{"ha":988,"x_min":68,"x_max":890,"o":"m 554 -14 q 299 46 408 -14 q 128 208 189 106 q 68 439 68 310 q 110 632 68 543 q 223 788 151 721 q 385 893 294 856 q 576 931 476 931 q 699 922 650 931 q 786 899 747 914 q 864 864 825 883 l 879 604 l 854 604 l 722 819 q 657 851 688 842 q 583 861 626 861 q 442 818 506 861 q 339 697 379 775 q 289 511 299 618 l 553 511 l 631 631 l 653 631 l 653 318 l 631 318 l 553 435 l 286 435 q 327 234 289 318 q 428 105 365 150 q 571 60 492 60 q 663 73 622 60 q 742 107 704 86 l 867 293 l 890 293 l 871 58 q 734 6 814 25 q 554 -14 654 -14 z "},"Ѕ":{"ha":794,"x_min":65,"x_max":728,"o":"m 376 -14 q 215 5 285 -14 q 79 57 144 24 l 65 292 l 90 292 l 189 121 q 270 74 226 90 q 360 57 314 57 q 482 92 435 57 q 529 197 529 128 q 508 275 529 244 q 436 333 486 306 q 299 399 386 360 q 147 501 200 442 q 94 650 94 561 q 123 756 94 706 q 199 847 151 807 q 306 908 247 886 q 428 931 365 931 q 564 914 499 931 q 685 867 629 897 l 699 644 l 675 644 l 578 801 q 508 844 542 829 q 431 858 474 858 q 336 822 374 858 q 299 726 299 786 q 340 633 299 669 q 482 550 381 596 q 668 431 608 492 q 728 269 728 369 q 676 117 728 181 q 544 19 625 53 q 376 -14 464 -14 z "},"І":{"ha":574,"x_min":64,"x_max":510,"o":"m 64 0 l 64 22 l 182 79 l 182 838 l 64 894 l 64 917 l 510 917 l 510 894 l 392 838 l 392 79 l 510 22 l 510 0 l 64 0 z "},"Ї":{"ha":574,"x_min":64,"x_max":510,"o":"m 64 0 l 64 22 l 182 79 l 182 838 l 64 894 l 64 917 l 510 917 l 510 894 l 392 838 l 392 79 l 510 22 l 510 0 l 64 0 m 150 1010 q 92 1033 115 1010 q 69 1090 69 1057 q 92 1149 69 1125 q 150 1172 115 1172 q 208 1149 185 1172 q 231 1090 231 1125 q 208 1033 231 1057 q 150 1010 185 1010 m 425 1010 q 367 1033 390 1010 q 344 1090 344 1057 q 367 1149 344 1125 q 425 1172 390 1172 q 483 1149 460 1172 q 506 1090 506 1125 q 483 1033 506 1057 q 425 1010 460 1010 z "},"Ј":{"ha":600,"x_min":36,"x_max":536,"o":"m 81 -240 q 49 -231 61 -240 q 36 -200 36 -222 q 41 -163 36 -187 q 54 -97 46 -139 l 67 -97 q 99 -106 86 -103 q 126 -108 111 -108 q 170 -97 151 -108 q 199 -47 189 -85 q 208 69 208 -8 l 208 838 l 90 894 l 90 917 l 536 917 l 536 894 l 418 838 l 418 340 q 392 143 418 233 q 329 -15 367 53 q 256 -124 292 -83 q 167 -210 207 -181 q 81 -240 126 -240 z "},"Љ":{"ha":1375,"x_min":25,"x_max":1340,"o":"m 340 744 q 332 448 340 567 q 308 255 324 329 q 272 135 292 181 q 207 39 242 71 q 137 -3 172 7 q 72 -14 101 -14 q 33 -6 42 -14 q 25 26 25 3 l 25 133 l 32 140 l 44 140 q 199 282 149 140 q 249 742 249 424 l 249 838 l 131 894 l 131 917 l 951 917 l 951 894 l 806 838 l 806 546 l 939 546 q 1147 515 1057 546 q 1289 424 1238 483 q 1340 282 1340 364 q 1289 134 1340 197 q 1147 35 1238 71 q 938 0 1056 0 l 476 0 l 476 22 l 596 79 l 596 840 l 340 840 l 340 744 m 893 469 l 806 469 l 806 76 l 903 76 q 1068 133 1010 76 q 1126 275 1126 189 q 893 469 1126 469 z "},"Њ":{"ha":1531,"x_min":61,"x_max":1496,"o":"m 61 0 l 61 22 l 179 79 l 179 838 l 61 894 l 61 917 l 497 917 l 497 894 l 389 838 l 389 524 l 751 524 l 751 838 l 633 894 l 633 917 l 1107 917 l 1107 894 l 961 838 l 961 524 l 1094 524 q 1303 494 1213 524 q 1444 407 1393 464 q 1496 268 1496 350 q 1444 124 1496 183 q 1302 32 1393 64 q 1093 0 1211 0 l 633 0 l 633 22 l 751 79 l 751 447 l 389 447 l 389 79 l 497 22 l 497 0 l 61 0 m 1049 447 l 961 447 l 961 76 l 1058 76 q 1224 126 1167 76 q 1282 261 1282 175 q 1224 403 1282 358 q 1049 447 1165 447 z "},"Ћ":{"ha":1206,"x_min":42,"x_max":1183,"o":"m 207 0 l 207 22 l 354 79 l 354 840 l 175 840 l 64 638 l 42 638 l 42 917 l 910 917 l 910 651 l 888 651 l 776 840 l 564 840 l 564 463 q 670 530 606 501 q 819 558 735 558 q 1006 488 946 558 q 1067 294 1067 418 l 1067 79 l 1183 22 l 1183 0 l 858 0 l 858 247 q 824 383 858 336 q 701 431 789 431 q 625 419 660 431 q 564 389 590 408 l 564 79 l 692 22 l 692 0 l 207 0 z "},"Џ":{"ha":1128,"x_min":61,"x_max":1067,"o":"m 478 0 l 61 0 l 61 22 l 178 79 l 178 838 l 61 894 l 61 917 l 493 917 l 493 894 l 388 838 l 388 76 l 739 76 l 739 838 l 633 894 l 633 917 l 1067 917 l 1067 894 l 947 838 l 947 79 l 1067 22 l 1067 0 l 650 0 l 575 -239 l 553 -239 l 478 0 z "},"А":{"ha":1075,"x_min":26,"x_max":1049,"o":"m 26 0 l 26 22 l 111 69 l 474 924 l 596 924 l 954 72 l 1049 22 l 1049 0 l 610 0 l 610 22 l 731 72 l 636 303 l 307 303 l 213 72 l 328 22 l 328 0 l 26 0 m 339 379 l 604 379 l 472 703 l 339 379 z "},"Б":{"ha":969,"x_min":61,"x_max":924,"o":"m 522 0 l 61 0 l 61 22 l 179 79 l 179 838 l 61 894 l 61 917 l 829 917 l 829 660 l 807 660 l 700 840 l 389 840 l 389 529 l 522 529 q 731 501 640 529 q 872 417 821 472 q 924 278 924 361 q 872 131 924 193 q 731 34 821 68 q 522 0 640 0 m 476 461 l 389 461 l 389 76 l 486 76 q 652 131 594 76 q 710 271 710 185 q 651 415 710 369 q 476 461 593 461 z "},"В":{"ha":981,"x_min":61,"x_max":935,"o":"m 61 0 l 61 22 l 179 79 l 179 838 l 61 894 l 61 917 l 506 917 q 684 894 606 917 q 808 826 763 871 q 853 711 853 781 q 799 581 853 640 q 646 497 746 521 q 858 419 781 479 q 935 267 935 358 q 883 130 935 190 q 742 35 832 69 q 539 0 653 0 l 61 0 m 436 840 l 389 840 l 389 507 l 444 507 q 588 551 536 507 q 639 669 639 594 q 436 840 639 840 m 485 439 l 389 439 l 389 76 l 494 76 q 655 128 597 76 q 713 260 713 179 q 653 395 713 351 q 485 439 594 439 z "},"Г":{"ha":857,"x_min":61,"x_max":804,"o":"m 61 0 l 61 22 l 179 79 l 179 838 l 61 894 l 61 917 l 804 917 l 804 676 l 782 676 l 679 840 l 389 840 l 389 79 l 531 22 l 531 0 l 61 0 z "},"Ѓ":{"ha":857,"x_min":61,"x_max":804,"o":"m 61 0 l 61 22 l 179 79 l 179 838 l 61 894 l 61 917 l 804 917 l 804 676 l 782 676 l 679 840 l 389 840 l 389 79 l 531 22 l 531 0 l 61 0 z "},"Ғ":{"ha":857,"x_min":61,"x_max":804,"o":"m 61 0 l 61 22 l 179 79 l 179 439 l 61 439 l 61 513 l 179 513 l 179 838 l 61 894 l 61 917 l 804 917 l 804 676 l 782 676 l 679 840 l 389 840 l 389 513 l 622 513 l 622 439 l 389 439 l 389 79 l 531 22 l 531 0 l 61 0 z "},"Д":{"ha":1022,"x_min":22,"x_max":967,"o":"m 125 894 l 125 917 l 946 917 l 946 894 l 829 838 l 829 76 l 967 76 l 967 -239 l 944 -239 l 811 0 l 178 0 l 44 -239 l 22 -239 l 22 76 l 136 76 q 203 300 181 188 q 233 536 225 413 q 242 801 242 660 l 242 838 l 125 894 m 619 76 l 619 840 l 333 840 l 333 803 q 326 534 333 657 q 297 299 318 411 q 238 76 276 188 l 619 76 z "},"Е":{"ha":946,"x_min":61,"x_max":857,"o":"m 61 0 l 61 22 l 179 79 l 179 838 l 61 894 l 61 917 l 818 917 l 818 676 l 796 676 l 693 840 l 389 840 l 389 511 l 603 511 l 681 631 l 703 631 l 703 318 l 681 318 l 603 435 l 389 435 l 389 76 l 726 76 l 835 283 l 857 283 l 857 0 l 61 0 z "},"Ё":{"ha":946,"x_min":61,"x_max":857,"o":"m 61 0 l 61 22 l 179 79 l 179 838 l 61 894 l 61 917 l 818 917 l 818 676 l 796 676 l 693 840 l 389 840 l 389 511 l 603 511 l 681 631 l 703 631 l 703 318 l 681 318 l 603 435 l 389 435 l 389 76 l 726 76 l 835 283 l 857 283 l 857 0 l 61 0 m 354 1010 q 297 1033 319 1010 q 274 1090 274 1057 q 297 1149 274 1125 q 354 1172 319 1172 q 412 1149 389 1172 q 435 1090 435 1125 q 412 1033 435 1057 q 354 1010 389 1010 m 629 1010 q 572 1033 594 1010 q 549 1090 549 1057 q 572 1149 549 1125 q 629 1172 594 1172 q 687 1149 664 1172 q 710 1090 710 1125 q 687 1033 710 1057 q 629 1010 664 1010 z "},"Ж":{"ha":1521,"x_min":11,"x_max":1510,"o":"m 543 0 l 543 22 l 653 79 l 653 838 l 543 894 l 543 917 l 972 917 l 972 894 l 863 838 l 863 79 l 972 22 l 972 0 l 543 0 m 864 463 l 1224 843 l 1118 894 l 1118 917 l 1451 917 l 1451 894 l 1342 849 l 1050 549 l 1414 63 l 1510 22 l 1510 0 l 1206 0 l 864 463 m 653 463 l 311 0 l 11 0 l 11 22 l 119 67 l 468 536 l 163 851 l 57 894 l 57 917 l 397 917 l 397 894 l 293 843 l 653 463 z "},"З":{"ha":900,"x_min":96,"x_max":839,"o":"m 439 931 q 611 907 533 931 q 735 836 689 883 q 781 719 781 789 q 726 583 781 646 q 568 493 671 519 q 767 415 694 475 q 839 268 839 356 q 786 122 839 186 q 641 22 733 58 q 429 -14 549 -14 q 251 6 331 -14 q 115 58 172 25 l 96 293 l 119 293 l 258 97 q 326 72 290 81 q 410 63 361 63 q 563 115 508 63 q 617 257 617 167 q 383 435 617 435 l 281 435 l 281 511 l 369 511 q 516 557 464 511 q 568 685 568 603 q 528 815 568 768 q 406 861 488 861 q 285 826 335 861 l 150 607 l 125 607 l 140 865 q 221 901 181 886 q 314 923 261 915 q 439 931 367 931 z "},"И":{"ha":1175,"x_min":61,"x_max":1114,"o":"m 61 0 l 61 22 l 179 79 l 179 838 l 61 894 l 61 917 l 497 917 l 497 894 l 389 838 l 389 253 l 788 775 l 788 838 l 676 894 l 676 917 l 1114 917 l 1114 894 l 997 838 l 997 79 l 1114 22 l 1114 0 l 676 0 l 676 22 l 788 79 l 788 661 l 389 139 l 389 79 l 497 22 l 497 0 l 61 0 z "},"Й":{"ha":1175,"x_min":61,"x_max":1114,"o":"m 61 0 l 61 22 l 179 79 l 179 838 l 61 894 l 61 917 l 497 917 l 497 894 l 389 838 l 389 253 l 788 775 l 788 838 l 676 894 l 676 917 l 1114 917 l 1114 894 l 997 838 l 997 79 l 1114 22 l 1114 0 l 676 0 l 676 22 l 788 79 l 788 661 l 389 139 l 389 79 l 497 22 l 497 0 l 61 0 m 588 988 q 402 1048 465 988 q 339 1197 339 1108 l 475 1197 q 501 1084 475 1128 q 588 1040 528 1040 q 674 1084 647 1040 q 700 1197 700 1128 l 836 1197 q 773 1048 836 1108 q 588 988 710 988 z "},"Ӣ":{"ha":1175,"x_min":61,"x_max":1114,"o":"m 61 0 l 61 22 l 179 79 l 179 838 l 61 894 l 61 917 l 497 917 l 497 894 l 389 838 l 389 253 l 788 775 l 788 838 l 676 894 l 676 917 l 1114 917 l 1114 894 l 997 838 l 997 79 l 1114 22 l 1114 0 l 676 0 l 676 22 l 788 79 l 788 661 l 389 139 l 389 79 l 497 22 l 497 0 l 61 0 z "},"К":{"ha":1075,"x_min":61,"x_max":1064,"o":"m 61 0 l 61 22 l 179 79 l 179 838 l 61 894 l 61 917 l 507 917 l 507 894 l 389 838 l 389 79 l 507 22 l 507 0 l 61 0 m 389 463 l 769 843 l 667 894 l 667 917 l 994 917 l 994 894 l 903 856 l 581 546 l 967 63 l 1064 22 l 1064 0 l 756 0 l 389 463 z "},"Ќ":{"ha":1075,"x_min":61,"x_max":1064,"o":"m 61 0 l 61 22 l 179 79 l 179 838 l 61 894 l 61 917 l 507 917 l 507 894 l 389 838 l 389 79 l 507 22 l 507 0 l 61 0 m 389 463 l 769 843 l 667 894 l 667 917 l 994 917 l 994 894 l 903 856 l 581 546 l 967 63 l 1064 22 l 1064 0 l 756 0 l 389 463 z "},"Л":{"ha":1007,"x_min":25,"x_max":947,"o":"m 503 0 l 503 22 l 621 79 l 621 840 l 340 840 l 340 744 q 332 448 340 567 q 308 255 324 329 q 272 135 292 181 q 207 39 242 71 q 137 -3 172 7 q 72 -14 101 -14 q 33 -6 42 -14 q 25 26 25 3 l 25 133 l 32 140 l 44 140 q 199 282 149 140 q 249 742 249 424 l 249 838 l 131 894 l 131 917 l 947 917 l 947 894 l 829 838 l 829 79 l 947 22 l 947 0 l 503 0 z "},"М":{"ha":1382,"x_min":58,"x_max":1325,"o":"m 58 0 l 58 22 l 176 79 l 206 838 l 83 894 l 83 917 l 428 917 l 707 271 l 983 917 l 1317 917 l 1317 894 l 1196 851 l 1219 79 l 1325 22 l 1325 0 l 904 0 l 904 22 l 1015 78 l 1001 738 l 685 -7 l 607 -7 l 288 735 l 269 78 l 390 22 l 390 0 l 58 0 z "},"Н":{"ha":1161,"x_min":61,"x_max":1100,"o":"m 61 0 l 61 22 l 179 79 l 179 838 l 61 894 l 61 917 l 497 917 l 497 894 l 389 838 l 389 510 l 774 510 l 774 838 l 663 894 l 663 917 l 1100 917 l 1100 894 l 983 838 l 983 79 l 1100 22 l 1100 0 l 663 0 l 663 22 l 774 79 l 774 433 l 389 433 l 389 79 l 497 22 l 497 0 l 61 0 z "},"О":{"ha":1096,"x_min":68,"x_max":1028,"o":"m 547 -14 q 357 22 444 -14 q 205 120 269 57 q 104 269 140 183 q 68 458 68 356 q 104 647 68 561 q 205 797 140 733 q 357 895 269 860 q 547 931 444 931 q 739 895 651 931 q 891 797 826 860 q 992 647 956 733 q 1028 458 1028 561 q 992 269 1028 356 q 891 120 956 183 q 739 22 826 57 q 547 -14 651 -14 m 569 58 q 692 103 639 58 q 776 228 746 147 q 806 417 806 308 q 769 650 806 550 q 669 805 732 750 q 529 860 607 860 q 406 816 460 860 q 320 692 351 772 q 289 503 289 611 q 326 269 289 369 q 428 114 364 169 q 569 58 492 58 z "},"П":{"ha":1128,"x_min":61,"x_max":1067,"o":"m 61 0 l 61 22 l 179 79 l 179 838 l 61 894 l 61 917 l 1067 917 l 1067 894 l 950 838 l 950 79 l 1067 22 l 1067 0 l 636 0 l 636 22 l 740 79 l 740 840 l 389 840 l 389 79 l 493 22 l 493 0 l 61 0 z "},"Р":{"ha":950,"x_min":61,"x_max":904,"o":"m 61 0 l 61 22 l 179 79 l 179 838 l 61 894 l 61 917 l 542 917 q 805 858 706 917 q 904 669 904 799 q 852 533 904 592 q 711 441 800 474 q 508 408 622 408 l 389 408 l 389 79 l 531 22 l 531 0 l 61 0 m 389 840 l 389 476 l 456 476 q 629 528 567 476 q 692 657 692 579 q 628 797 692 754 q 447 840 564 840 l 389 840 z "},"С":{"ha":988,"x_min":68,"x_max":890,"o":"m 554 -14 q 299 46 408 -14 q 128 208 189 106 q 68 439 68 310 q 110 632 68 543 q 223 788 151 721 q 385 893 294 856 q 576 931 476 931 q 699 922 650 931 q 786 899 747 914 q 864 864 825 883 l 879 604 l 854 604 l 722 819 q 657 851 688 842 q 583 861 626 861 q 431 810 499 861 q 325 667 364 760 q 286 453 286 575 q 324 244 286 332 q 426 108 361 156 q 571 60 490 60 q 663 73 622 60 q 742 107 704 86 l 867 293 l 890 293 l 871 58 q 734 6 814 25 q 554 -14 654 -14 z "},"Т":{"ha":974,"x_min":50,"x_max":924,"o":"m 235 0 l 235 22 l 382 79 l 382 840 l 183 840 l 72 611 l 50 611 l 50 917 l 924 917 l 924 611 l 901 611 l 790 840 l 592 840 l 592 79 l 739 22 l 739 0 l 235 0 z "},"У":{"ha":1024,"x_min":26,"x_max":1022,"o":"m 496 89 q 394 4 440 22 q 301 -14 349 -14 q 262 -6 269 -14 q 254 26 254 3 l 254 133 l 263 140 l 289 140 q 397 157 356 140 q 476 217 439 174 l 131 836 l 26 894 l 26 917 l 460 917 l 460 894 l 349 842 l 585 415 l 603 415 l 836 843 l 725 894 l 725 917 l 1022 917 l 1022 894 l 938 847 l 632 301 q 590 227 614 268 q 540 149 565 186 q 496 89 514 111 z "},"Ў":{"ha":1024,"x_min":26,"x_max":1022,"o":"m 496 89 q 394 4 440 22 q 301 -14 349 -14 q 262 -6 269 -14 q 254 26 254 3 l 254 133 l 263 140 l 289 140 q 397 157 356 140 q 476 217 439 174 l 131 836 l 26 894 l 26 917 l 460 917 l 460 894 l 349 842 l 585 415 l 603 415 l 836 843 l 725 894 l 725 917 l 1022 917 l 1022 894 l 938 847 l 632 301 q 590 227 614 268 q 540 149 565 186 q 496 89 514 111 m 586 988 q 401 1048 464 988 q 338 1197 338 1108 l 474 1197 q 500 1084 474 1128 q 586 1040 526 1040 q 672 1084 646 1040 q 699 1197 699 1128 l 835 1197 q 772 1048 835 1108 q 586 988 708 988 z "},"Ӯ":{"ha":1024,"x_min":26,"x_max":1022,"o":"m 496 89 q 394 4 440 22 q 301 -14 349 -14 q 262 -6 269 -14 q 254 26 254 3 l 254 133 l 263 140 l 289 140 q 397 157 356 140 q 476 217 439 174 l 131 836 l 26 894 l 26 917 l 460 917 l 460 894 l 349 842 l 585 415 l 603 415 l 836 843 l 725 894 l 725 917 l 1022 917 l 1022 894 l 938 847 l 632 301 q 590 227 614 268 q 540 149 565 186 q 496 89 514 111 z "},"Ф":{"ha":1242,"x_min":33,"x_max":1208,"o":"m 400 -28 l 400 -6 l 519 51 l 519 111 q 258 158 367 114 q 91 276 149 201 q 33 444 33 350 q 91 624 33 543 q 258 753 149 704 q 519 806 367 803 l 519 865 l 400 922 l 400 944 l 847 944 l 847 922 l 728 865 l 728 806 q 990 758 882 801 q 1153 640 1097 714 q 1208 472 1208 565 q 1153 293 1208 374 q 990 164 1097 213 q 728 111 882 115 l 728 51 l 847 -6 l 847 -28 l 400 -28 m 519 735 q 325 667 396 735 q 254 489 254 599 q 327 278 254 358 q 519 185 400 197 l 519 735 m 990 431 q 920 640 990 560 q 728 733 850 721 l 728 183 q 924 252 858 183 q 990 431 990 321 z "},"Х":{"ha":1083,"x_min":36,"x_max":1047,"o":"m 36 0 l 36 22 l 146 78 l 435 432 l 144 843 l 53 894 l 53 917 l 511 917 l 511 894 l 401 840 l 401 833 l 590 572 l 799 833 l 799 839 l 690 894 l 690 917 l 1017 917 l 1017 894 l 924 846 l 640 503 l 949 78 l 1047 22 l 1047 0 l 582 0 l 582 22 l 682 75 l 682 81 l 485 361 l 261 82 l 258 76 l 369 22 l 369 0 l 36 0 z "},"Ц":{"ha":1140,"x_min":61,"x_max":1085,"o":"m 929 0 l 61 0 l 61 22 l 178 79 l 178 838 l 61 894 l 61 917 l 492 917 l 492 894 l 388 838 l 388 76 l 739 76 l 739 838 l 633 894 l 633 917 l 1067 917 l 1067 894 l 947 838 l 947 76 l 1085 76 l 1085 -239 l 1063 -239 l 929 0 z "},"Ч":{"ha":1083,"x_min":18,"x_max":1022,"o":"m 563 0 l 563 22 l 696 79 l 696 421 q 585 386 649 400 q 449 372 522 372 q 283 399 353 372 q 175 492 213 425 q 138 678 138 558 l 138 836 l 18 894 l 18 917 l 456 917 l 456 894 l 347 836 l 347 669 q 390 509 347 553 q 536 465 433 465 q 617 472 575 465 q 696 494 658 478 l 696 836 l 586 894 l 586 917 l 1022 917 l 1022 894 l 906 836 l 906 79 l 1022 22 l 1022 0 l 563 0 z "},"Ш":{"ha":1528,"x_min":61,"x_max":1467,"o":"m 483 917 l 483 894 l 388 838 l 388 76 l 658 76 l 658 838 l 563 894 l 563 917 l 964 917 l 964 894 l 868 838 l 868 76 l 1139 76 l 1139 838 l 1049 894 l 1049 917 l 1467 917 l 1467 894 l 1349 838 l 1349 79 l 1467 22 l 1467 0 l 61 0 l 61 22 l 178 79 l 178 838 l 61 894 l 61 917 l 483 917 z "},"Щ":{"ha":1542,"x_min":61,"x_max":1486,"o":"m 483 917 l 483 894 l 388 838 l 388 76 l 658 76 l 658 838 l 563 894 l 563 917 l 964 917 l 964 894 l 868 838 l 868 76 l 1139 76 l 1139 838 l 1049 894 l 1049 917 l 1467 917 l 1467 894 l 1349 838 l 1349 76 l 1486 76 l 1486 -239 l 1464 -239 l 1331 0 l 61 0 l 61 22 l 178 79 l 178 838 l 61 894 l 61 917 l 483 917 z "},"Ъ":{"ha":1086,"x_min":39,"x_max":1051,"o":"m 650 0 l 189 0 l 189 22 l 307 79 l 307 840 l 172 840 l 61 611 l 39 611 l 39 917 l 664 917 l 664 894 l 517 838 l 517 546 l 650 546 q 860 515 769 546 q 1001 424 950 483 q 1051 282 1051 364 q 1000 134 1051 197 q 858 35 949 71 q 650 0 768 0 m 604 469 l 517 469 l 517 76 l 614 76 q 780 133 722 76 q 838 275 838 189 q 604 469 838 469 z "},"Ы":{"ha":1532,"x_min":61,"x_max":1468,"o":"m 522 0 l 61 0 l 61 22 l 179 79 l 179 838 l 61 894 l 61 917 l 535 917 l 535 894 l 389 838 l 389 546 l 522 546 q 731 515 640 546 q 872 424 821 483 q 924 282 924 364 q 872 134 924 197 q 731 35 821 71 q 522 0 640 0 m 476 469 l 389 469 l 389 76 l 486 76 q 652 133 594 76 q 710 275 710 189 q 476 469 710 469 m 1022 0 l 1022 22 l 1140 79 l 1140 838 l 1022 894 l 1022 917 l 1468 917 l 1468 894 l 1350 838 l 1350 79 l 1468 22 l 1468 0 l 1022 0 z "},"Ь":{"ha":958,"x_min":61,"x_max":924,"o":"m 522 0 l 61 0 l 61 22 l 179 79 l 179 838 l 61 894 l 61 917 l 535 917 l 535 894 l 389 838 l 389 546 l 522 546 q 731 515 640 546 q 872 424 821 483 q 924 282 924 364 q 872 134 924 197 q 731 35 821 71 q 522 0 640 0 m 476 469 l 389 469 l 389 76 l 486 76 q 652 133 594 76 q 710 275 710 189 q 476 469 710 469 z "},"Э":{"ha":993,"x_min":96,"x_max":925,"o":"m 428 60 q 631 156 558 60 q 703 417 703 253 q 703 436 703 426 l 435 436 l 357 318 l 335 318 l 335 631 l 357 631 l 435 513 l 697 513 q 601 766 678 672 q 413 860 524 860 q 341 852 372 860 q 278 825 310 844 l 143 607 l 118 607 l 133 865 q 264 913 193 894 q 444 931 335 931 q 636 895 549 931 q 788 797 724 860 q 889 647 853 733 q 925 458 925 561 q 863 215 925 322 q 693 47 801 108 q 444 -14 585 -14 q 258 6 343 -14 q 115 58 172 25 l 96 293 l 119 293 l 244 108 q 327 73 282 86 q 428 60 372 60 z "},"Ю":{"ha":1515,"x_min":61,"x_max":1449,"o":"m 61 0 l 61 22 l 179 79 l 179 838 l 61 894 l 61 917 l 497 917 l 497 894 l 389 838 l 389 510 l 518 510 q 592 727 529 632 q 756 876 656 822 q 981 931 857 931 q 1166 895 1081 931 q 1315 797 1251 860 q 1413 647 1378 733 q 1449 458 1449 561 q 1413 269 1449 356 q 1315 120 1378 183 q 1166 22 1251 57 q 981 -14 1081 -14 q 749 44 851 -14 q 584 203 646 101 q 515 433 522 304 l 389 433 l 389 79 l 497 22 l 497 0 l 61 0 m 1004 58 q 1120 103 1069 58 q 1199 228 1171 147 q 1226 417 1226 308 q 1191 650 1226 550 q 1096 805 1156 750 q 963 860 1036 860 q 847 816 897 860 q 767 692 796 772 q 738 503 738 611 q 773 269 738 369 q 869 114 808 169 q 1004 58 931 58 z "},"Я":{"ha":1050,"x_min":32,"x_max":989,"o":"m 325 0 l 32 0 l 32 22 l 132 78 l 379 432 q 209 519 263 458 q 156 657 156 579 q 255 849 156 781 q 542 917 354 917 l 989 917 l 989 894 l 871 838 l 871 79 l 989 22 l 989 0 l 554 0 l 554 22 l 661 81 l 661 403 l 585 403 l 325 0 m 590 471 l 661 471 l 661 840 l 596 840 q 426 793 485 840 q 367 660 367 746 q 424 524 367 576 q 590 471 481 471 z "},"Ґ":{"ha":815,"x_min":61,"x_max":804,"o":"m 61 0 l 61 22 l 179 79 l 179 838 l 61 894 l 61 917 l 649 917 l 782 1156 l 804 1156 l 804 840 l 389 840 l 389 79 l 531 22 l 531 0 l 61 0 z "},"Қ":{"ha":1081,"x_min":61,"x_max":1075,"o":"m 61 0 l 61 22 l 179 79 l 179 838 l 61 894 l 61 917 l 507 917 l 507 894 l 389 838 l 389 79 l 507 22 l 507 0 l 61 0 m 389 463 l 769 843 l 667 894 l 667 917 l 994 917 l 994 894 l 903 856 l 581 546 l 956 76 l 1075 76 l 1075 -239 l 1053 -239 l 919 0 l 756 0 l 389 463 z "},"Җ":{"ha":1528,"x_min":11,"x_max":1521,"o":"m 543 0 l 543 22 l 653 79 l 653 838 l 543 894 l 543 917 l 972 917 l 972 894 l 863 838 l 863 79 l 972 22 l 972 0 l 543 0 m 864 463 l 1224 843 l 1118 894 l 1118 917 l 1451 917 l 1451 894 l 1342 849 l 1050 549 l 1403 76 l 1521 76 l 1521 -239 l 1499 -239 l 1365 0 l 1206 0 l 864 463 m 653 463 l 311 0 l 11 0 l 11 22 l 119 67 l 468 536 l 163 851 l 57 894 l 57 917 l 397 917 l 397 894 l 293 843 l 653 463 z "},"Ҳ":{"ha":1079,"x_min":36,"x_max":1060,"o":"m 36 0 l 36 22 l 146 78 l 435 432 l 144 843 l 53 894 l 53 917 l 511 917 l 511 894 l 401 840 l 401 833 l 590 572 l 799 833 l 799 839 l 690 894 l 690 917 l 1017 917 l 1017 894 l 924 846 l 640 503 l 950 76 l 1060 76 l 1060 -239 l 1038 -239 l 904 0 l 582 0 l 582 22 l 682 75 l 682 81 l 485 361 l 261 82 l 258 76 l 369 22 l 369 0 l 36 0 z "},"Ң":{"ha":1175,"x_min":61,"x_max":1119,"o":"m 61 0 l 61 22 l 179 79 l 179 838 l 61 894 l 61 917 l 497 917 l 497 894 l 389 838 l 389 510 l 774 510 l 774 838 l 663 894 l 663 917 l 1100 917 l 1100 894 l 983 838 l 983 76 l 1119 76 l 1119 -239 l 1097 -239 l 964 0 l 663 0 l 663 22 l 774 79 l 774 433 l 389 433 l 389 79 l 497 22 l 497 0 l 61 0 z "},"Ҷ":{"ha":1097,"x_min":18,"x_max":1043,"o":"m 138 678 l 138 836 l 18 894 l 18 917 l 456 917 l 456 894 l 347 836 l 347 669 q 390 509 347 553 q 536 465 433 465 q 617 472 575 465 q 696 494 658 478 l 696 836 l 586 894 l 586 917 l 1022 917 l 1022 894 l 906 836 l 906 76 l 1043 76 l 1043 -239 l 1021 -239 l 886 0 l 563 0 l 563 22 l 696 79 l 696 421 q 585 386 649 400 q 449 372 522 372 q 283 399 353 372 q 175 492 213 425 q 138 678 138 558 z "},"Ү":{"ha":1047,"x_min":28,"x_max":1021,"o":"m 300 0 l 300 22 l 425 79 l 425 428 l 122 840 l 28 894 l 28 917 l 457 917 l 457 894 l 353 843 l 353 838 l 594 511 l 811 835 l 811 840 l 704 894 l 704 917 l 1021 917 l 1021 894 l 928 849 l 635 429 l 635 79 l 758 22 l 758 0 l 300 0 z "},"Ұ":{"ha":1047,"x_min":28,"x_max":1021,"o":"m 300 0 l 300 22 l 425 79 l 425 354 l 226 354 l 226 428 l 425 428 l 425 428 l 122 840 l 28 894 l 28 917 l 457 917 l 457 894 l 353 843 l 353 838 l 594 511 l 811 835 l 811 840 l 704 894 l 704 917 l 1021 917 l 1021 894 l 928 849 l 635 429 l 635 428 l 832 428 l 832 354 l 635 354 l 635 79 l 758 22 l 758 0 l 300 0 z "},"Һ":{"ha":1083,"x_min":61,"x_max":1065,"o":"m 521 917 l 521 894 l 388 838 l 388 496 q 498 531 435 517 q 635 544 561 544 q 801 518 731 544 q 908 425 871 492 q 946 239 946 358 l 946 81 l 1065 22 l 1065 0 l 628 0 l 628 22 l 736 81 l 736 247 q 693 408 736 364 q 547 451 650 451 q 467 445 508 451 q 388 422 425 439 l 388 81 l 497 22 l 497 0 l 61 0 l 61 22 l 178 81 l 178 838 l 61 894 l 61 917 l 521 917 z "},"Ӏ":{"ha":574,"x_min":64,"x_max":510,"o":"m 64 0 l 64 22 l 182 79 l 182 838 l 64 894 l 64 917 l 510 917 l 510 894 l 392 838 l 392 79 l 510 22 l 510 0 l 64 0 z "},"Ә":{"ha":951,"x_min":68,"x_max":885,"o":"m 424 -12 q 164 98 258 -12 q 69 406 69 208 l 78 415 l 672 415 q 672 428 672 421 q 601 672 672 583 q 369 761 531 761 q 221 738 297 761 q 74 665 144 714 l 68 665 l 68 717 q 219 869 117 808 q 458 931 322 931 q 686 877 590 931 q 833 727 782 824 q 885 500 885 631 q 850 294 885 388 q 753 131 815 200 q 606 25 690 63 q 424 -12 522 -12 m 463 71 q 606 141 554 71 q 668 343 657 211 l 267 343 q 328 138 278 204 q 463 71 379 71 z "},"Ө":{"ha":1096,"x_min":68,"x_max":1028,"o":"m 547 -14 q 357 22 444 -14 q 205 120 269 57 q 104 269 140 183 q 68 458 68 356 q 104 647 68 561 q 205 797 140 733 q 357 895 269 860 q 547 931 444 931 q 739 895 651 931 q 891 797 826 860 q 992 647 956 733 q 1028 458 1028 561 q 992 269 1028 356 q 891 120 956 183 q 739 22 826 57 q 547 -14 651 -14 m 529 860 q 406 816 460 860 q 320 694 351 772 q 289 510 289 615 l 800 510 q 749 695 788 617 q 654 817 711 774 q 529 860 597 860 m 569 58 q 692 103 639 58 q 776 228 746 147 q 806 417 806 308 q 806 436 806 428 l 292 436 q 340 236 301 321 q 439 105 379 151 q 569 58 499 58 z "},"Ѣ":{"ha":1064,"x_min":31,"x_max":1029,"o":"m 635 0 l 175 0 l 175 22 l 293 79 l 293 685 l 164 685 l 53 521 l 31 521 l 31 761 l 293 761 l 293 838 l 175 894 l 175 917 l 638 917 l 638 894 l 503 838 l 503 761 l 807 761 l 807 521 l 785 521 l 674 685 l 503 685 l 503 474 l 636 474 q 841 447 753 474 q 979 368 929 419 q 1029 246 1029 317 q 979 117 1029 172 q 840 31 929 61 q 635 0 750 0 m 590 397 l 503 397 l 503 76 l 600 76 q 760 123 704 76 q 815 239 815 169 q 590 397 815 397 z "},"Ѳ":{"ha":1096,"x_min":68,"x_max":1028,"o":"m 547 -14 q 357 22 444 -14 q 205 120 269 57 q 104 269 140 183 q 68 458 68 356 q 104 647 68 561 q 205 797 140 733 q 357 895 269 860 q 547 931 444 931 q 739 895 651 931 q 891 797 826 860 q 992 647 956 733 q 1028 458 1028 561 q 992 269 1028 356 q 891 120 956 183 q 739 22 826 57 q 547 -14 651 -14 m 289 503 q 289 501 289 503 q 289 486 289 499 q 428 540 365 531 q 544 540 492 550 q 642 513 597 529 q 726 490 688 497 q 801 501 765 483 q 752 692 790 611 q 656 816 714 772 q 529 860 599 860 q 406 816 460 860 q 320 692 351 772 q 289 503 289 611 m 569 58 q 692 103 639 58 q 776 228 746 147 q 806 417 806 308 q 806 439 806 428 q 678 381 736 390 q 570 383 619 371 q 475 411 521 394 q 385 435 429 428 q 293 422 340 442 q 343 229 304 311 q 441 103 382 147 q 569 58 500 58 z "},"Ѵ":{"ha":1047,"x_min":26,"x_max":1051,"o":"m 732 617 q 764 696 746 653 q 804 781 782 739 q 851 853 826 822 q 931 915 892 900 q 1004 931 969 931 q 1044 922 1036 931 q 1051 890 1051 914 l 1051 783 l 1043 776 l 1017 776 q 930 763 963 776 q 874 710 897 749 q 821 599 850 672 l 575 -7 l 494 -7 l 125 840 l 26 894 l 26 917 l 460 917 l 460 894 l 346 840 l 590 281 l 599 281 l 732 617 z "},"ȷ":{"ha":458,"x_min":49,"x_max":332,"o":"m 332 33 q 308 -111 332 -50 q 222 -221 283 -172 q 49 -319 161 -269 l 49 -294 q 105 -235 86 -264 q 130 -170 124 -207 q 136 -78 136 -133 l 136 489 l 49 554 l 49 571 l 315 647 l 332 647 l 332 33 z "},"ĸ":{"ha":838,"x_min":43,"x_max":831,"o":"m 43 0 l 43 22 l 136 67 l 136 489 l 47 554 l 47 571 l 314 647 l 331 647 l 331 363 l 539 553 l 539 561 l 471 611 l 471 633 l 765 633 l 765 611 l 676 563 l 488 414 l 742 69 l 831 22 l 831 0 l 560 0 l 517 72 l 331 332 l 331 65 l 421 22 l 421 0 l 43 0 z "},"ẗ":{"ha":536,"x_min":14,"x_max":501,"o":"m 307 -14 q 168 22 222 -14 q 114 124 114 58 l 114 571 l 14 571 l 14 590 l 142 633 l 282 786 l 308 786 l 308 633 l 501 633 l 501 571 l 308 571 l 308 158 q 339 106 308 122 q 411 89 369 89 q 458 92 438 89 q 497 100 478 96 l 501 97 l 501 74 q 425 13 478 40 q 307 -14 372 -14 m 142 915 q 84 939 107 915 q 61 996 61 963 q 84 1053 61 1029 q 142 1076 107 1076 q 199 1053 176 1076 q 222 996 222 1029 q 199 939 222 963 q 142 915 176 915 m 417 915 q 359 939 382 915 q 336 996 336 963 q 359 1053 336 1029 q 417 1076 382 1076 q 474 1053 451 1076 q 497 996 497 1029 q 474 939 497 963 q 417 915 451 915 z "},"a":{"ha":942,"x_min":26,"x_max":915,"o":"m 26 0 l 26 22 l 97 63 l 407 785 l 525 785 l 829 71 l 915 22 l 915 0 l 526 0 l 526 22 l 625 64 l 546 254 l 265 254 l 186 64 l 285 22 l 285 0 l 26 0 m 294 325 l 515 325 l 404 590 l 294 325 z "},"b":{"ha":875,"x_min":61,"x_max":829,"o":"m 61 0 l 61 22 l 164 68 l 164 710 l 61 756 l 61 778 l 453 778 q 674 734 590 778 q 757 601 757 690 q 711 490 757 539 q 583 421 665 442 q 764 354 699 406 q 829 225 829 303 q 785 110 829 161 q 664 30 742 60 q 486 0 586 0 l 61 0 m 378 707 l 367 707 l 367 435 l 383 435 q 508 469 461 435 q 554 571 554 503 q 378 707 554 707 m 419 369 l 367 369 l 367 71 l 428 71 q 565 110 514 71 q 617 221 617 149 q 565 335 617 301 q 419 369 514 369 z "},"c":{"ha":896,"x_min":69,"x_max":799,"o":"m 508 -14 q 281 36 381 -14 q 126 174 182 86 q 69 372 69 261 q 107 544 69 467 q 209 678 144 622 q 356 763 274 733 q 528 793 439 793 q 634 785 592 793 q 709 765 676 778 q 776 736 742 753 l 789 521 l 765 521 l 653 692 q 536 722 604 722 q 404 679 463 722 q 312 560 346 636 q 278 381 278 483 q 349 142 278 228 q 535 57 419 57 q 597 62 568 57 q 654 81 626 67 l 776 246 l 799 246 l 783 49 q 665 3 735 19 q 508 -14 594 -14 z "},"d":{"ha":992,"x_min":61,"x_max":928,"o":"m 61 0 l 61 22 l 164 68 l 164 710 l 61 756 l 61 778 l 479 778 q 722 732 622 778 q 875 607 822 686 q 928 425 928 528 q 870 204 928 300 q 710 54 813 108 q 471 0 607 0 l 61 0 m 414 707 l 367 707 l 367 71 l 428 71 q 644 156 569 71 q 718 390 718 242 q 642 624 718 542 q 414 707 565 707 z "},"e":{"ha":838,"x_min":61,"x_max":765,"o":"m 61 0 l 61 22 l 164 68 l 164 710 l 61 756 l 61 778 l 732 778 l 732 569 l 710 569 l 619 707 l 367 707 l 367 435 l 546 435 l 610 535 l 631 535 l 631 271 l 610 271 l 546 369 l 367 369 l 367 71 l 647 71 l 743 250 l 765 250 l 765 0 l 61 0 z "},"f":{"ha":796,"x_min":61,"x_max":724,"o":"m 61 0 l 61 22 l 164 68 l 164 710 l 61 756 l 61 778 l 724 778 l 724 569 l 704 569 l 621 706 l 367 706 l 367 435 l 539 435 l 604 535 l 625 535 l 625 271 l 604 271 l 539 369 l 367 369 l 367 68 l 492 22 l 492 0 l 61 0 z "},"g":{"ha":938,"x_min":69,"x_max":896,"o":"m 490 -14 q 277 35 372 -14 q 126 171 182 83 q 69 374 69 258 q 106 544 69 467 q 206 677 142 621 q 353 763 269 733 q 531 793 436 793 q 683 776 624 793 q 793 736 742 760 l 806 528 l 782 528 l 681 683 q 613 716 643 707 q 543 725 583 725 q 398 683 458 725 q 306 566 338 640 q 274 394 274 492 q 342 151 274 243 q 533 58 410 58 q 608 67 571 58 l 608 279 l 503 333 l 503 354 l 896 354 l 896 333 l 807 278 l 807 85 q 722 33 774 56 q 610 -1 669 11 q 490 -14 550 -14 z "},"h":{"ha":1042,"x_min":61,"x_max":982,"o":"m 61 0 l 61 22 l 164 68 l 164 710 l 61 756 l 61 778 l 463 778 l 463 756 l 367 710 l 367 436 l 678 436 l 678 710 l 582 756 l 582 778 l 982 778 l 982 756 l 881 710 l 881 68 l 982 22 l 982 0 l 582 0 l 582 22 l 678 68 l 678 365 l 367 365 l 367 68 l 463 22 l 463 0 l 61 0 z "},"i":{"ha":521,"x_min":64,"x_max":458,"o":"m 64 0 l 64 22 l 156 68 l 156 710 l 64 756 l 64 778 l 458 778 l 458 756 l 358 710 l 358 68 l 458 22 l 458 0 l 64 0 z "},"ı":{"ha":521,"x_min":64,"x_max":458,"o":"m 64 0 l 64 22 l 156 68 l 156 710 l 64 756 l 64 778 l 458 778 l 458 756 l 358 710 l 358 68 l 458 22 l 458 0 l 64 0 z "},"j":{"ha":547,"x_min":21,"x_max":483,"o":"m 76 -204 q 38 -197 54 -204 q 21 -161 21 -189 q 26 -135 21 -158 q 36 -75 31 -111 l 46 -75 q 73 -83 61 -81 q 99 -86 85 -86 q 146 -74 128 -86 q 172 -22 164 -61 q 181 93 181 17 l 181 710 l 78 756 l 78 778 l 483 778 l 483 756 l 382 710 l 382 282 q 357 113 382 189 q 299 -17 332 38 q 242 -101 267 -72 q 161 -176 203 -147 q 76 -204 119 -204 z "},"k":{"ha":997,"x_min":63,"x_max":975,"o":"m 63 0 l 63 22 l 165 68 l 165 710 l 63 756 l 63 778 l 471 778 l 471 756 l 368 710 l 368 68 l 471 22 l 471 0 l 63 0 m 682 0 l 368 393 l 688 715 l 600 756 l 600 778 l 889 778 l 889 756 l 806 721 l 549 475 l 883 58 l 975 22 l 975 0 l 682 0 z "},"l":{"ha":821,"x_min":61,"x_max":749,"o":"m 61 0 l 61 22 l 164 68 l 164 710 l 61 756 l 61 778 l 481 778 l 481 756 l 367 710 l 367 71 l 622 71 l 726 297 l 749 297 l 749 0 l 61 0 z "},"m":{"ha":1239,"x_min":58,"x_max":1181,"o":"m 58 0 l 58 22 l 161 69 l 186 711 l 81 756 l 81 778 l 408 778 l 632 271 l 856 778 l 1172 778 l 1172 756 l 1068 722 l 1088 69 l 1181 22 l 1181 0 l 788 0 l 788 22 l 883 68 l 872 625 l 594 -6 l 535 -6 l 260 626 l 244 68 l 349 22 l 349 0 l 58 0 z "},"n":{"ha":1015,"x_min":58,"x_max":958,"o":"m 58 0 l 58 24 l 161 69 l 161 710 l 58 756 l 58 778 l 310 778 l 772 264 l 772 710 l 638 756 l 638 778 l 958 778 l 958 756 l 857 710 l 857 -6 l 758 -6 l 246 560 l 246 71 l 381 24 l 381 0 l 58 0 z "},"o":{"ha":974,"x_min":68,"x_max":906,"o":"m 486 -14 q 270 39 364 -14 q 122 183 176 92 q 68 390 68 274 q 122 597 68 506 q 270 742 176 689 q 486 794 364 794 q 703 742 608 794 q 851 597 797 689 q 906 390 906 506 q 851 183 906 274 q 703 39 797 92 q 486 -14 608 -14 m 506 58 q 645 142 594 58 q 696 356 696 225 q 667 545 696 463 q 588 675 639 628 q 472 722 538 722 q 370 685 414 722 q 302 581 326 647 q 278 426 278 514 q 307 236 278 319 q 388 106 336 153 q 506 58 439 58 z "},"p":{"ha":839,"x_min":61,"x_max":794,"o":"m 61 0 l 61 22 l 164 68 l 164 710 l 61 756 l 61 778 l 482 778 q 711 726 628 778 q 794 565 794 675 q 751 446 794 497 q 631 367 707 394 q 457 339 554 339 l 367 339 l 367 68 l 490 22 l 490 0 l 61 0 m 367 707 l 367 404 l 406 404 q 542 445 494 404 q 589 557 589 486 q 541 672 589 636 q 397 707 493 707 l 367 707 z "},"q":{"ha":985,"x_min":68,"x_max":1065,"o":"m 890 -215 q 756 -198 825 -215 q 603 -136 686 -181 q 415 -8 521 -92 q 234 60 313 6 q 112 200 156 115 q 68 390 68 285 q 122 597 68 506 q 270 742 176 689 q 486 794 364 794 q 703 742 608 794 q 851 597 797 689 q 906 390 906 506 q 833 155 906 256 q 643 13 761 54 q 779 -91 719 -54 q 885 -143 839 -128 q 974 -158 932 -158 q 1028 -154 1006 -158 q 1065 -146 1050 -150 l 1065 -178 q 991 -204 1033 -193 q 890 -215 949 -215 m 506 58 q 645 142 594 58 q 696 356 696 225 q 667 545 696 463 q 588 675 639 628 q 472 722 538 722 q 370 685 414 722 q 302 581 326 647 q 278 426 278 514 q 307 236 278 319 q 388 106 336 153 q 506 58 439 58 z "},"r":{"ha":896,"x_min":61,"x_max":907,"o":"m 61 0 l 61 22 l 164 68 l 164 710 l 61 756 l 61 778 l 486 778 q 685 727 613 778 q 758 589 758 676 q 603 407 758 461 l 817 67 l 907 22 l 907 0 l 619 0 l 418 354 l 367 354 l 367 69 l 456 22 l 456 0 l 61 0 m 406 714 l 367 714 l 367 419 l 410 419 q 519 460 483 419 q 554 569 554 501 q 406 714 554 714 z "},"s":{"ha":708,"x_min":65,"x_max":642,"o":"m 333 -14 q 194 3 254 -14 q 78 47 133 19 l 65 244 l 88 244 l 183 96 q 328 56 246 56 q 435 82 396 56 q 474 161 474 108 q 453 223 474 200 q 385 269 432 246 q 263 328 339 292 q 134 419 176 367 q 92 550 92 472 q 131 672 92 617 q 237 760 171 726 q 381 793 303 793 q 500 778 444 793 q 601 739 556 764 l 614 550 l 592 550 l 490 699 q 442 718 467 713 q 388 724 418 724 q 298 695 332 724 q 264 618 264 667 q 280 565 264 586 q 333 522 296 543 q 429 472 369 501 q 550 401 503 436 q 619 325 597 367 q 642 225 642 283 q 601 99 642 153 q 490 15 560 44 q 333 -14 419 -14 z "},"t":{"ha":878,"x_min":50,"x_max":828,"o":"m 210 0 l 210 22 l 338 68 l 338 707 l 165 707 l 72 515 l 50 515 l 50 778 l 828 778 l 828 515 l 806 515 l 711 707 l 539 707 l 539 68 l 668 22 l 668 0 l 210 0 z "},"u":{"ha":1044,"x_min":61,"x_max":983,"o":"m 528 -14 q 341 19 422 -14 q 213 127 260 51 q 165 329 165 203 l 165 708 l 61 756 l 61 778 l 472 778 l 472 756 l 367 708 l 367 328 q 394 178 367 233 q 472 99 422 122 q 585 76 521 76 q 689 99 642 76 q 765 167 736 121 q 793 290 793 214 l 793 711 l 681 756 l 681 778 l 983 778 l 983 756 l 879 710 l 879 315 q 788 65 879 144 q 528 -14 696 -14 z "},"v":{"ha":938,"x_min":28,"x_max":910,"o":"m 426 -7 l 110 710 l 28 754 l 28 778 l 421 778 l 421 754 l 326 713 l 533 238 l 543 238 l 749 713 l 651 754 l 651 778 l 910 778 l 910 754 l 839 715 l 518 -7 l 426 -7 z "},"w":{"ha":1304,"x_min":17,"x_max":1289,"o":"m 338 -7 l 110 707 l 17 756 l 17 778 l 419 778 l 419 756 l 318 714 l 456 265 l 463 265 l 672 781 l 772 781 l 978 265 l 983 265 l 1117 713 l 1015 756 l 1015 778 l 1289 778 l 1289 756 l 1207 713 l 976 -7 l 875 -7 l 660 521 l 651 521 l 439 -7 l 338 -7 z "},"x":{"ha":989,"x_min":28,"x_max":961,"o":"m 28 0 l 28 22 l 131 69 l 392 374 l 138 711 l 49 756 l 49 778 l 472 778 l 472 756 l 379 711 l 379 704 l 546 486 l 731 704 l 731 710 l 639 756 l 639 778 l 926 778 l 926 756 l 839 715 l 590 429 l 863 72 l 961 22 l 961 0 l 532 0 l 532 22 l 619 65 l 619 69 l 436 314 l 232 72 l 231 67 l 326 22 l 326 0 l 28 0 z "},"y":{"ha":932,"x_min":28,"x_max":904,"o":"m 263 0 l 263 22 l 369 68 l 369 367 l 119 706 l 28 756 l 28 778 l 424 778 l 424 756 l 336 713 l 336 708 l 538 439 l 719 706 l 719 711 l 628 756 l 628 778 l 904 778 l 904 756 l 818 715 l 572 365 l 572 68 l 678 22 l 678 0 l 263 0 z "},"z":{"ha":900,"x_min":117,"x_max":783,"o":"m 117 0 l 117 38 l 524 707 l 244 707 l 153 528 l 131 528 l 131 778 l 769 778 l 769 740 l 361 71 l 664 71 l 761 263 l 783 263 l 783 0 l 117 0 z "},"à":{"ha":942,"x_min":26,"x_max":915,"o":"m 26 0 l 26 22 l 97 63 l 407 785 l 525 785 l 829 71 l 915 22 l 915 0 l 526 0 l 526 22 l 625 64 l 546 254 l 265 254 l 186 64 l 285 22 l 285 0 l 26 0 m 294 325 l 515 325 l 404 590 l 294 325 m 450 882 l 268 1032 q 224 1080 236 1058 q 213 1128 213 1101 l 365 1128 l 481 882 l 450 882 z "},"á":{"ha":942,"x_min":26,"x_max":915,"o":"m 26 0 l 26 22 l 97 63 l 407 785 l 525 785 l 829 71 l 915 22 l 915 0 l 526 0 l 526 22 l 625 64 l 546 254 l 265 254 l 186 64 l 285 22 l 285 0 l 26 0 m 294 325 l 515 325 l 404 590 l 294 325 m 453 882 l 568 1128 l 721 1128 q 708 1080 721 1101 q 665 1032 696 1058 l 483 882 l 453 882 z "},"â":{"ha":942,"x_min":26,"x_max":915,"o":"m 26 0 l 26 22 l 97 63 l 407 785 l 525 785 l 829 71 l 915 22 l 915 0 l 526 0 l 526 22 l 625 64 l 546 254 l 265 254 l 186 64 l 285 22 l 285 0 l 26 0 m 294 325 l 515 325 l 404 590 l 294 325 m 244 882 l 433 1128 l 500 1128 l 689 882 l 658 882 l 467 997 l 275 882 l 244 882 z "},"ã":{"ha":942,"x_min":26,"x_max":915,"o":"m 26 0 l 26 22 l 97 63 l 407 785 l 525 785 l 829 71 l 915 22 l 915 0 l 526 0 l 526 22 l 625 64 l 546 254 l 265 254 l 186 64 l 285 22 l 285 0 l 26 0 m 294 325 l 515 325 l 404 590 l 294 325 m 238 910 q 287 1033 264 993 q 333 1086 310 1074 q 386 1099 356 1099 q 459 1077 425 1099 q 524 1034 493 1056 q 582 1013 556 1013 q 625 1028 607 1013 q 665 1099 643 1044 l 696 1099 q 647 975 669 1015 q 601 922 624 935 q 547 910 578 910 q 474 931 508 910 q 409 974 440 953 q 351 996 378 996 q 308 980 326 996 q 268 910 290 964 l 238 910 z "},"ä":{"ha":942,"x_min":26,"x_max":915,"o":"m 26 0 l 26 22 l 97 63 l 407 785 l 525 785 l 829 71 l 915 22 l 915 0 l 526 0 l 526 22 l 625 64 l 546 254 l 265 254 l 186 64 l 285 22 l 285 0 l 26 0 m 294 325 l 515 325 l 404 590 l 294 325 m 329 922 q 272 946 294 922 q 249 1003 249 969 q 272 1060 249 1036 q 329 1083 294 1083 q 387 1060 364 1083 q 410 1003 410 1036 q 387 946 410 969 q 329 922 364 922 m 604 922 q 547 946 569 922 q 524 1003 524 969 q 547 1060 524 1036 q 604 1083 569 1083 q 662 1060 639 1083 q 685 1003 685 1036 q 662 946 685 969 q 604 922 639 922 z "},"ā":{"ha":942,"x_min":26,"x_max":915,"o":"m 26 0 l 26 22 l 97 63 l 407 785 l 525 785 l 829 71 l 915 22 l 915 0 l 526 0 l 526 22 l 625 64 l 546 254 l 265 254 l 186 64 l 285 22 l 285 0 l 26 0 m 294 325 l 515 325 l 404 590 l 294 325 m 265 961 l 265 1044 l 668 1044 l 668 961 l 265 961 z "},"ă":{"ha":942,"x_min":26,"x_max":915,"o":"m 26 0 l 26 22 l 97 63 l 407 785 l 525 785 l 829 71 l 915 22 l 915 0 l 526 0 l 526 22 l 625 64 l 546 254 l 265 254 l 186 64 l 285 22 l 285 0 l 26 0 m 294 325 l 515 325 l 404 590 l 294 325 m 467 896 q 319 953 367 896 q 246 1128 272 1010 l 275 1128 q 328 1047 300 1074 q 391 1013 357 1021 q 467 1004 425 1004 q 542 1013 508 1004 q 605 1047 576 1021 q 658 1128 633 1074 l 688 1128 q 610 953 661 1010 q 467 896 558 896 z "},"å":{"ha":942,"x_min":26,"x_max":915,"o":"m 26 0 l 26 22 l 97 63 l 407 785 l 525 785 l 829 71 l 915 22 l 915 0 l 526 0 l 526 22 l 625 64 l 546 254 l 265 254 l 186 64 l 285 22 l 285 0 l 26 0 m 294 325 l 515 325 l 404 590 l 294 325 m 467 1122 q 556 1088 522 1122 q 590 1004 590 1054 q 556 919 590 953 q 467 886 522 886 q 378 919 413 886 q 343 1004 343 953 q 378 1088 343 1054 q 467 1122 413 1122 m 461 1088 q 431 1070 442 1088 q 419 1013 419 1053 q 472 921 419 921 q 514 996 514 921 q 461 1088 514 1088 z "},"ǻ":{"ha":942,"x_min":26,"x_max":915,"o":"m 26 0 l 26 22 l 97 63 l 407 785 l 525 785 l 829 71 l 915 22 l 915 0 l 526 0 l 526 22 l 625 64 l 546 254 l 265 254 l 186 64 l 285 22 l 285 0 l 26 0 m 294 325 l 515 325 l 404 590 l 294 325 m 467 1122 q 556 1088 522 1122 q 590 1004 590 1054 q 556 919 590 953 q 467 886 522 886 q 378 919 413 886 q 343 1004 343 953 q 378 1088 343 1054 q 467 1122 413 1122 m 461 1088 q 431 1070 442 1088 q 419 1013 419 1053 q 472 921 419 921 q 514 996 514 921 q 461 1088 514 1088 m 453 1192 l 568 1438 l 721 1438 q 708 1390 721 1411 q 665 1342 696 1368 l 483 1192 l 453 1192 z "},"ạ":{"ha":942,"x_min":26,"x_max":915,"o":"m 26 0 l 26 22 l 97 63 l 407 785 l 525 785 l 829 71 l 915 22 l 915 0 l 526 0 l 526 22 l 625 64 l 546 254 l 265 254 l 186 64 l 285 22 l 285 0 l 26 0 m 294 325 l 515 325 l 404 590 l 294 325 m 419 -312 q 347 -284 375 -312 q 318 -211 318 -256 q 347 -138 318 -167 q 419 -110 375 -110 q 492 -138 464 -110 q 521 -211 521 -167 q 492 -284 521 -256 q 419 -312 464 -312 z "},"ą":{"ha":942,"x_min":26,"x_max":915,"o":"m 26 0 l 26 22 l 97 63 l 407 785 l 525 785 l 829 71 l 915 22 l 915 0 l 778 0 q 724 -176 724 -94 q 803 -261 724 -261 q 838 -256 819 -261 q 869 -239 856 -250 l 874 -239 l 874 -265 q 750 -333 839 -333 q 648 -299 686 -333 q 610 -208 610 -264 q 642 -109 610 -160 q 731 0 675 -58 l 526 0 l 526 22 l 625 64 l 544 254 l 265 254 l 186 64 l 285 22 l 285 0 l 26 0 m 294 325 l 515 325 l 404 590 l 294 325 z "},"ȁ":{"ha":942,"x_min":26,"x_max":915,"o":"m 26 0 l 26 22 l 97 63 l 407 785 l 525 785 l 829 71 l 915 22 l 915 0 l 526 0 l 526 22 l 625 64 l 546 254 l 265 254 l 186 64 l 285 22 l 285 0 l 26 0 m 294 325 l 515 325 l 404 590 l 294 325 m 356 882 l 200 1040 q 176 1085 176 1064 q 183 1128 176 1107 l 297 1128 l 386 882 l 356 882 m 546 882 l 411 1040 q 390 1086 392 1065 q 394 1128 388 1107 l 508 1128 l 576 882 l 546 882 z "},"ȃ":{"ha":942,"x_min":26,"x_max":915,"o":"m 26 0 l 26 22 l 97 63 l 407 785 l 525 785 l 829 71 l 915 22 l 915 0 l 526 0 l 526 22 l 625 64 l 546 254 l 265 254 l 186 64 l 285 22 l 285 0 l 26 0 m 294 325 l 515 325 l 404 590 l 294 325 m 246 896 q 324 1071 272 1014 q 467 1128 375 1128 q 614 1071 567 1128 q 688 896 661 1014 l 658 896 q 605 977 633 951 q 542 1011 576 1003 q 467 1019 508 1019 q 391 1011 425 1019 q 328 977 357 1003 q 275 896 300 951 l 246 896 z "},"ắ":{"ha":942,"x_min":26,"x_max":915,"o":"m 26 0 l 26 22 l 97 63 l 407 785 l 525 785 l 829 71 l 915 22 l 915 0 l 526 0 l 526 22 l 625 64 l 546 254 l 265 254 l 186 64 l 285 22 l 285 0 l 26 0 m 294 325 l 515 325 l 404 590 l 294 325 z "},"ặ":{"ha":942,"x_min":26,"x_max":915,"o":"m 26 0 l 26 22 l 97 63 l 407 785 l 525 785 l 829 71 l 915 22 l 915 0 l 526 0 l 526 22 l 625 64 l 546 254 l 265 254 l 186 64 l 285 22 l 285 0 l 26 0 m 294 325 l 515 325 l 404 590 l 294 325 m 467 896 q 319 953 367 896 q 246 1128 272 1010 l 275 1128 q 328 1047 300 1074 q 391 1013 357 1021 q 467 1004 425 1004 q 542 1013 508 1004 q 605 1047 576 1021 q 658 1128 633 1074 l 688 1128 q 610 953 661 1010 q 467 896 558 896 m 419 -312 q 347 -284 375 -312 q 318 -211 318 -256 q 347 -138 318 -167 q 419 -110 375 -110 q 492 -138 464 -110 q 521 -211 521 -167 q 492 -284 521 -256 q 419 -312 464 -312 z "},"ằ":{"ha":942,"x_min":26,"x_max":915,"o":"m 26 0 l 26 22 l 97 63 l 407 785 l 525 785 l 829 71 l 915 22 l 915 0 l 526 0 l 526 22 l 625 64 l 546 254 l 265 254 l 186 64 l 285 22 l 285 0 l 26 0 m 294 325 l 515 325 l 404 590 l 294 325 z "},"ẳ":{"ha":942,"x_min":26,"x_max":915,"o":"m 26 0 l 26 22 l 97 63 l 407 785 l 525 785 l 829 71 l 915 22 l 915 0 l 526 0 l 526 22 l 625 64 l 546 254 l 265 254 l 186 64 l 285 22 l 285 0 l 26 0 m 294 325 l 515 325 l 404 590 l 294 325 z "},"ẵ":{"ha":942,"x_min":26,"x_max":915,"o":"m 26 0 l 26 22 l 97 63 l 407 785 l 525 785 l 829 71 l 915 22 l 915 0 l 526 0 l 526 22 l 625 64 l 546 254 l 265 254 l 186 64 l 285 22 l 285 0 l 26 0 m 294 325 l 515 325 l 404 590 l 294 325 z "},"ấ":{"ha":942,"x_min":26,"x_max":915,"o":"m 26 0 l 26 22 l 97 63 l 407 785 l 525 785 l 829 71 l 915 22 l 915 0 l 526 0 l 526 22 l 625 64 l 546 254 l 265 254 l 186 64 l 285 22 l 285 0 l 26 0 m 294 325 l 515 325 l 404 590 l 294 325 m 625 1031 l 683 1229 l 824 1229 q 774 1142 824 1186 l 654 1031 l 625 1031 m 244 882 l 433 1128 l 500 1128 l 689 882 l 658 882 l 467 997 l 275 882 l 244 882 z "},"ậ":{"ha":942,"x_min":26,"x_max":915,"o":"m 26 0 l 26 22 l 97 63 l 407 785 l 525 785 l 829 71 l 915 22 l 915 0 l 526 0 l 526 22 l 625 64 l 546 254 l 265 254 l 186 64 l 285 22 l 285 0 l 26 0 m 294 325 l 515 325 l 404 590 l 294 325 m 244 882 l 433 1128 l 500 1128 l 689 882 l 658 882 l 467 997 l 275 882 l 244 882 m 419 -312 q 347 -284 375 -312 q 318 -211 318 -256 q 347 -138 318 -167 q 419 -110 375 -110 q 492 -138 464 -110 q 521 -211 521 -167 q 492 -284 521 -256 q 419 -312 464 -312 z "},"ầ":{"ha":942,"x_min":26,"x_max":915,"o":"m 26 0 l 26 22 l 97 63 l 407 785 l 525 785 l 829 71 l 915 22 l 915 0 l 526 0 l 526 22 l 625 64 l 546 254 l 265 254 l 186 64 l 285 22 l 285 0 l 26 0 m 294 325 l 515 325 l 404 590 l 294 325 m 279 1031 l 160 1142 q 110 1229 110 1186 l 250 1229 l 308 1031 l 279 1031 m 244 882 l 433 1128 l 500 1128 l 689 882 l 658 882 l 467 997 l 275 882 l 244 882 z "},"ẩ":{"ha":942,"x_min":26,"x_max":915,"o":"m 26 0 l 26 22 l 97 63 l 407 785 l 525 785 l 829 71 l 915 22 l 915 0 l 526 0 l 526 22 l 625 64 l 546 254 l 265 254 l 186 64 l 285 22 l 285 0 l 26 0 m 294 325 l 515 325 l 404 590 l 294 325 z "},"ẫ":{"ha":942,"x_min":26,"x_max":915,"o":"m 26 0 l 26 22 l 97 63 l 407 785 l 525 785 l 829 71 l 915 22 l 915 0 l 526 0 l 526 22 l 625 64 l 546 254 l 265 254 l 186 64 l 285 22 l 285 0 l 26 0 m 294 325 l 515 325 l 404 590 l 294 325 z "},"ả":{"ha":942,"x_min":26,"x_max":915,"o":"m 26 0 l 26 22 l 97 63 l 407 785 l 525 785 l 829 71 l 915 22 l 915 0 l 526 0 l 526 22 l 625 64 l 546 254 l 265 254 l 186 64 l 285 22 l 285 0 l 26 0 m 294 325 l 515 325 l 404 590 l 294 325 m 388 900 l 388 901 q 453 931 432 917 q 475 971 475 944 q 453 1007 475 993 q 375 1032 431 1021 l 394 1128 q 526 1085 489 1119 q 564 1015 564 1051 q 523 929 564 960 q 401 888 482 899 l 388 900 z "},"æ":{"ha":1254,"x_min":26,"x_max":1182,"o":"m 26 0 l 26 22 l 103 61 l 568 778 l 1149 778 l 1149 569 l 1126 569 l 1036 707 l 783 707 l 783 435 l 963 435 l 1026 535 l 1049 535 l 1049 271 l 1026 271 l 963 369 l 783 369 l 783 71 l 1064 71 l 1160 250 l 1182 250 l 1182 0 l 478 0 l 478 22 l 581 68 l 581 254 l 318 254 l 193 61 l 285 22 l 285 0 l 26 0 m 364 325 l 581 325 l 581 660 l 364 325 z "},"ǽ":{"ha":1254,"x_min":26,"x_max":1182,"o":"m 26 0 l 26 22 l 103 61 l 568 778 l 1149 778 l 1149 569 l 1126 569 l 1036 707 l 783 707 l 783 435 l 963 435 l 1026 535 l 1049 535 l 1049 271 l 1026 271 l 963 369 l 783 369 l 783 71 l 1064 71 l 1160 250 l 1182 250 l 1182 0 l 478 0 l 478 22 l 581 68 l 581 254 l 318 254 l 193 61 l 285 22 l 285 0 l 26 0 m 364 325 l 581 325 l 581 660 l 364 325 m 679 882 l 794 1128 l 947 1128 q 935 1080 947 1101 q 892 1032 922 1058 l 710 882 l 679 882 z "},"ć":{"ha":896,"x_min":69,"x_max":799,"o":"m 508 -14 q 281 36 381 -14 q 126 174 182 86 q 69 372 69 261 q 107 544 69 467 q 209 678 144 622 q 356 763 274 733 q 528 793 439 793 q 634 785 592 793 q 709 765 676 778 q 776 736 742 753 l 789 521 l 765 521 l 653 692 q 536 722 604 722 q 404 679 463 722 q 312 560 346 636 q 278 381 278 483 q 349 142 278 228 q 535 57 419 57 q 597 62 568 57 q 654 81 626 67 l 776 246 l 799 246 l 783 49 q 665 3 735 19 q 508 -14 594 -14 m 481 882 l 596 1128 l 749 1128 q 736 1080 749 1101 q 693 1032 724 1058 l 511 882 l 481 882 z "},"ĉ":{"ha":896,"x_min":69,"x_max":799,"o":"m 508 -14 q 281 36 381 -14 q 126 174 182 86 q 69 372 69 261 q 107 544 69 467 q 209 678 144 622 q 356 763 274 733 q 528 793 439 793 q 634 785 592 793 q 709 765 676 778 q 776 736 742 753 l 789 521 l 765 521 l 653 692 q 536 722 604 722 q 404 679 463 722 q 312 560 346 636 q 278 381 278 483 q 349 142 278 228 q 535 57 419 57 q 597 62 568 57 q 654 81 626 67 l 776 246 l 799 246 l 783 49 q 665 3 735 19 q 508 -14 594 -14 m 272 882 l 461 1128 l 528 1128 l 717 882 l 686 882 l 494 997 l 303 882 l 272 882 z "},"č":{"ha":896,"x_min":69,"x_max":799,"o":"m 508 -14 q 281 36 381 -14 q 126 174 182 86 q 69 372 69 261 q 107 544 69 467 q 209 678 144 622 q 356 763 274 733 q 528 793 439 793 q 634 785 592 793 q 709 765 676 778 q 776 736 742 753 l 789 521 l 765 521 l 653 692 q 536 722 604 722 q 404 679 463 722 q 312 560 346 636 q 278 381 278 483 q 349 142 278 228 q 535 57 419 57 q 597 62 568 57 q 654 81 626 67 l 776 246 l 799 246 l 783 49 q 665 3 735 19 q 508 -14 594 -14 m 461 882 l 272 1128 l 303 1128 l 494 1013 l 686 1128 l 717 1128 l 528 882 l 461 882 z "},"ċ":{"ha":896,"x_min":69,"x_max":799,"o":"m 508 -14 q 281 36 381 -14 q 126 174 182 86 q 69 372 69 261 q 107 544 69 467 q 209 678 144 622 q 356 763 274 733 q 528 793 439 793 q 634 785 592 793 q 709 765 676 778 q 776 736 742 753 l 789 521 l 765 521 l 653 692 q 536 722 604 722 q 404 679 463 722 q 312 560 346 636 q 278 381 278 483 q 349 142 278 228 q 535 57 419 57 q 597 62 568 57 q 654 81 626 67 l 776 246 l 799 246 l 783 49 q 665 3 735 19 q 508 -14 594 -14 m 493 903 q 420 931 449 903 q 392 1004 392 960 q 420 1077 392 1049 q 493 1106 449 1106 q 566 1077 538 1106 q 594 1004 594 1049 q 566 931 594 960 q 493 903 538 903 z "},"ç":{"ha":896,"x_min":69,"x_max":799,"o":"m 492 -333 q 379 -300 421 -333 l 379 -274 l 385 -274 q 464 -290 418 -290 q 540 -236 540 -290 q 513 -186 540 -207 q 403 -143 485 -165 l 463 -12 q 258 49 347 -3 q 119 183 169 100 q 69 372 69 267 q 107 544 69 467 q 209 678 144 622 q 356 763 274 733 q 528 793 439 793 q 634 785 592 793 q 709 765 676 778 q 776 736 742 753 l 789 521 l 765 521 l 653 692 q 536 722 604 722 q 404 679 463 722 q 312 560 346 636 q 278 381 278 483 q 349 142 278 228 q 535 57 419 57 q 597 62 568 57 q 654 81 626 67 l 776 246 l 799 246 l 783 49 q 665 3 735 19 q 515 -14 596 -14 l 494 -60 q 606 -117 574 -83 q 638 -206 638 -150 q 598 -297 638 -261 q 492 -333 558 -333 z "},"ḉ":{"ha":896,"x_min":69,"x_max":799,"o":"m 482 882 l 597 1128 l 750 1128 q 738 1080 750 1101 q 694 1032 725 1058 l 513 882 l 482 882 m 500 -333 q 388 -300 428 -333 l 388 -274 l 392 -274 q 471 -290 425 -290 q 547 -236 547 -290 q 520 -186 547 -207 q 411 -143 493 -165 l 471 -12 q 263 46 353 -6 q 121 182 172 97 q 69 372 69 267 q 107 544 69 467 q 209 678 144 622 q 356 763 274 733 q 528 793 439 793 q 634 785 592 793 q 709 765 676 778 q 776 736 742 753 l 789 521 l 765 521 l 653 692 q 536 722 604 722 q 404 679 463 722 q 312 560 346 636 q 278 381 278 483 q 349 142 278 228 q 535 57 419 57 q 597 62 568 57 q 654 81 626 67 l 776 246 l 799 246 l 783 49 q 670 4 736 21 q 524 -14 604 -12 l 503 -60 q 614 -117 582 -83 q 646 -206 646 -151 q 606 -297 646 -261 q 500 -333 567 -333 z "},"ď":{"ha":992,"x_min":61,"x_max":928,"o":"m 61 0 l 61 22 l 164 68 l 164 710 l 61 756 l 61 778 l 479 778 q 722 732 622 778 q 875 607 822 686 q 928 425 928 528 q 870 204 928 300 q 710 54 813 108 q 471 0 607 0 l 61 0 m 414 707 l 367 707 l 367 71 l 428 71 q 644 156 569 71 q 718 390 718 242 q 642 624 718 542 q 414 707 565 707 m 450 882 l 261 1128 l 292 1128 l 483 1013 l 675 1128 l 706 1128 l 517 882 l 450 882 z "},"đ":{"ha":992,"x_min":61,"x_max":928,"o":"m 61 0 l 61 22 l 164 68 l 164 369 l 63 369 l 63 436 l 164 436 l 164 710 l 61 756 l 61 778 l 479 778 q 722 732 622 778 q 875 607 822 686 q 928 425 928 528 q 870 204 928 300 q 710 54 813 108 q 471 0 607 0 l 61 0 m 532 369 l 367 369 l 367 71 l 428 71 q 644 156 569 71 q 718 390 718 242 q 642 624 718 542 q 414 707 565 707 l 367 707 l 367 436 l 532 436 l 532 369 z "},"ḍ":{"ha":992,"x_min":61,"x_max":928,"o":"m 61 0 l 61 22 l 164 68 l 164 710 l 61 756 l 61 778 l 479 778 q 722 732 622 778 q 875 607 822 686 q 928 425 928 528 q 870 204 928 300 q 710 54 813 108 q 471 0 607 0 l 61 0 m 414 707 l 367 707 l 367 71 l 428 71 q 644 156 569 71 q 718 390 718 242 q 642 624 718 542 q 414 707 565 707 m 497 -312 q 424 -284 453 -312 q 396 -211 396 -256 q 424 -138 396 -167 q 497 -110 453 -110 q 570 -138 542 -110 q 599 -211 599 -167 q 570 -284 599 -256 q 497 -312 542 -312 z "},"ḏ":{"ha":992,"x_min":61,"x_max":928,"o":"m 61 0 l 61 22 l 164 68 l 164 710 l 61 756 l 61 778 l 479 778 q 722 732 622 778 q 875 607 822 686 q 928 425 928 528 q 870 204 928 300 q 710 54 813 108 q 471 0 607 0 l 61 0 m 414 707 l 367 707 l 367 71 l 428 71 q 644 156 569 71 q 718 390 718 242 q 642 624 718 542 q 414 707 565 707 m 296 -249 l 296 -165 l 699 -165 l 699 -249 l 296 -249 z "},"è":{"ha":838,"x_min":61,"x_max":765,"o":"m 61 0 l 61 22 l 164 68 l 164 710 l 61 756 l 61 778 l 732 778 l 732 569 l 710 569 l 619 707 l 367 707 l 367 435 l 546 435 l 610 535 l 631 535 l 631 271 l 610 271 l 546 369 l 367 369 l 367 71 l 647 71 l 743 250 l 765 250 l 765 0 l 61 0 m 425 882 l 243 1032 q 199 1080 211 1058 q 188 1128 188 1101 l 340 1128 l 456 882 l 425 882 z "},"é":{"ha":838,"x_min":61,"x_max":765,"o":"m 61 0 l 61 22 l 164 68 l 164 710 l 61 756 l 61 778 l 732 778 l 732 569 l 710 569 l 619 707 l 367 707 l 367 435 l 546 435 l 610 535 l 631 535 l 631 271 l 610 271 l 546 369 l 367 369 l 367 71 l 647 71 l 743 250 l 765 250 l 765 0 l 61 0 m 428 882 l 543 1128 l 696 1128 q 683 1080 696 1101 q 640 1032 671 1058 l 458 882 l 428 882 z "},"ê":{"ha":838,"x_min":61,"x_max":765,"o":"m 61 0 l 61 22 l 164 68 l 164 710 l 61 756 l 61 778 l 732 778 l 732 569 l 710 569 l 619 707 l 367 707 l 367 435 l 546 435 l 610 535 l 631 535 l 631 271 l 610 271 l 546 369 l 367 369 l 367 71 l 647 71 l 743 250 l 765 250 l 765 0 l 61 0 m 218 882 l 407 1128 l 474 1128 l 663 882 l 632 882 l 440 997 l 249 882 l 218 882 z "},"ě":{"ha":838,"x_min":61,"x_max":765,"o":"m 61 0 l 61 22 l 164 68 l 164 710 l 61 756 l 61 778 l 732 778 l 732 569 l 710 569 l 619 707 l 367 707 l 367 435 l 546 435 l 610 535 l 631 535 l 631 271 l 610 271 l 546 369 l 367 369 l 367 71 l 647 71 l 743 250 l 765 250 l 765 0 l 61 0 m 407 882 l 218 1128 l 249 1128 l 440 1013 l 632 1128 l 663 1128 l 474 882 l 407 882 z "},"ẽ":{"ha":838,"x_min":61,"x_max":765,"o":"m 61 0 l 61 22 l 164 68 l 164 710 l 61 756 l 61 778 l 732 778 l 732 569 l 710 569 l 619 707 l 367 707 l 367 435 l 546 435 l 610 535 l 631 535 l 631 271 l 610 271 l 546 369 l 367 369 l 367 71 l 647 71 l 743 250 l 765 250 l 765 0 l 61 0 m 211 910 q 260 1033 238 993 q 306 1086 283 1074 q 360 1099 329 1099 q 433 1077 399 1099 q 498 1034 467 1056 q 556 1013 529 1013 q 599 1028 581 1013 q 639 1099 617 1044 l 669 1099 q 620 975 643 1015 q 574 922 597 935 q 521 910 551 910 q 448 931 482 910 q 383 974 414 953 q 325 996 351 996 q 282 980 300 996 q 242 910 264 964 l 211 910 z "},"ë":{"ha":838,"x_min":61,"x_max":765,"o":"m 61 0 l 61 22 l 164 68 l 164 710 l 61 756 l 61 778 l 732 778 l 732 569 l 710 569 l 619 707 l 367 707 l 367 435 l 546 435 l 610 535 l 631 535 l 631 271 l 610 271 l 546 369 l 367 369 l 367 71 l 647 71 l 743 250 l 765 250 l 765 0 l 61 0 m 303 922 q 245 946 268 922 q 222 1003 222 969 q 245 1060 222 1036 q 303 1083 268 1083 q 360 1060 338 1083 q 383 1003 383 1036 q 360 946 383 969 q 303 922 338 922 m 578 922 q 520 946 543 922 q 497 1003 497 969 q 520 1060 497 1036 q 578 1083 543 1083 q 635 1060 613 1083 q 658 1003 658 1036 q 635 946 658 969 q 578 922 613 922 z "},"ē":{"ha":838,"x_min":61,"x_max":765,"o":"m 61 0 l 61 22 l 164 68 l 164 710 l 61 756 l 61 778 l 732 778 l 732 569 l 710 569 l 619 707 l 367 707 l 367 435 l 546 435 l 610 535 l 631 535 l 631 271 l 610 271 l 546 369 l 367 369 l 367 71 l 647 71 l 743 250 l 765 250 l 765 0 l 61 0 m 239 961 l 239 1044 l 642 1044 l 642 961 l 239 961 z "},"ĕ":{"ha":838,"x_min":61,"x_max":765,"o":"m 61 0 l 61 22 l 164 68 l 164 710 l 61 756 l 61 778 l 732 778 l 732 569 l 710 569 l 619 707 l 367 707 l 367 435 l 546 435 l 610 535 l 631 535 l 631 271 l 610 271 l 546 369 l 367 369 l 367 71 l 647 71 l 743 250 l 765 250 l 765 0 l 61 0 m 440 896 q 293 953 340 896 q 219 1128 246 1010 l 249 1128 q 302 1047 274 1074 q 365 1013 331 1021 q 440 1004 399 1004 q 516 1013 482 1004 q 578 1047 550 1021 q 632 1128 607 1074 l 661 1128 q 583 953 635 1010 q 440 896 532 896 z "},"ė":{"ha":838,"x_min":61,"x_max":765,"o":"m 61 0 l 61 22 l 164 68 l 164 710 l 61 756 l 61 778 l 732 778 l 732 569 l 710 569 l 619 707 l 367 707 l 367 435 l 546 435 l 610 535 l 631 535 l 631 271 l 610 271 l 546 369 l 367 369 l 367 71 l 647 71 l 743 250 l 765 250 l 765 0 l 61 0 m 440 903 q 367 931 396 903 q 339 1004 339 960 q 367 1077 339 1049 q 440 1106 396 1106 q 513 1077 485 1106 q 542 1004 542 1049 q 513 931 542 960 q 440 903 485 903 z "},"ę":{"ha":838,"x_min":61,"x_max":765,"o":"m 61 0 l 61 22 l 164 68 l 164 710 l 61 756 l 61 778 l 732 778 l 732 569 l 710 569 l 619 707 l 367 707 l 367 435 l 546 435 l 610 535 l 631 535 l 631 271 l 610 271 l 546 369 l 367 369 l 367 71 l 647 71 l 743 250 l 765 250 l 765 0 l 669 0 q 628 -91 642 -47 q 614 -176 614 -135 q 693 -261 614 -261 q 727 -256 710 -261 q 760 -239 744 -250 l 765 -239 l 765 -265 q 640 -333 728 -333 q 539 -299 576 -333 q 501 -208 501 -264 q 533 -109 501 -160 q 621 0 565 -58 l 61 0 z "},"ẹ":{"ha":838,"x_min":61,"x_max":765,"o":"m 61 0 l 61 22 l 164 68 l 164 710 l 61 756 l 61 778 l 732 778 l 732 569 l 710 569 l 619 707 l 367 707 l 367 435 l 546 435 l 610 535 l 631 535 l 631 271 l 610 271 l 546 369 l 367 369 l 367 71 l 647 71 l 743 250 l 765 250 l 765 0 l 61 0 m 447 -312 q 374 -284 403 -312 q 346 -211 346 -256 q 374 -138 346 -167 q 447 -110 403 -110 q 520 -138 492 -110 q 549 -211 549 -167 q 520 -284 549 -256 q 447 -312 492 -312 z "},"ȅ":{"ha":838,"x_min":61,"x_max":765,"o":"m 61 0 l 61 22 l 164 68 l 164 710 l 61 756 l 61 778 l 732 778 l 732 569 l 710 569 l 619 707 l 367 707 l 367 435 l 546 435 l 610 535 l 631 535 l 631 271 l 610 271 l 546 369 l 367 369 l 367 71 l 647 71 l 743 250 l 765 250 l 765 0 l 61 0 m 331 882 l 175 1040 q 151 1085 151 1064 q 158 1128 151 1107 l 272 1128 l 361 882 l 331 882 m 521 882 l 386 1040 q 365 1086 367 1065 q 369 1128 363 1107 l 483 1128 l 551 882 l 521 882 z "},"ȇ":{"ha":838,"x_min":61,"x_max":765,"o":"m 61 0 l 61 22 l 164 68 l 164 710 l 61 756 l 61 778 l 732 778 l 732 569 l 710 569 l 619 707 l 367 707 l 367 435 l 546 435 l 610 535 l 631 535 l 631 271 l 610 271 l 546 369 l 367 369 l 367 71 l 647 71 l 743 250 l 765 250 l 765 0 l 61 0 m 219 896 q 297 1071 246 1014 q 440 1128 349 1128 q 588 1071 540 1128 q 661 896 635 1014 l 632 896 q 578 977 607 951 q 516 1011 550 1003 q 440 1019 482 1019 q 365 1011 399 1019 q 302 977 331 1003 q 249 896 274 951 l 219 896 z "},"ế":{"ha":838,"x_min":61,"x_max":797,"o":"m 61 0 l 61 22 l 164 68 l 164 710 l 61 756 l 61 778 l 732 778 l 732 569 l 710 569 l 619 707 l 367 707 l 367 435 l 546 435 l 610 535 l 631 535 l 631 271 l 610 271 l 546 369 l 367 369 l 367 71 l 647 71 l 743 250 l 765 250 l 765 0 l 61 0 m 599 1031 l 657 1229 l 797 1229 q 747 1142 797 1186 l 628 1031 l 599 1031 m 218 882 l 407 1128 l 474 1128 l 663 882 l 632 882 l 440 997 l 249 882 l 218 882 z "},"ệ":{"ha":838,"x_min":61,"x_max":765,"o":"m 61 0 l 61 22 l 164 68 l 164 710 l 61 756 l 61 778 l 732 778 l 732 569 l 710 569 l 619 707 l 367 707 l 367 435 l 546 435 l 610 535 l 631 535 l 631 271 l 610 271 l 546 369 l 367 369 l 367 71 l 647 71 l 743 250 l 765 250 l 765 0 l 61 0 m 218 882 l 407 1128 l 474 1128 l 663 882 l 632 882 l 440 997 l 249 882 l 218 882 m 447 -312 q 374 -284 403 -312 q 346 -211 346 -256 q 374 -138 346 -167 q 447 -110 403 -110 q 520 -138 492 -110 q 549 -211 549 -167 q 520 -284 549 -256 q 447 -312 492 -312 z "},"ề":{"ha":838,"x_min":61,"x_max":765,"o":"m 61 0 l 61 22 l 164 68 l 164 710 l 61 756 l 61 778 l 732 778 l 732 569 l 710 569 l 619 707 l 367 707 l 367 435 l 546 435 l 610 535 l 631 535 l 631 271 l 610 271 l 546 369 l 367 369 l 367 71 l 647 71 l 743 250 l 765 250 l 765 0 l 61 0 m 253 1031 l 133 1142 q 83 1229 83 1186 l 224 1229 l 282 1031 l 253 1031 m 218 882 l 407 1128 l 474 1128 l 663 882 l 632 882 l 440 997 l 249 882 l 218 882 z "},"ể":{"ha":838,"x_min":61,"x_max":765,"o":"m 61 0 l 61 22 l 164 68 l 164 710 l 61 756 l 61 778 l 732 778 l 732 569 l 710 569 l 619 707 l 367 707 l 367 435 l 546 435 l 610 535 l 631 535 l 631 271 l 610 271 l 546 369 l 367 369 l 367 71 l 647 71 l 743 250 l 765 250 l 765 0 l 61 0 z "},"ễ":{"ha":838,"x_min":61,"x_max":765,"o":"m 61 0 l 61 22 l 164 68 l 164 710 l 61 756 l 61 778 l 732 778 l 732 569 l 710 569 l 619 707 l 367 707 l 367 435 l 546 435 l 610 535 l 631 535 l 631 271 l 610 271 l 546 369 l 367 369 l 367 71 l 647 71 l 743 250 l 765 250 l 765 0 l 61 0 z "},"ẻ":{"ha":838,"x_min":61,"x_max":765,"o":"m 61 0 l 61 22 l 164 68 l 164 710 l 61 756 l 61 778 l 732 778 l 732 569 l 710 569 l 619 707 l 367 707 l 367 435 l 546 435 l 610 535 l 631 535 l 631 271 l 610 271 l 546 369 l 367 369 l 367 71 l 647 71 l 743 250 l 765 250 l 765 0 l 61 0 m 363 900 l 363 901 q 428 931 407 917 q 450 971 450 944 q 428 1007 450 993 q 350 1032 406 1021 l 369 1128 q 501 1085 464 1119 q 539 1015 539 1051 q 498 929 539 960 q 376 888 457 899 l 363 900 z "},"ḕ":{"ha":838,"x_min":61,"x_max":765,"o":"m 61 0 l 61 22 l 164 68 l 164 710 l 61 756 l 61 778 l 732 778 l 732 569 l 710 569 l 619 707 l 367 707 l 367 435 l 546 435 l 610 535 l 631 535 l 631 271 l 610 271 l 546 369 l 367 369 l 367 71 l 647 71 l 743 250 l 765 250 l 765 0 l 61 0 z "},"ḗ":{"ha":838,"x_min":61,"x_max":765,"o":"m 61 0 l 61 22 l 164 68 l 164 710 l 61 756 l 61 778 l 732 778 l 732 569 l 710 569 l 619 707 l 367 707 l 367 435 l 546 435 l 610 535 l 631 535 l 631 271 l 610 271 l 546 369 l 367 369 l 367 71 l 647 71 l 743 250 l 765 250 l 765 0 l 61 0 z "},"ḝ":{"ha":838,"x_min":61,"x_max":765,"o":"m 440 896 q 293 953 340 896 q 219 1128 246 1010 l 249 1128 q 302 1047 274 1072 q 365 1013 331 1021 q 440 1004 399 1004 q 517 1013 483 1004 q 578 1047 550 1021 q 632 1128 606 1072 l 663 1128 q 584 953 636 1010 q 440 896 532 896 m 61 0 l 61 22 l 164 68 l 164 710 l 61 756 l 61 778 l 732 778 l 732 569 l 710 569 l 619 707 l 367 707 l 367 435 l 546 435 l 610 535 l 631 535 l 631 271 l 610 271 l 546 369 l 367 369 l 367 71 l 647 71 l 743 250 l 765 250 l 765 0 l 475 0 l 449 -60 q 560 -117 528 -83 q 592 -206 592 -151 q 552 -297 592 -261 q 446 -333 513 -333 q 333 -300 372 -333 l 333 -274 l 338 -274 q 417 -290 371 -290 q 493 -236 493 -290 q 466 -186 493 -207 q 357 -143 439 -165 l 422 0 l 61 0 z "},"ĝ":{"ha":938,"x_min":69,"x_max":896,"o":"m 490 -14 q 277 35 372 -14 q 126 171 182 83 q 69 374 69 258 q 106 544 69 467 q 206 677 142 621 q 353 763 269 733 q 531 793 436 793 q 683 776 624 793 q 793 736 742 760 l 806 528 l 782 528 l 681 683 q 613 716 643 707 q 543 725 583 725 q 398 683 458 725 q 306 566 338 640 q 274 394 274 492 q 342 151 274 243 q 533 58 410 58 q 608 67 571 58 l 608 279 l 503 333 l 503 354 l 896 354 l 896 333 l 807 278 l 807 85 q 722 33 774 56 q 610 -1 669 11 q 490 -14 550 -14 m 279 882 l 468 1128 l 535 1128 l 724 882 l 693 882 l 501 997 l 310 882 l 279 882 z "},"ğ":{"ha":938,"x_min":69,"x_max":896,"o":"m 490 -14 q 277 35 372 -14 q 126 171 182 83 q 69 374 69 258 q 106 544 69 467 q 206 677 142 621 q 353 763 269 733 q 531 793 436 793 q 683 776 624 793 q 793 736 742 760 l 806 528 l 782 528 l 681 683 q 613 716 643 707 q 543 725 583 725 q 398 683 458 725 q 306 566 338 640 q 274 394 274 492 q 342 151 274 243 q 533 58 410 58 q 608 67 571 58 l 608 279 l 503 333 l 503 354 l 896 354 l 896 333 l 807 278 l 807 85 q 722 33 774 56 q 610 -1 669 11 q 490 -14 550 -14 m 501 896 q 354 953 401 896 q 281 1128 307 1010 l 310 1128 q 363 1047 335 1074 q 426 1013 392 1021 q 501 1004 460 1004 q 577 1013 543 1004 q 640 1047 611 1021 q 693 1128 668 1074 l 722 1128 q 644 953 696 1010 q 501 896 593 896 z "},"ġ":{"ha":938,"x_min":69,"x_max":896,"o":"m 490 -14 q 277 35 372 -14 q 126 171 182 83 q 69 374 69 258 q 106 544 69 467 q 206 677 142 621 q 353 763 269 733 q 531 793 436 793 q 683 776 624 793 q 793 736 742 760 l 806 528 l 782 528 l 681 683 q 613 716 643 707 q 543 725 583 725 q 398 683 458 725 q 306 566 338 640 q 274 394 274 492 q 342 151 274 243 q 533 58 410 58 q 608 67 571 58 l 608 279 l 503 333 l 503 354 l 896 354 l 896 333 l 807 278 l 807 85 q 722 33 774 56 q 610 -1 669 11 q 490 -14 550 -14 m 500 903 q 427 931 456 903 q 399 1004 399 960 q 427 1077 399 1049 q 500 1106 456 1106 q 573 1077 544 1106 q 601 1004 601 1049 q 573 931 601 960 q 500 903 544 903 z "},"ģ":{"ha":938,"x_min":69,"x_max":896,"o":"m 490 -14 q 277 35 372 -14 q 126 171 182 83 q 69 374 69 258 q 106 544 69 467 q 206 677 142 621 q 353 763 269 733 q 531 793 436 793 q 683 776 624 793 q 793 736 742 760 l 806 528 l 782 528 l 681 683 q 613 716 643 707 q 543 725 583 725 q 398 683 458 725 q 306 566 338 640 q 274 394 274 492 q 342 151 274 243 q 533 58 410 58 q 608 67 571 58 l 608 279 l 503 333 l 503 354 l 896 354 l 896 333 l 807 278 l 807 85 q 722 33 774 56 q 610 -1 669 11 q 490 -14 550 -14 m 539 892 q 426 922 464 892 q 388 1003 388 951 q 431 1089 388 1060 q 543 1118 475 1118 q 569 1117 554 1118 q 593 1114 583 1115 l 593 1088 q 572 1091 583 1090 q 554 1092 561 1092 q 485 1044 485 1092 q 512 1004 485 1015 q 594 993 539 993 l 594 921 q 583 900 594 908 q 539 892 571 892 z "},"ǧ":{"ha":938,"x_min":69,"x_max":896,"o":"m 490 -14 q 277 35 372 -14 q 126 171 182 83 q 69 374 69 258 q 106 544 69 467 q 206 677 142 621 q 353 763 269 733 q 531 793 436 793 q 683 776 624 793 q 793 736 742 760 l 806 528 l 782 528 l 681 683 q 613 716 643 707 q 543 725 583 725 q 398 683 458 725 q 306 566 338 640 q 274 394 274 492 q 342 151 274 243 q 533 58 410 58 q 608 67 571 58 l 608 279 l 503 333 l 503 354 l 896 354 l 896 333 l 807 278 l 807 85 q 722 33 774 56 q 610 -1 669 11 q 490 -14 550 -14 m 468 882 l 279 1128 l 310 1128 l 501 1013 l 693 1128 l 724 1128 l 535 882 l 468 882 z "},"ḡ":{"ha":938,"x_min":69,"x_max":896,"o":"m 490 -14 q 277 35 372 -14 q 126 171 182 83 q 69 374 69 258 q 106 544 69 467 q 206 677 142 621 q 353 763 269 733 q 531 793 436 793 q 683 776 624 793 q 793 736 742 760 l 806 528 l 782 528 l 681 683 q 613 716 643 707 q 543 725 583 725 q 398 683 458 725 q 306 566 338 640 q 274 394 274 492 q 342 151 274 243 q 533 58 410 58 q 608 67 571 58 l 608 279 l 503 333 l 503 354 l 896 354 l 896 333 l 807 278 l 807 85 q 722 33 774 56 q 610 -1 669 11 q 490 -14 550 -14 m 300 961 l 300 1044 l 703 1044 l 703 961 l 300 961 z "},"ĥ":{"ha":1042,"x_min":61,"x_max":982,"o":"m 61 0 l 61 22 l 164 68 l 164 710 l 61 756 l 61 778 l 463 778 l 463 756 l 367 710 l 367 436 l 678 436 l 678 710 l 582 756 l 582 778 l 982 778 l 982 756 l 881 710 l 881 68 l 982 22 l 982 0 l 582 0 l 582 22 l 678 68 l 678 365 l 367 365 l 367 68 l 463 22 l 463 0 l 61 0 m 300 882 l 489 1128 l 556 1128 l 744 882 l 714 882 l 522 997 l 331 882 l 300 882 z "},"ħ":{"ha":1042,"x_min":61,"x_max":982,"o":"m 61 0 l 61 22 l 164 68 l 164 556 l 61 556 l 61 622 l 164 622 l 164 710 l 61 756 l 61 778 l 463 778 l 463 756 l 367 710 l 367 622 l 678 622 l 678 710 l 582 756 l 582 778 l 982 778 l 982 756 l 881 710 l 881 622 l 982 622 l 982 556 l 881 556 l 881 68 l 982 22 l 982 0 l 582 0 l 582 22 l 678 68 l 678 365 l 367 365 l 367 68 l 463 22 l 463 0 l 61 0 m 367 436 l 678 436 l 678 556 l 367 556 l 367 436 z "},"ḥ":{"ha":1042,"x_min":61,"x_max":982,"o":"m 61 0 l 61 22 l 164 68 l 164 710 l 61 756 l 61 778 l 463 778 l 463 756 l 367 710 l 367 436 l 678 436 l 678 710 l 582 756 l 582 778 l 982 778 l 982 756 l 881 710 l 881 68 l 982 22 l 982 0 l 582 0 l 582 22 l 678 68 l 678 365 l 367 365 l 367 68 l 463 22 l 463 0 l 61 0 m 522 -312 q 449 -284 478 -312 q 421 -211 421 -256 q 449 -138 421 -167 q 522 -110 478 -110 q 595 -138 567 -110 q 624 -211 624 -167 q 595 -284 624 -256 q 522 -312 567 -312 z "},"ḫ":{"ha":1042,"x_min":61,"x_max":982,"o":"m 61 0 l 61 22 l 164 68 l 164 710 l 61 756 l 61 778 l 463 778 l 463 756 l 367 710 l 367 436 l 678 436 l 678 710 l 582 756 l 582 778 l 982 778 l 982 756 l 881 710 l 881 68 l 982 22 l 982 0 l 582 0 l 582 22 l 678 68 l 678 365 l 367 365 l 367 68 l 463 22 l 463 0 l 61 0 m 522 -333 q 375 -276 422 -333 q 301 -101 328 -219 l 331 -101 q 384 -182 356 -156 q 447 -217 413 -208 q 522 -225 481 -225 q 598 -217 564 -225 q 660 -182 632 -208 q 714 -101 689 -156 l 743 -101 q 665 -276 717 -219 q 522 -333 614 -333 z "},"ì":{"ha":521,"x_min":4,"x_max":458,"o":"m 64 0 l 64 22 l 156 68 l 156 710 l 64 756 l 64 778 l 458 778 l 458 756 l 358 710 l 358 68 l 458 22 l 458 0 l 64 0 m 242 882 l 60 1032 q 16 1080 28 1058 q 4 1128 4 1101 l 157 1128 l 272 882 l 242 882 z "},"í":{"ha":521,"x_min":64,"x_max":513,"o":"m 64 0 l 64 22 l 156 68 l 156 710 l 64 756 l 64 778 l 458 778 l 458 756 l 358 710 l 358 68 l 458 22 l 458 0 l 64 0 m 244 882 l 360 1128 l 513 1128 q 500 1080 513 1101 q 457 1032 488 1058 l 275 882 l 244 882 z "},"î":{"ha":521,"x_min":35,"x_max":479,"o":"m 64 0 l 64 22 l 156 68 l 156 710 l 64 756 l 64 778 l 458 778 l 458 756 l 358 710 l 358 68 l 458 22 l 458 0 l 64 0 m 35 882 l 224 1128 l 290 1128 l 479 882 l 449 882 l 257 997 l 65 882 l 35 882 z "},"ĩ":{"ha":521,"x_min":28,"x_max":486,"o":"m 64 0 l 64 22 l 156 68 l 156 710 l 64 756 l 64 778 l 458 778 l 458 756 l 358 710 l 358 68 l 458 22 l 458 0 l 64 0 m 28 910 q 77 1033 54 993 q 123 1086 100 1074 q 176 1099 146 1099 q 249 1077 215 1099 q 315 1034 283 1056 q 372 1013 346 1013 q 415 1028 397 1013 q 456 1099 433 1044 l 486 1099 q 437 975 460 1015 q 391 922 414 935 q 338 910 368 910 q 265 931 299 910 q 199 974 231 953 q 142 996 168 996 q 99 980 117 996 q 58 910 81 964 l 28 910 z "},"ï":{"ha":521,"x_min":39,"x_max":475,"o":"m 64 0 l 64 22 l 156 68 l 156 710 l 64 756 l 64 778 l 458 778 l 458 756 l 358 710 l 358 68 l 458 22 l 458 0 l 64 0 m 119 922 q 62 946 85 922 q 39 1003 39 969 q 62 1060 39 1036 q 119 1083 85 1083 q 177 1060 154 1083 q 200 1003 200 1036 q 177 946 200 969 q 119 922 154 922 m 394 922 q 337 946 360 922 q 314 1003 314 969 q 337 1060 314 1036 q 394 1083 360 1083 q 452 1060 429 1083 q 475 1003 475 1036 q 452 946 475 969 q 394 922 429 922 z "},"ī":{"ha":521,"x_min":56,"x_max":458,"o":"m 64 0 l 64 22 l 156 68 l 156 710 l 64 756 l 64 778 l 458 778 l 458 756 l 358 710 l 358 68 l 458 22 l 458 0 l 64 0 m 56 961 l 56 1044 l 458 1044 l 458 961 l 56 961 z "},"ĭ":{"ha":521,"x_min":36,"x_max":478,"o":"m 64 0 l 64 22 l 156 68 l 156 710 l 64 756 l 64 778 l 458 778 l 458 756 l 358 710 l 358 68 l 458 22 l 458 0 l 64 0 m 257 896 q 110 953 157 896 q 36 1128 63 1010 l 65 1128 q 119 1047 90 1074 q 181 1013 147 1021 q 257 1004 215 1004 q 333 1013 299 1004 q 395 1047 367 1021 q 449 1128 424 1074 l 478 1128 q 400 953 451 1010 q 257 896 349 896 z "},"į":{"ha":521,"x_min":64,"x_max":458,"o":"m 64 0 l 64 22 l 156 68 l 156 710 l 64 756 l 64 778 l 458 778 l 458 756 l 358 710 l 358 68 l 458 22 l 458 0 l 299 0 q 243 -176 243 -96 q 324 -261 243 -261 q 358 -256 340 -261 q 390 -239 375 -250 l 394 -239 l 394 -265 q 269 -333 360 -333 q 169 -299 207 -333 q 131 -208 131 -264 q 163 -109 131 -160 q 251 0 196 -58 l 64 0 z "},"ị":{"ha":521,"x_min":64,"x_max":458,"o":"m 64 0 l 64 22 l 156 68 l 156 710 l 64 756 l 64 778 l 458 778 l 458 756 l 358 710 l 358 68 l 458 22 l 458 0 l 64 0 m 257 -312 q 184 -284 213 -312 q 156 -211 156 -256 q 184 -138 156 -167 q 257 -110 213 -110 q 330 -138 301 -110 q 358 -211 358 -167 q 330 -284 358 -256 q 257 -312 301 -312 z "},"ȉ":{"ha":521,"x_min":-32,"x_max":458,"o":"m 64 0 l 64 22 l 156 68 l 156 710 l 64 756 l 64 778 l 458 778 l 458 756 l 358 710 l 358 68 l 458 22 l 458 0 l 64 0 m 147 882 l -8 1040 q -32 1085 -32 1064 q -25 1128 -32 1107 l 89 1128 l 178 882 l 147 882 m 338 882 l 203 1040 q 181 1086 183 1065 q 186 1128 179 1107 l 300 1128 l 368 882 l 338 882 z "},"ȋ":{"ha":521,"x_min":36,"x_max":478,"o":"m 64 0 l 64 22 l 156 68 l 156 710 l 64 756 l 64 778 l 458 778 l 458 756 l 358 710 l 358 68 l 458 22 l 458 0 l 64 0 m 36 896 q 114 1071 63 1014 q 257 1128 165 1128 q 404 1071 357 1128 q 478 896 451 1014 l 449 896 q 395 977 424 951 q 333 1011 367 1003 q 257 1019 299 1019 q 181 1011 215 1019 q 119 977 147 1003 q 65 896 90 951 l 36 896 z "},"ỉ":{"ha":521,"x_min":64,"x_max":458,"o":"m 64 0 l 64 22 l 156 68 l 156 710 l 64 756 l 64 778 l 458 778 l 458 756 l 358 710 l 358 68 l 458 22 l 458 0 l 64 0 m 179 900 l 179 901 q 245 931 224 917 q 267 971 267 944 q 244 1007 267 993 q 167 1032 222 1021 l 186 1128 q 318 1085 281 1119 q 356 1015 356 1051 q 315 929 356 960 q 193 888 274 899 l 179 900 z "},"ḯ":{"ha":521,"x_min":39,"x_max":508,"o":"m 64 0 l 64 22 l 156 68 l 156 710 l 64 756 l 64 778 l 458 778 l 458 756 l 358 710 l 358 68 l 458 22 l 458 0 l 64 0 z "},"ĳ":{"ha":1068,"x_min":64,"x_max":1004,"o":"m 64 0 l 64 22 l 156 68 l 156 710 l 64 756 l 64 778 l 458 778 l 458 756 l 358 710 l 358 68 l 458 22 l 458 0 l 64 0 m 597 -204 q 558 -197 575 -204 q 542 -161 542 -189 q 547 -135 542 -158 q 557 -75 551 -111 l 567 -75 q 594 -83 582 -81 q 619 -86 606 -86 q 667 -74 649 -86 q 693 -22 685 -61 q 701 93 701 17 l 701 710 l 599 756 l 599 778 l 1004 778 l 1004 756 l 903 710 l 903 282 q 878 113 903 189 q 820 -17 853 38 q 763 -101 788 -72 q 682 -176 724 -147 q 597 -204 640 -204 z "},"ĵ":{"ha":547,"x_min":21,"x_max":497,"o":"m 76 -204 q 38 -197 54 -204 q 21 -161 21 -189 q 26 -135 21 -158 q 36 -75 31 -111 l 46 -75 q 73 -83 61 -81 q 99 -86 85 -86 q 146 -74 128 -86 q 172 -22 164 -61 q 181 93 181 17 l 181 710 l 78 756 l 78 778 l 483 778 l 483 756 l 382 710 l 382 282 q 357 113 382 189 q 299 -17 332 38 q 242 -101 267 -72 q 161 -176 203 -147 q 76 -204 119 -204 m 53 882 l 242 1128 l 308 1128 l 497 882 l 467 882 l 275 997 l 83 882 l 53 882 z "},"ķ":{"ha":997,"x_min":63,"x_max":975,"o":"m 63 0 l 63 22 l 165 68 l 165 710 l 63 756 l 63 778 l 471 778 l 471 756 l 368 710 l 368 68 l 471 22 l 471 0 l 63 0 m 682 0 l 368 393 l 688 715 l 600 756 l 600 778 l 889 778 l 889 756 l 806 721 l 549 475 l 883 58 l 975 22 l 975 0 l 682 0 m 489 -332 q 463 -331 478 -332 q 438 -326 449 -329 l 438 -301 q 460 -304 449 -303 q 478 -306 471 -306 q 547 -258 547 -306 q 520 -218 547 -229 q 436 -207 493 -207 l 436 -135 q 449 -114 436 -122 q 493 -106 461 -106 q 606 -135 568 -106 q 644 -217 644 -164 q 601 -302 644 -272 q 489 -332 557 -332 z "},"ĺ":{"ha":821,"x_min":61,"x_max":749,"o":"m 61 0 l 61 22 l 164 68 l 164 710 l 61 756 l 61 778 l 481 778 l 481 756 l 367 710 l 367 71 l 622 71 l 726 297 l 749 297 l 749 0 l 61 0 m 254 882 l 369 1128 l 522 1128 q 510 1080 522 1101 q 467 1032 497 1058 l 285 882 l 254 882 z "},"ľ":{"ha":821,"x_min":61,"x_max":749,"o":"m 61 0 l 61 22 l 164 68 l 164 710 l 61 756 l 61 778 l 481 778 l 481 756 l 367 710 l 367 71 l 622 71 l 726 297 l 749 297 l 749 0 l 61 0 m 549 518 l 571 778 l 708 778 q 712 737 713 758 q 693 688 711 715 l 579 518 l 549 518 z "},"ļ":{"ha":821,"x_min":61,"x_max":749,"o":"m 61 0 l 61 22 l 164 68 l 164 710 l 61 756 l 61 778 l 481 778 l 481 756 l 367 710 l 367 71 l 622 71 l 726 297 l 749 297 l 749 0 l 61 0 m 400 -332 q 374 -331 389 -332 q 349 -326 360 -329 l 349 -301 q 371 -304 360 -303 q 389 -306 382 -306 q 458 -258 458 -306 q 431 -218 458 -229 q 347 -207 404 -207 l 347 -135 q 360 -114 347 -122 q 404 -106 372 -106 q 517 -135 479 -106 q 556 -217 556 -164 q 512 -302 556 -272 q 400 -332 468 -332 z "},"ł":{"ha":821,"x_min":61,"x_max":749,"o":"m 61 0 l 61 22 l 164 68 l 164 247 l 61 182 l 61 263 l 164 326 l 164 710 l 61 756 l 61 778 l 481 778 l 481 756 l 367 710 l 367 438 l 535 543 l 535 464 l 367 358 l 367 71 l 622 71 l 726 297 l 749 297 l 749 0 l 61 0 z "},"ŀ":{"ha":821,"x_min":61,"x_max":765,"o":"m 61 0 l 61 22 l 164 68 l 164 710 l 61 756 l 61 778 l 481 778 l 481 756 l 367 710 l 367 71 l 622 71 l 726 297 l 749 297 l 749 0 l 61 0 m 664 324 q 591 352 619 324 q 563 425 563 381 q 591 498 563 469 q 664 526 619 526 q 737 498 708 526 q 765 425 765 469 q 737 352 765 381 q 664 324 708 324 z "},"ḷ":{"ha":821,"x_min":61,"x_max":749,"o":"m 61 0 l 61 22 l 164 68 l 164 710 l 61 756 l 61 778 l 481 778 l 481 756 l 367 710 l 367 71 l 622 71 l 726 297 l 749 297 l 749 0 l 61 0 m 450 -312 q 377 -284 406 -312 q 349 -211 349 -256 q 377 -138 349 -167 q 450 -110 406 -110 q 523 -138 494 -110 q 551 -211 551 -167 q 523 -284 551 -256 q 450 -312 494 -312 z "},"ḻ":{"ha":821,"x_min":61,"x_max":749,"o":"m 61 0 l 61 22 l 164 68 l 164 710 l 61 756 l 61 778 l 481 778 l 481 756 l 367 710 l 367 71 l 622 71 l 726 297 l 749 297 l 749 0 l 61 0 m 249 -249 l 249 -165 l 651 -165 l 651 -249 l 249 -249 z "},"ṃ":{"ha":1239,"x_min":58,"x_max":1181,"o":"m 58 0 l 58 22 l 161 69 l 186 711 l 81 756 l 81 778 l 408 778 l 632 271 l 856 778 l 1172 778 l 1172 756 l 1068 722 l 1088 69 l 1181 22 l 1181 0 l 788 0 l 788 22 l 883 68 l 872 625 l 594 -6 l 535 -6 l 260 626 l 244 68 l 349 22 l 349 0 l 58 0 m 565 -312 q 492 -284 521 -312 q 464 -211 464 -256 q 492 -138 464 -167 q 565 -110 521 -110 q 638 -138 610 -110 q 667 -211 667 -167 q 638 -284 667 -256 q 565 -312 610 -312 z "},"ń":{"ha":1015,"x_min":58,"x_max":958,"o":"m 58 0 l 58 24 l 161 69 l 161 710 l 58 756 l 58 778 l 310 778 l 772 264 l 772 710 l 638 756 l 638 778 l 958 778 l 958 756 l 857 710 l 857 -6 l 758 -6 l 246 560 l 246 71 l 381 24 l 381 0 l 58 0 m 501 882 l 617 1128 l 769 1128 q 757 1080 769 1101 q 714 1032 744 1058 l 532 882 l 501 882 z "},"ň":{"ha":1015,"x_min":58,"x_max":958,"o":"m 58 0 l 58 24 l 161 69 l 161 710 l 58 756 l 58 778 l 310 778 l 772 264 l 772 710 l 638 756 l 638 778 l 958 778 l 958 756 l 857 710 l 857 -6 l 758 -6 l 246 560 l 246 71 l 381 24 l 381 0 l 58 0 m 481 882 l 292 1128 l 322 1128 l 514 1013 l 706 1128 l 736 1128 l 547 882 l 481 882 z "},"ñ":{"ha":1015,"x_min":58,"x_max":958,"o":"m 58 0 l 58 24 l 161 69 l 161 710 l 58 756 l 58 778 l 310 778 l 772 264 l 772 710 l 638 756 l 638 778 l 958 778 l 958 756 l 857 710 l 857 -6 l 758 -6 l 246 560 l 246 71 l 381 24 l 381 0 l 58 0 m 285 910 q 334 1033 311 993 q 380 1086 357 1074 q 433 1099 403 1099 q 506 1077 472 1099 q 572 1034 540 1056 q 629 1013 603 1013 q 672 1028 654 1013 q 713 1099 690 1044 l 743 1099 q 694 975 717 1015 q 648 922 671 935 q 594 910 625 910 q 522 931 556 910 q 456 974 488 953 q 399 996 425 996 q 356 980 374 996 q 315 910 338 964 l 285 910 z "},"ņ":{"ha":1015,"x_min":58,"x_max":958,"o":"m 58 0 l 58 24 l 161 69 l 161 710 l 58 756 l 58 778 l 310 778 l 772 264 l 772 710 l 638 756 l 638 778 l 958 778 l 958 756 l 857 710 l 857 -6 l 758 -6 l 246 560 l 246 71 l 381 24 l 381 0 l 58 0 m 467 -332 q 441 -331 456 -332 q 415 -326 426 -329 l 415 -301 q 438 -304 426 -303 q 456 -306 449 -306 q 525 -258 525 -306 q 498 -218 525 -229 q 414 -207 471 -207 l 414 -135 q 426 -114 414 -122 q 471 -106 439 -106 q 584 -135 546 -106 q 622 -217 622 -164 q 578 -302 622 -272 q 467 -332 535 -332 z "},"ṅ":{"ha":1015,"x_min":58,"x_max":958,"o":"m 58 0 l 58 24 l 161 69 l 161 710 l 58 756 l 58 778 l 310 778 l 772 264 l 772 710 l 638 756 l 638 778 l 958 778 l 958 756 l 857 710 l 857 -6 l 758 -6 l 246 560 l 246 71 l 381 24 l 381 0 l 58 0 m 514 903 q 441 931 469 903 q 413 1004 413 960 q 441 1077 413 1049 q 514 1106 469 1106 q 587 1077 558 1106 q 615 1004 615 1049 q 587 931 615 960 q 514 903 558 903 z "},"ṇ":{"ha":1015,"x_min":58,"x_max":958,"o":"m 58 0 l 58 24 l 161 69 l 161 710 l 58 756 l 58 778 l 310 778 l 772 264 l 772 710 l 638 756 l 638 778 l 958 778 l 958 756 l 857 710 l 857 -6 l 758 -6 l 246 560 l 246 71 l 381 24 l 381 0 l 58 0 m 518 -312 q 445 -284 474 -312 q 417 -211 417 -256 q 445 -138 417 -167 q 518 -110 474 -110 q 591 -138 563 -110 q 619 -211 619 -167 q 591 -284 619 -256 q 518 -312 563 -312 z "},"ṉ":{"ha":1015,"x_min":58,"x_max":958,"o":"m 58 0 l 58 24 l 161 69 l 161 710 l 58 756 l 58 778 l 310 778 l 772 264 l 772 710 l 638 756 l 638 778 l 958 778 l 958 756 l 857 710 l 857 -6 l 758 -6 l 246 560 l 246 71 l 381 24 l 381 0 l 58 0 m 317 -249 l 317 -165 l 719 -165 l 719 -249 l 317 -249 z "},"ò":{"ha":974,"x_min":68,"x_max":906,"o":"m 486 -14 q 270 39 364 -14 q 122 183 176 92 q 68 390 68 274 q 122 597 68 506 q 270 742 176 689 q 486 794 364 794 q 703 742 608 794 q 851 597 797 689 q 906 390 906 506 q 851 183 906 274 q 703 39 797 92 q 486 -14 608 -14 m 506 58 q 645 142 594 58 q 696 356 696 225 q 667 545 696 463 q 588 675 639 628 q 472 722 538 722 q 370 685 414 722 q 302 581 326 647 q 278 426 278 514 q 307 236 278 319 q 388 106 336 153 q 506 58 439 58 m 465 882 l 283 1032 q 240 1080 251 1058 q 228 1128 228 1101 l 381 1128 l 496 882 l 465 882 z "},"ó":{"ha":974,"x_min":68,"x_max":906,"o":"m 486 -14 q 270 39 364 -14 q 122 183 176 92 q 68 390 68 274 q 122 597 68 506 q 270 742 176 689 q 486 794 364 794 q 703 742 608 794 q 851 597 797 689 q 906 390 906 506 q 851 183 906 274 q 703 39 797 92 q 486 -14 608 -14 m 506 58 q 645 142 594 58 q 696 356 696 225 q 667 545 696 463 q 588 675 639 628 q 472 722 538 722 q 370 685 414 722 q 302 581 326 647 q 278 426 278 514 q 307 236 278 319 q 388 106 336 153 q 506 58 439 58 m 468 882 l 583 1128 l 736 1128 q 724 1080 736 1101 q 681 1032 711 1058 l 499 882 l 468 882 z "},"ô":{"ha":974,"x_min":68,"x_max":906,"o":"m 486 -14 q 270 39 364 -14 q 122 183 176 92 q 68 390 68 274 q 122 597 68 506 q 270 742 176 689 q 486 794 364 794 q 703 742 608 794 q 851 597 797 689 q 906 390 906 506 q 851 183 906 274 q 703 39 797 92 q 486 -14 608 -14 m 506 58 q 645 142 594 58 q 696 356 696 225 q 667 545 696 463 q 588 675 639 628 q 472 722 538 722 q 370 685 414 722 q 302 581 326 647 q 278 426 278 514 q 307 236 278 319 q 388 106 336 153 q 506 58 439 58 m 260 882 l 449 1128 l 515 1128 l 704 882 l 674 882 l 482 997 l 290 882 l 260 882 z "},"õ":{"ha":974,"x_min":68,"x_max":906,"o":"m 486 -14 q 270 39 364 -14 q 122 183 176 92 q 68 390 68 274 q 122 597 68 506 q 270 742 176 689 q 486 794 364 794 q 703 742 608 794 q 851 597 797 689 q 906 390 906 506 q 851 183 906 274 q 703 39 797 92 q 486 -14 608 -14 m 506 58 q 645 142 594 58 q 696 356 696 225 q 667 545 696 463 q 588 675 639 628 q 472 722 538 722 q 370 685 414 722 q 302 581 326 647 q 278 426 278 514 q 307 236 278 319 q 388 106 336 153 q 506 58 439 58 m 253 910 q 302 1033 279 993 q 348 1086 325 1074 q 401 1099 371 1099 q 474 1077 440 1099 q 540 1034 508 1056 q 597 1013 571 1013 q 640 1028 622 1013 q 681 1099 658 1044 l 711 1099 q 662 975 685 1015 q 616 922 639 935 q 563 910 593 910 q 490 931 524 910 q 424 974 456 953 q 367 996 393 996 q 324 980 342 996 q 283 910 306 964 l 253 910 z "},"ö":{"ha":974,"x_min":68,"x_max":906,"o":"m 486 -14 q 270 39 364 -14 q 122 183 176 92 q 68 390 68 274 q 122 597 68 506 q 270 742 176 689 q 486 794 364 794 q 703 742 608 794 q 851 597 797 689 q 906 390 906 506 q 851 183 906 274 q 703 39 797 92 q 486 -14 608 -14 m 506 58 q 645 142 594 58 q 696 356 696 225 q 667 545 696 463 q 588 675 639 628 q 472 722 538 722 q 370 685 414 722 q 302 581 326 647 q 278 426 278 514 q 307 236 278 319 q 388 106 336 153 q 506 58 439 58 m 344 922 q 287 946 310 922 q 264 1003 264 969 q 287 1060 264 1036 q 344 1083 310 1083 q 402 1060 379 1083 q 425 1003 425 1036 q 402 946 425 969 q 344 922 379 922 m 619 922 q 562 946 585 922 q 539 1003 539 969 q 562 1060 539 1036 q 619 1083 585 1083 q 677 1060 654 1083 q 700 1003 700 1036 q 677 946 700 969 q 619 922 654 922 z "},"ō":{"ha":974,"x_min":68,"x_max":906,"o":"m 486 -14 q 270 39 364 -14 q 122 183 176 92 q 68 390 68 274 q 122 597 68 506 q 270 742 176 689 q 486 794 364 794 q 703 742 608 794 q 851 597 797 689 q 906 390 906 506 q 851 183 906 274 q 703 39 797 92 q 486 -14 608 -14 m 506 58 q 645 142 594 58 q 696 356 696 225 q 667 545 696 463 q 588 675 639 628 q 472 722 538 722 q 370 685 414 722 q 302 581 326 647 q 278 426 278 514 q 307 236 278 319 q 388 106 336 153 q 506 58 439 58 m 281 961 l 281 1044 l 683 1044 l 683 961 l 281 961 z "},"ŏ":{"ha":974,"x_min":68,"x_max":906,"o":"m 486 -14 q 270 39 364 -14 q 122 183 176 92 q 68 390 68 274 q 122 597 68 506 q 270 742 176 689 q 486 794 364 794 q 703 742 608 794 q 851 597 797 689 q 906 390 906 506 q 851 183 906 274 q 703 39 797 92 q 486 -14 608 -14 m 506 58 q 645 142 594 58 q 696 356 696 225 q 667 545 696 463 q 588 675 639 628 q 472 722 538 722 q 370 685 414 722 q 302 581 326 647 q 278 426 278 514 q 307 236 278 319 q 388 106 336 153 q 506 58 439 58 m 482 896 q 335 953 382 896 q 261 1128 288 1010 l 290 1128 q 344 1047 315 1074 q 406 1013 372 1021 q 482 1004 440 1004 q 558 1013 524 1004 q 620 1047 592 1021 q 674 1128 649 1074 l 703 1128 q 625 953 676 1010 q 482 896 574 896 z "},"ő":{"ha":974,"x_min":68,"x_max":906,"o":"m 486 -14 q 270 39 364 -14 q 122 183 176 92 q 68 390 68 274 q 122 597 68 506 q 270 742 176 689 q 486 794 364 794 q 703 742 608 794 q 851 597 797 689 q 906 390 906 506 q 851 183 906 274 q 703 39 797 92 q 486 -14 608 -14 m 506 58 q 645 142 594 58 q 696 356 696 225 q 667 545 696 463 q 588 675 639 628 q 472 722 538 722 q 370 685 414 722 q 302 581 326 647 q 278 426 278 514 q 307 236 278 319 q 388 106 336 153 q 506 58 439 58 m 361 882 l 422 1128 l 536 1128 q 541 1086 543 1107 q 519 1040 539 1065 l 392 882 l 361 882 m 551 882 l 635 1128 l 749 1128 q 756 1085 756 1107 q 732 1040 756 1064 l 582 882 l 551 882 z "},"ọ":{"ha":974,"x_min":68,"x_max":906,"o":"m 486 -14 q 270 39 364 -14 q 122 183 176 92 q 68 390 68 274 q 122 597 68 506 q 270 742 176 689 q 486 794 364 794 q 703 742 608 794 q 851 597 797 689 q 906 390 906 506 q 851 183 906 274 q 703 39 797 92 q 486 -14 608 -14 m 506 58 q 645 142 594 58 q 696 356 696 225 q 667 545 696 463 q 588 675 639 628 q 472 722 538 722 q 370 685 414 722 q 302 581 326 647 q 278 426 278 514 q 307 236 278 319 q 388 106 336 153 q 506 58 439 58 m 493 -312 q 420 -284 449 -312 q 392 -211 392 -256 q 420 -138 392 -167 q 493 -110 449 -110 q 566 -138 538 -110 q 594 -211 594 -167 q 566 -284 594 -256 q 493 -312 538 -312 z "}}}
